<svg width="724" height="670" viewBox="0 0 724 670" fill="none" xmlns="http://www.w3.org/2000/svg">
<path d="M84.0132 229.839H5.49219V240.056H84.0132V229.839Z" fill="#07113D"/>
<path d="M165.49 251.365H6.10742V255.957H165.49V251.365Z" fill="#6A8593"/>
<path d="M164.932 251.922V255.399H6.66507V251.922H164.932ZM166.047 250.807H164.932H6.66507H5.55005V251.922V255.399V256.514H6.66507H164.932H166.047V255.399V251.922V250.807Z" fill="#6A8593"/>
<path d="M165.49 266.052H6.10742V270.643H165.49V266.052Z" fill="#6A8593"/>
<path d="M164.932 266.609V270.086H6.66507V266.609H164.932ZM166.047 265.494H164.932H6.66507H5.55005V266.609V270.086V271.201H6.66507H164.932H166.047V270.086V266.609V265.494Z" fill="#6A8593"/>
<path d="M108.846 280.739H6.10742V285.332H108.846V280.739Z" fill="#6A8593"/>
<path d="M108.288 281.296V284.773H6.66507V281.296H108.288ZM109.403 280.181H108.288H6.66507H5.55005V281.296V284.773V285.888H6.66507H108.288H109.403V284.773V281.296V280.181Z" fill="#6A8593"/>
<path d="M286.964 229.839H222.601V240.056H286.964V229.839Z" fill="#07113D"/>
<path d="M319.467 251.364H223.215V255.956H319.467V251.364Z" fill="#6A8593"/>
<path d="M318.909 251.921V255.398H223.772V251.921H318.909ZM320.024 250.806H318.909H223.772H222.657V251.921V255.398V256.513H223.772H318.909H320.024V255.398V251.921V250.806Z" fill="#6A8593"/>
<path d="M370.798 266.052H223.215V270.643H370.798V266.052Z" fill="#6A8593"/>
<path d="M370.24 266.609V270.086H223.772V266.609H370.24ZM371.355 265.494H370.24H223.772H222.657V266.609V270.086V271.201H223.772H370.24H371.355V270.086V266.609V265.494Z" fill="#6A8593"/>
<path d="M325.952 280.739H223.215V285.332H325.952V280.739Z" fill="#6A8593"/>
<path d="M325.395 281.296V284.773H223.772V281.296H325.395ZM326.51 280.181H325.395H223.772H222.657V281.296V284.773V285.888H223.772H325.395H326.51V284.773V281.296V280.181Z" fill="#6A8593"/>
<path d="M566.532 229.839H454.18V240.056H566.532V229.839Z" fill="#07113D"/>
<path d="M591.034 251.365H454.796V255.957H591.034V251.365Z" fill="#6A8593"/>
<path d="M590.477 251.922V255.399H455.353V251.922H590.477ZM591.592 250.807H590.477H455.353H454.238V251.922V255.399V256.514H455.353H590.476H591.591V255.399V251.922L591.592 250.807Z" fill="#6A8593"/>
<path d="M591.294 266.052H454.796V270.643H591.294V266.052Z" fill="#6A8593"/>
<path d="M590.736 266.609V270.086H455.354V266.609H590.736ZM591.851 265.494H590.736H455.354H454.239V266.609V270.086V271.201H455.354H590.736H591.851V270.086V266.609V265.494Z" fill="#6A8593"/>
<path d="M521.975 280.738H454.796V285.329H521.975V280.738Z" fill="#6A8593"/>
<path d="M521.418 281.295V284.772H455.354V281.295H521.418ZM522.533 280.18H521.418H455.354H454.239V281.295V284.772V285.887H455.354H521.418H522.533V284.772V281.295V280.18Z" fill="#6A8593"/>
<path d="M301.122 612.97H222.601V623.187H301.122V612.97Z" fill="#07113D"/>
<path d="M382.597 634.495H223.215V639.088H382.597V634.495Z" fill="#6A8593"/>
<path d="M382.04 635.053V638.529H223.772V635.053H382.04ZM383.155 633.938H382.04H223.772H222.657V635.053V638.529V639.644H223.772H382.04H383.155V638.529V635.053V633.938Z" fill="#6A8593"/>
<path d="M382.597 649.182H223.215V653.774H382.597V649.182Z" fill="#6A8593"/>
<path d="M382.04 649.74V653.216H223.772V649.74H382.04ZM383.155 648.625H382.04H223.772H222.657V649.74V653.216V654.331H223.772H382.04H383.155V653.216V649.74V648.625Z" fill="#6A8593"/>
<path d="M325.952 663.868H223.215V668.461H325.952V663.868Z" fill="#6A8593"/>
<path d="M325.395 664.427V667.903H223.772V664.427H325.395ZM326.51 663.312H325.395H223.772H222.657V664.427V667.903V669.018H223.772H325.395H326.51V667.903V664.427V663.312Z" fill="#6A8593"/>
<path d="M109.61 612.97H5.49219V623.187H109.61V612.97Z" fill="#07113D"/>
<path d="M103.211 634.495H6.10742V639.087H103.211V634.495Z" fill="#6A8593"/>
<path d="M102.654 635.052V638.528H6.66507V635.052H102.654ZM103.769 633.937H102.654H6.66507H5.55005V635.052V638.528V639.643H6.66507H102.654H103.769V638.528V635.052V633.937Z" fill="#6A8593"/>
<path d="M103.211 649.181H6.10742V653.774H103.211V649.181Z" fill="#6A8593"/>
<path d="M102.654 649.739V653.215H6.66507V649.739H102.654ZM103.769 648.624H102.654H6.66507H5.55005V649.739V653.215V654.33H6.66507H102.654H103.769V653.215V649.739V648.624Z" fill="#6A8593"/>
<path d="M68.8564 663.868H6.10742V668.46H68.8564V663.868Z" fill="#6A8593"/>
<path d="M68.299 664.426V667.902H6.66507V664.426H68.299ZM69.414 663.311H68.299H6.66507H5.55005V664.426V667.902V669.017H6.66507H68.299H69.414V667.902V664.426V663.311Z" fill="#6A8593"/>
<path d="M557.54 612.97H453.756V623.187H557.54V612.97Z" fill="#07113D"/>
<path d="M565.222 634.495H454.37V639.088H565.222V634.495Z" fill="#6A8593"/>
<path d="M564.666 635.053V638.53H454.928V635.053H564.666ZM565.781 633.938H564.666H454.928H453.813V635.053V638.53V639.645H454.928H564.666H565.781V638.53V635.053V633.938Z" fill="#6A8593"/>
<path d="M565.222 649.182H454.37V653.774H565.222V649.182Z" fill="#6A8593"/>
<path d="M564.666 649.739V653.215H454.928V649.739H564.666ZM565.781 648.624H564.666H454.928H453.813V649.739V653.215V654.33H454.928H564.666H565.781V653.215V649.739V648.624Z" fill="#6A8593"/>
<path d="M452.697 667.903H554.32V664.427H452.697V667.903Z" fill="#07113D"/>
<mask id="mask0_2_302" style="mask-type:luminance" maskUnits="userSpaceOnUse" x="226" y="5" width="159" height="212">
<path d="M384.082 5.63387H226.858V216.274H384.082V5.63387Z" fill="white"/>
</mask>
<g mask="url(#mask0_2_302)">
<path d="M201.471 252.679C202.676 249.946 251.232 171.024 269.151 162.058C287.07 153.092 335.071 157.895 344.033 164.862C352.996 171.83 403.562 242.053 409.56 256.607C416.534 273.531 409.57 295.437 401.605 295.439C393.64 295.441 214.425 295.488 214.425 295.488C214.425 295.488 186.545 286.536 201.471 252.679Z" fill="#07113D"/>
<path d="M362.016 202.657L358.662 346.398L249.815 347.434L246.93 202.686C246.924 178.432 264.482 158.251 287.585 154.184C290.364 153.704 293.215 153.45 296.143 153.449L312.78 153.445C339.961 153.438 362.01 175.475 362.016 202.657Z" fill="#07113D"/>
<path d="M319.771 130.563L297.001 130.569C277.617 130.574 261.898 114.864 261.893 95.479L261.886 68.666C261.879 44.2972 281.63 24.5379 305.997 24.5313L310.718 24.5301C335.087 24.5234 354.846 44.2738 354.853 68.6426L354.86 95.4556C354.867 114.839 339.156 130.559 319.771 130.563Z" fill="#B95241"/>
<path d="M274.227 79.7159L273.603 90.5651L273.172 97.8896L269.901 97.7458C269.662 97.7324 269.424 97.7202 269.2 97.68C263.748 97.1036 259.641 92.726 259.907 87.9124C260.041 85.4137 261.354 83.3364 263.356 81.7575C265.148 80.3504 267.507 79.5999 270.076 79.5732H270.091C270.389 79.5464 270.642 79.5464 270.941 79.5732L274.227 79.7159Z" fill="#F4A891"/>
<path d="M345.517 79.9467L346.147 90.7948L346.582 98.1182L349.853 97.9733C350.092 97.9599 350.331 97.9465 350.555 97.9075C356.006 97.3277 360.112 92.9479 359.842 88.1354C359.707 85.6367 358.391 83.5594 356.39 81.9816C354.597 80.5756 352.237 79.8263 349.668 79.8007H349.654C349.355 79.775 349.102 79.775 348.803 79.8007L345.517 79.9467Z" fill="#F4A891"/>
<path d="M311.138 171.294L304.591 171.295C297.524 171.297 291.741 165.516 291.739 158.449L291.729 120.021C291.726 112.954 297.508 107.17 304.575 107.168L311.121 107.165C318.188 107.163 323.972 112.945 323.974 120.012L323.984 158.44C323.985 165.509 318.205 171.293 311.138 171.294Z" fill="#F4A891"/>
<path d="M351.796 78.1939L350.785 98.0424L350.637 101.014C350.548 102.971 350.295 104.912 349.937 106.78C346.88 122.552 334.801 135.025 319.419 138.987C317.702 139.435 315.94 139.764 314.147 139.99C313.61 140.08 313.056 140.124 312.519 140.153C311.384 140.274 310.249 140.333 309.099 140.334C308.277 140.334 307.457 140.305 306.619 140.275C304.738 140.171 302.915 139.947 301.109 139.604C300.362 139.47 299.631 139.306 298.899 139.127C296.106 138.47 293.448 137.515 290.923 136.321C290.923 136.321 290.908 136.321 290.893 136.306C278.794 130.589 269.981 119.33 267.573 106.084C267.558 106.038 267.558 106.009 267.558 105.965C267.318 104.531 267.139 103.082 267.034 101.618C266.989 101.156 266.974 100.707 266.959 100.245C266.944 99.7674 266.929 99.3035 266.944 98.8263C266.914 98.2732 266.944 97.7057 266.973 97.1381V96.8393L267.032 95.4801L267.225 91.9399L267.522 85.8764V85.8173L267.819 79.6936L267.835 79.5743V79.5587L267.954 77.3041L268.043 75.5413L268.132 73.9279L268.162 73.5097C268.325 70.7021 268.893 67.9837 269.713 65.3846C270.265 63.5615 270.951 61.7853 271.713 60.0815C271.816 59.7983 271.921 59.5597 272.04 59.3055C272.667 57.9005 273.399 56.5123 274.19 55.1977C274.19 55.1821 274.205 55.1676 274.205 55.1676C277.205 50.1489 281.25 45.8025 286.029 42.4407C286.985 41.7684 287.971 41.125 288.971 40.5285C295.944 36.4341 304.127 34.2375 312.76 34.6824C324.305 35.2778 334.656 40.4571 341.871 48.3693C343.992 50.6997 345.726 53.2375 347.144 55.9849C348.325 58.2105 349.296 60.5543 350.133 63.033C350.672 64.5862 351.06 66.184 351.344 67.7963C351.344 67.7963 351.344 67.812 351.344 67.8265C351.434 68.3795 351.508 68.9169 351.568 69.4689C351.689 70.4389 351.778 71.4257 351.822 72.4259C351.914 74.3103 351.899 76.2371 351.796 78.1939Z" fill="#FFC7B0"/>
<path d="M325.156 90.9854C324.129 90.9854 323.289 90.1458 323.288 89.1189L323.287 83.1446C323.287 82.1176 324.127 81.278 325.154 81.2769C326.181 81.2769 327.02 82.1165 327.021 83.1435L327.022 89.1178C327.022 90.1447 326.182 90.9843 325.156 90.9854Z" fill="#07113D"/>
<path d="M292.548 90.8695C291.521 90.8695 290.681 90.0298 290.68 89.0029L290.679 83.0286C290.679 82.0017 291.519 81.1621 292.546 81.161C293.573 81.161 294.413 82.0006 294.413 83.0275L294.415 89.0018C294.415 90.0287 293.575 90.8683 292.548 90.8695Z" fill="#07113D"/>
<path d="M331.933 75.9003L317.985 75.9037C316.892 75.9037 315.998 75.0105 315.998 73.9178C315.998 72.8251 316.891 71.9308 317.984 71.9308L331.932 71.9275C333.024 71.9275 333.919 72.8206 333.919 73.9133C333.919 75.0049 333.026 75.8992 331.933 75.9003Z" fill="#B95241"/>
<path d="M299.823 75.9081L285.876 75.9114C284.783 75.9114 283.889 75.0183 283.889 73.9256C283.889 72.8329 284.782 71.9386 285.875 71.9386L299.822 71.9353C300.915 71.9353 301.809 72.8284 301.809 73.9211C301.809 75.0139 300.915 75.9081 299.823 75.9081Z" fill="#B95241"/>
<path d="M319.958 109.312C316.136 114.915 312.624 118.642 307.4 117.835C303.02 117.158 299.466 113.871 297.277 109.001L319.958 109.312Z" fill="white"/>
<path d="M304.209 97.0891L313.169 97.0868C313.169 97.0868 308.94 103.061 304.209 97.0891Z" fill="#E48867"/>
<path d="M351.796 78.1939L350.786 98.0424L350.637 101.014C350.548 102.971 350.295 104.912 349.937 106.78C346.88 122.552 334.801 135.025 319.419 138.987C317.702 139.435 315.94 139.764 314.147 139.99C313.61 140.08 313.057 140.124 312.519 140.153C311.384 140.274 310.249 140.333 309.1 140.334C308.278 140.334 307.457 140.305 306.62 140.275C304.483 140.186 302.393 139.948 300.332 139.589C299.914 139.515 299.512 139.455 299.092 139.366C296.269 138.709 293.595 137.755 291.056 136.56C291.056 136.56 291.041 136.56 291.026 136.545C278.838 130.784 269.949 119.45 267.571 106.085C267.556 106.039 267.556 106.01 267.556 105.966C267.302 104.532 267.122 103.083 267.032 101.619C266.987 101.157 266.972 100.708 266.957 100.246C266.942 99.7685 266.927 99.3046 266.942 98.8274C266.912 98.2743 266.942 97.7068 266.971 97.1392V96.8404L267.03 95.4812L267.223 91.941L267.52 85.8775C269.393 108.085 277.257 136.145 304.945 137.273C343.283 138.831 351.232 96.6832 351.823 72.4292C351.914 74.3103 351.9 76.237 351.796 78.1939Z" fill="#F4A891"/>
<path d="M329.184 348.043L285.846 348.055L285.899 150.087L296.788 149.757L306.997 169.155L318.236 150.413L329.763 150.599L329.184 348.043Z" fill="white"/>
</g>
<path d="M296.976 149.569L290.617 160.341L282.239 155.808L285.166 149.571L296.976 149.569Z" fill="#EAECEE"/>
<path d="M318.33 150.256L325.136 160.332L333.45 157.495L330.928 150.252L318.33 150.256Z" fill="#EAECEE"/>
<path d="M355.184 58.7045C358.971 51.4978 356.198 42.5864 348.991 38.8003C341.784 35.0142 332.873 37.7872 329.087 44.9938C325.301 52.2005 328.074 61.1119 335.28 64.898C342.487 68.6841 351.398 65.9112 355.184 58.7045Z" fill="#B95241"/>
<path d="M330.022 56.7754C330.023 63.0374 324.949 68.1152 318.687 68.1163C312.425 68.1174 307.347 63.043 307.346 56.781C307.345 50.5191 312.419 45.4412 318.681 45.4401C324.943 45.4379 330.021 50.5135 330.022 56.7754Z" fill="#B95241"/>
<path d="M311.502 57.5359C311.503 63.3808 306.767 68.1197 300.923 68.1208C295.078 68.1219 290.339 63.3853 290.338 57.5415C290.337 51.6965 295.074 46.9577 300.917 46.9566C306.762 46.9543 311.501 51.6909 311.502 57.5359Z" fill="#B95241"/>
<path d="M291.471 54.706C291.472 60.2376 286.99 64.7222 281.458 64.7245C275.927 64.7256 271.442 60.2432 271.44 54.7115C271.437 49.1799 275.921 44.6953 281.453 44.6931C286.984 44.692 291.47 49.1755 291.471 54.706Z" fill="#B95241"/>
<path d="M294.678 33.5406C294.678 33.5406 315.841 27.4883 327.182 35.4217C338.523 43.355 344.572 54.3146 344.572 54.3146L301.109 58.1057L275.03 53.9556L285.041 34.8664L294.678 33.5406Z" fill="#B95241"/>
<path d="M275.787 57.5448L270.978 89.5471C270.755 91.0312 269.082 91.7972 267.813 90.9955C267.248 90.6387 266.889 90.0332 266.847 89.3675L265.395 66.0513C265.395 66.0513 273.139 46.7748 275.787 57.5448Z" fill="#B95241"/>
<path d="M342.306 61.6849L347.132 93.6838C347.356 95.1679 349.03 95.9328 350.298 95.1311C350.862 94.7743 351.221 94.1688 351.262 93.502L352.7 63.7599C352.7 63.7599 344.949 50.9126 342.306 61.6849Z" fill="#B95241"/>
<path d="M271.26 87.9704C270.695 95.7187 274.862 131.243 306.987 131.992C339.111 132.74 345.582 98.3535 346.093 91.1639C346.603 83.9742 351.382 84.738 351.382 86.2489L351.198 104.782C351.204 126.482 333.617 144.078 311.916 144.085L307.355 144.086C285.654 144.092 266.546 127.625 266.54 105.925L266.724 88.1611C266.724 88.1611 271.308 87.3092 271.26 87.9704Z" fill="#B95241"/>
<path d="M384.388 2H226.037V216.273H384.388V2Z" stroke="#6A8593" stroke-width="3" stroke-miterlimit="10"/>
<mask id="mask1_2_302" style="mask-type:luminance" maskUnits="userSpaceOnUse" x="447" y="2" width="166" height="215">
<path d="M612.541 2H447.708V216.273H612.541V2Z" fill="white"/>
</mask>
<g mask="url(#mask1_2_302)">
<path d="M577.444 173.476H488.754V68.869C488.754 44.3775 508.608 24.5234 533.099 24.5234C557.591 24.5234 577.445 44.3775 577.445 68.869L577.444 173.476Z" fill="#591239"/>
</g>
<mask id="mask2_2_302" style="mask-type:luminance" maskUnits="userSpaceOnUse" x="447" y="2" width="166" height="215">
<path d="M612.541 2H447.708V216.273H612.541V2Z" fill="white"/>
</mask>
<g mask="url(#mask2_2_302)">
<path d="M586.072 271.502H483.775V194.15C483.775 165.902 506.675 143.001 534.924 143.001C563.172 143.001 586.072 165.9 586.072 194.15V271.502Z" fill="#FFC050"/>
</g>
<mask id="mask3_2_302" style="mask-type:luminance" maskUnits="userSpaceOnUse" x="447" y="2" width="166" height="215">
<path d="M612.541 2H447.708V216.273H612.541V2Z" fill="white"/>
</mask>
<g mask="url(#mask3_2_302)">
<path d="M549.789 120.829H518.546V163.663H549.789V120.829Z" fill="#F4A891"/>
</g>
<mask id="mask4_2_302" style="mask-type:luminance" maskUnits="userSpaceOnUse" x="447" y="2" width="166" height="215">
<path d="M612.541 2H447.708V216.273H612.541V2Z" fill="white"/>
</mask>
<g mask="url(#mask4_2_302)">
<path d="M580.756 84.4135C580.778 88.1544 578.062 91.4906 574.459 92.261C574.128 92.3324 573.782 92.3882 573.424 92.4149C573.266 92.4517 573.081 92.4428 572.895 92.4495L570.453 92.4718L570.405 87.3728L570.398 86.231L570.331 76.9774L572.788 76.9562C573.016 76.9518 573.216 76.9607 573.429 76.9841L573.443 76.9852C573.757 76.9986 574.069 77.0399 574.367 77.0967C574.367 77.0967 574.381 77.0834 574.381 77.0979C575.925 77.351 577.324 78.0267 578.392 79.0714C579.829 80.4764 580.734 82.286 580.756 84.4135Z" fill="#F4A891"/>
<path d="M486.176 84.4135C486.154 88.1544 488.87 91.4906 492.473 92.261C492.804 92.3324 493.15 92.3882 493.507 92.4149C493.666 92.4517 493.851 92.4428 494.037 92.4495L496.479 92.4718L496.527 87.3728L496.534 86.231L496.601 76.9774L494.144 76.9562C493.916 76.9518 493.716 76.9607 493.503 76.9841L493.489 76.9852C493.175 76.9986 492.863 77.0399 492.565 77.0967C492.565 77.0967 492.551 77.0834 492.551 77.0979C491.006 77.351 489.608 78.0267 488.54 79.0714C487.103 80.4764 486.197 82.286 486.176 84.4135Z" fill="#F4A891"/>
<path d="M572.965 90.7401V92.0246L572.949 92.2967C572.949 92.8408 572.949 93.385 572.905 93.9146C572.905 94.3684 572.859 94.8066 572.829 95.2749C572.829 95.411 572.799 95.547 572.783 95.6986C572.315 101.353 570.591 106.689 567.931 111.436C567.795 111.678 567.659 111.92 567.522 112.146C563.169 119.523 556.502 125.405 548.489 128.776C548.473 128.791 548.459 128.791 548.459 128.791C545.359 130.107 542.064 131.029 538.617 131.498C537.347 131.679 536.078 131.8 534.792 131.876C534.278 131.906 533.764 131.906 533.234 131.906C531.36 131.921 529.516 131.815 527.702 131.558C527.188 131.498 526.659 131.436 526.16 131.331C509.212 128.474 495.909 115.034 493.385 98.1628C493.128 96.3643 492.962 94.5044 492.962 92.6301L492.932 89.7879L492.842 77.1346L492.796 70.8158C492.781 69.848 492.796 68.8801 492.842 67.9279C492.917 66.0837 493.084 64.2695 493.371 62.5011C493.719 60.4149 494.248 58.3889 495.019 56.4242C495.927 54.0961 496.954 51.8738 498.178 49.772C499.644 47.232 501.383 44.8893 503.499 42.773C510.71 35.5164 520.809 31.0118 531.845 30.9203C540.1 30.8445 547.825 33.2942 554.295 37.4811C555.233 38.1011 556.139 38.7511 557.031 39.4313C560.735 42.2891 563.94 45.7958 566.419 49.772C566.903 50.5124 567.356 51.284 567.779 52.0701C567.779 52.0701 567.795 52.0857 567.795 52.1002C568.49 53.3847 569.139 54.7305 569.669 56.1064C569.775 56.3484 569.866 56.5747 569.955 56.8624C570.606 58.5104 571.195 60.2342 571.649 62.0027C572.314 64.5126 572.753 67.1273 572.783 69.819L572.799 70.2115L572.813 71.7535L572.829 73.4461L572.843 75.5926V75.6082L572.858 75.7297V76.0921L572.873 77.1045L572.918 86.3269V87.3549L572.965 90.7401Z" fill="#FFC7B0"/>
</g>
<mask id="mask5_2_302" style="mask-type:luminance" maskUnits="userSpaceOnUse" x="447" y="2" width="166" height="215">
<path d="M612.541 2H447.708V216.273H612.541V2Z" fill="white"/>
</mask>
<g mask="url(#mask5_2_302)">
<path d="M526.992 97.0266C526.992 97.0266 527.512 99.8856 531.563 99.6681C535.125 99.4775 535.431 96.9742 535.431 96.9742L526.992 97.0266Z" fill="#F4A891"/>
<path d="M510.549 74.4798C510.549 74.4798 516.909 71.0756 523.316 74.821" stroke="#591239" stroke-width="2.5582" stroke-miterlimit="10" stroke-linecap="round"/>
</g>
<mask id="mask6_2_302" style="mask-type:luminance" maskUnits="userSpaceOnUse" x="447" y="2" width="166" height="215">
<path d="M612.541 2H447.708V216.273H612.541V2Z" fill="white"/>
</mask>
<g mask="url(#mask6_2_302)">
<path d="M515.508 148.331C519.631 170.693 535.175 251.405 535.175 251.405L552.6 148.865C553.233 145.147 550.313 141.775 546.542 141.868C544.153 141.927 542.028 143.4 541.133 145.617C538.33 152.56 528.65 152.958 525.287 146.268L524.767 145.236C523.91 143.531 522.147 142.474 520.239 142.521C517.207 142.596 514.958 145.349 515.508 148.331Z" fill="white"/>
</g>
<mask id="mask7_2_302" style="mask-type:luminance" maskUnits="userSpaceOnUse" x="447" y="2" width="166" height="215">
<path d="M612.541 2H447.708V216.273H612.541V2Z" fill="white"/>
</mask>
<g mask="url(#mask7_2_302)">
<path d="M514.766 84.9699V80.0917C514.766 79.2153 515.483 78.4994 516.358 78.4994H516.575C517.45 78.4994 518.167 79.2164 518.167 80.0917V84.9699C518.167 85.8452 517.45 86.5622 516.575 86.5622H516.358C515.483 86.5622 514.766 85.8452 514.766 84.9699Z" fill="#07113D"/>
</g>
<mask id="mask8_2_302" style="mask-type:luminance" maskUnits="userSpaceOnUse" x="447" y="2" width="166" height="215">
<path d="M612.541 2H447.708V216.273H612.541V2Z" fill="white"/>
</mask>
<g mask="url(#mask8_2_302)">
<path d="M542.107 74.4798C542.107 74.4798 548.467 71.0756 554.874 74.821" stroke="#591239" stroke-width="2.5582" stroke-miterlimit="10" stroke-linecap="round"/>
<g opacity="0.1">
<path d="M564.391 97.583C564.328 101.545 560.752 104.699 556.406 104.629C552.059 104.559 548.588 101.29 548.652 97.3288C548.715 93.3671 552.291 90.2127 556.638 90.283C560.984 90.3532 564.456 93.6214 564.391 97.583Z" fill="#D93838"/>
</g>
<g opacity="0.1">
<path d="M515.637 97.583C515.574 101.545 511.998 104.699 507.651 104.629C503.305 104.559 499.834 101.29 499.898 97.3288C499.961 93.3671 503.537 90.2127 507.883 90.283C512.23 90.3532 515.701 93.6214 515.637 97.583Z" fill="#D93838"/>
</g>
</g>
<mask id="mask9_2_302" style="mask-type:luminance" maskUnits="userSpaceOnUse" x="447" y="2" width="166" height="215">
<path d="M612.541 2H447.708V216.273H612.541V2Z" fill="white"/>
</mask>
<g mask="url(#mask9_2_302)">
<path d="M546.325 84.9699V80.0917C546.325 79.2153 547.042 78.4994 547.917 78.4994H548.133C549.01 78.4994 549.726 79.2164 549.726 80.0917V84.9699C549.726 85.8452 549.009 86.5622 548.133 86.5622H547.917C547.041 86.5622 546.325 85.8452 546.325 84.9699Z" fill="#07113D"/>
</g>
<mask id="mask10_2_302" style="mask-type:luminance" maskUnits="userSpaceOnUse" x="447" y="2" width="166" height="215">
<path d="M612.541 2H447.708V216.273H612.541V2Z" fill="white"/>
</mask>
<g mask="url(#mask10_2_302)">
<path d="M574.688 74.1107C574.672 74.1564 574.672 74.1865 574.672 74.2166C574.582 75.6673 574.446 76.6206 574.4 76.9529C574.384 77.0287 572.986 76.9105 572.986 76.9105C570.748 62.3829 536.183 49.6505 514.64 50.7844C512.222 50.9049 510.06 51.4646 508.124 52.3265C492.825 59.1906 492.571 86.2076 492.359 85.2252C479.509 26.6442 530.136 25.4623 530.136 25.4623C544.255 25.9763 553.976 29.9971 560.644 35.5911C574.945 47.5787 575.186 66.8084 574.688 74.1107Z" fill="#591239"/>
</g>
<mask id="mask11_2_302" style="mask-type:luminance" maskUnits="userSpaceOnUse" x="447" y="2" width="166" height="215">
<path d="M612.541 2H447.708V216.273H612.541V2Z" fill="white"/>
</mask>
<g mask="url(#mask11_2_302)">
<path d="M521.077 103.658C522.54 105.638 525.734 108.399 532.09 108.155C537.848 107.933 540.622 105.765 541.932 104.008" stroke="#E48867" stroke-width="1.3558" stroke-miterlimit="10" stroke-linecap="round"/>
</g>
<mask id="mask12_2_302" style="mask-type:luminance" maskUnits="userSpaceOnUse" x="447" y="2" width="166" height="215">
<path d="M612.541 2H447.708V216.273H612.541V2Z" fill="white"/>
</mask>
<g mask="url(#mask12_2_302)">
<path d="M501.857 51.6519C501.857 51.6519 510.549 64.5014 532.848 65.6354C555.146 66.7694 566.107 65.8239 572.343 87.1776C574.051 93.027 573.665 64.3119 573.665 64.3119C573.665 64.3119 526.045 25.5749 501.857 51.6519Z" fill="#591239"/>
</g>
<mask id="mask13_2_302" style="mask-type:luminance" maskUnits="userSpaceOnUse" x="447" y="2" width="166" height="215">
<path d="M612.541 2H447.708V216.273H612.541V2Z" fill="white"/>
</mask>
<g mask="url(#mask13_2_302)">
<path d="M507.525 50.8971C507.525 50.8971 497.734 71.6855 493.92 85.2899C490.104 98.8932 485.982 45.4167 507.525 50.8971Z" fill="#591239"/>
</g>
<path d="M610.316 2H451.965V216.273H610.316V2Z" stroke="#6A8593" stroke-width="3" stroke-miterlimit="10"/>
<mask id="mask14_2_302" style="mask-type:luminance" maskUnits="userSpaceOnUse" x="223" y="376" width="165" height="207">
<path d="M387.636 376.538H223.61V582.138H387.636V376.538Z" fill="white"/>
</mask>
<g mask="url(#mask14_2_302)">
<path d="M332.525 503.458H284.028C274.189 503.458 266.14 495.408 266.14 485.569V433.428C266.14 423.589 274.189 415.539 284.028 415.539H332.525C342.364 415.539 350.413 423.589 350.413 433.428V485.569C350.413 495.407 342.364 503.458 332.525 503.458Z" fill="#B95241"/>
<path d="M325.69 486.694H294.447V535.575H325.69V486.694Z" fill="#F4A891"/>
<path d="M356.657 450.279C356.68 454.02 353.963 457.356 350.361 458.127C350.03 458.198 349.684 458.254 349.326 458.28C349.168 458.317 348.983 458.308 348.796 458.315L346.355 458.337L346.307 453.238L346.3 452.097L346.234 442.843L348.691 442.822C348.919 442.817 349.119 442.826 349.332 442.85L349.345 442.851C349.658 442.864 349.971 442.905 350.268 442.962C350.268 442.962 350.283 442.949 350.283 442.962C351.827 443.215 353.225 443.891 354.294 444.936C355.73 446.341 356.636 448.15 356.657 450.279Z" fill="#F4A891"/>
<path d="M262.078 450.279C262.055 454.02 264.772 457.356 268.374 458.127C268.705 458.198 269.051 458.254 269.409 458.28C269.567 458.317 269.752 458.308 269.939 458.315L272.381 458.337L272.429 453.238L272.436 452.097L272.502 442.843L270.046 442.822C269.817 442.817 269.618 442.826 269.405 442.85L269.391 442.851C269.078 442.864 268.766 442.905 268.468 442.962C268.468 442.962 268.453 442.949 268.453 442.962C266.908 443.215 265.511 443.891 264.443 444.936C263.004 446.341 262.099 448.15 262.078 450.279Z" fill="#F4A891"/>
<path d="M348.866 456.605V457.889L348.85 458.161C348.85 458.705 348.85 459.249 348.805 459.779C348.805 460.233 348.76 460.671 348.73 461.139C348.73 461.275 348.699 461.411 348.684 461.563C348.216 467.217 346.492 472.554 343.831 477.3C343.695 477.542 343.559 477.784 343.423 478.011C339.069 485.388 332.402 491.269 324.391 494.64C324.375 494.656 324.361 494.656 324.361 494.656C321.261 495.97 317.966 496.894 314.518 497.362C313.248 497.544 311.98 497.664 310.694 497.74C310.18 497.77 309.666 497.77 309.136 497.77C307.262 497.785 305.418 497.68 303.604 497.422C303.09 497.362 302.561 497.302 302.061 497.196C285.114 494.339 271.811 480.899 269.287 464.027C269.03 462.229 268.864 460.369 268.864 458.494L268.834 455.652L268.743 442.999L268.698 436.68C268.683 435.712 268.698 434.745 268.743 433.792C268.819 431.948 268.985 430.134 269.273 428.365C269.621 426.279 270.15 424.253 270.921 422.289C271.829 419.96 272.856 417.738 274.08 415.636C275.546 413.096 277.286 410.754 279.401 408.637C286.612 401.381 296.71 396.876 307.747 396.785C316.001 396.709 323.726 399.159 330.197 403.346C331.135 403.965 332.041 404.616 332.933 405.296C336.637 408.153 339.842 411.66 342.322 415.636C342.805 416.378 343.259 417.148 343.682 417.934C343.682 417.934 343.698 417.95 343.698 417.965C344.393 419.249 345.042 420.595 345.572 421.971C345.678 422.213 345.769 422.439 345.86 422.727C346.51 424.375 347.099 426.099 347.553 427.867C348.218 430.377 348.657 432.992 348.687 435.682L348.703 436.076L348.717 437.618L348.733 439.311L348.747 441.457V441.473L348.762 441.593V441.955L348.778 442.968L348.822 452.19V453.218L348.866 456.605Z" fill="#FFC7B0"/>
<path d="M350.589 439.975C350.574 440.021 350.574 440.051 350.574 440.081C350.453 441.109 350.362 442.047 350.301 442.817C350.286 442.893 350.286 442.938 350.286 442.938C350.164 444.51 348.94 445.764 347.383 445.962C347.353 445.962 347.323 445.962 347.308 445.976C346.008 446.128 344.739 445.508 344.057 444.388L339.461 436.8C333.188 424.811 293.473 423.708 293.473 423.708C290.707 423.828 288.121 422.816 286.217 421.078C285.309 420.261 284.569 419.279 284.025 418.19C283.117 416.436 282.709 414.395 282.997 412.249C283.662 407.336 287.986 403.722 292.944 403.496L336.543 401.456C350.847 413.444 351.088 432.674 350.589 439.975Z" fill="#DB734C"/>
<path d="M302.895 461.38C302.895 461.38 303.414 464.239 307.465 464.022C311.028 463.831 311.333 461.328 311.333 461.328L302.895 461.38Z" fill="#F4A891"/>
<path d="M286.45 438.833C286.45 438.833 292.81 435.429 299.217 439.174" stroke="#DB734C" stroke-width="2.5582" stroke-miterlimit="10" stroke-linecap="round"/>
<g opacity="0.18">
<path d="M299.171 457.689C299.146 459.311 295.726 460.57 291.535 460.503C287.343 460.435 283.967 459.065 283.993 457.444C284.019 455.823 287.438 454.564 291.629 454.631C295.822 454.7 299.198 456.069 299.171 457.689Z" fill="#D93838"/>
</g>
<path d="M361.973 637.366H259.676V560.014C259.676 531.766 282.576 508.866 310.824 508.866C339.072 508.866 361.973 531.765 361.973 560.014V637.366Z" fill="#D93838"/>
<path d="M290.416 508.528C290.416 509.991 311.077 617.269 311.077 617.269L329.723 507.552L290.416 508.528Z" fill="#FFC050"/>
<path opacity="0.56" d="M309.441 509.215L311.848 619.059" stroke="white" stroke-width="1.2235" stroke-miterlimit="10"/>
<path d="M315.482 527.493C315.513 528.423 315.006 529.196 314.35 529.217C313.694 529.238 313.137 528.502 313.107 527.571C313.076 526.641 313.583 525.869 314.239 525.847C314.895 525.826 315.452 526.563 315.482 527.493Z" fill="white"/>
<path d="M315.807 537.339C315.838 538.269 315.331 539.041 314.676 539.063C314.02 539.084 313.462 538.348 313.432 537.417C313.401 536.487 313.908 535.714 314.564 535.693C315.22 535.672 315.777 536.409 315.807 537.339Z" fill="white"/>
<path d="M316.133 547.186C316.164 548.116 315.657 548.888 315.001 548.909C314.346 548.931 313.788 548.195 313.758 547.264C313.727 546.334 314.234 545.561 314.89 545.54C315.545 545.517 316.102 546.255 316.133 547.186Z" fill="white"/>
<path d="M334.804 514.994L318.034 516.228C313.111 516.186 309.207 513.063 309.251 508.299L332.296 507.726C334.221 507.743 335.684 509.405 335.394 511.246L334.804 514.994Z" fill="white"/>
<path d="M284.598 515.804L301.368 517.039C306.291 516.996 310.245 513.099 310.201 508.336L310.194 508.204L287.105 508.537C285.181 508.553 283.718 510.216 284.008 512.057L284.598 515.804Z" fill="white"/>
<path d="M348.866 450.588V457.89L348.85 458.162C348.85 458.706 348.85 459.25 348.805 459.78C348.805 460.234 348.76 460.672 348.73 461.14C348.73 461.276 348.699 461.413 348.684 461.564C348.215 467.218 346.492 472.555 343.831 477.302C343.695 477.544 343.559 477.785 343.423 478.012C339.069 485.389 332.402 491.271 324.391 494.641C324.375 494.657 324.361 494.657 324.361 494.657C321.261 495.972 317.966 496.895 314.518 497.363C313.248 497.545 311.98 497.665 310.694 497.741C310.18 497.771 309.666 497.771 309.136 497.771C307.262 497.786 305.418 497.681 303.603 497.423C303.089 497.363 302.561 497.303 302.061 497.197C285.114 494.34 271.811 480.9 269.286 464.028C269.03 462.23 268.864 460.37 268.864 458.496L268.834 455.653L268.743 443V435.698L268.834 448.351L268.864 451.193C268.864 453.068 269.03 454.928 269.286 456.726C271.811 473.597 285.115 487.037 302.061 489.895C302.561 490.001 303.089 490.061 303.603 490.121C305.418 490.377 307.262 490.483 309.136 490.469C309.666 490.469 310.18 490.469 310.694 490.439C311.98 490.363 313.248 490.243 314.518 490.061C317.966 489.592 321.261 488.67 324.361 487.355C324.361 487.355 324.375 487.355 324.391 487.34C332.403 483.968 339.07 478.088 343.423 470.711C343.559 470.484 343.695 470.242 343.831 470C346.492 465.254 348.215 459.917 348.684 454.263C348.699 454.111 348.73 453.975 348.73 453.839C348.759 453.371 348.805 452.932 348.805 452.479C348.82 452.389 348.82 452.283 348.82 452.191C348.85 451.753 348.85 451.315 348.85 450.861L348.866 450.588Z" fill="#F4A891"/>
<path d="M350.589 439.975C350.574 440.021 350.574 440.051 350.574 440.081C350.483 441.533 350.347 442.485 350.302 442.817C350.286 442.893 350.286 442.938 350.286 442.938C348.048 428.41 312.083 415.514 290.541 416.648C288.122 416.768 285.96 417.328 284.025 418.19C268.725 425.053 267.697 452.023 267.486 451.041C254.636 392.46 306.035 391.326 306.035 391.326C320.155 391.84 329.875 395.86 336.543 401.454C350.847 413.444 351.088 432.674 350.589 439.975Z" fill="#DB734C"/>
<path d="M290.668 449.322V444.444C290.668 443.569 291.385 442.852 292.26 442.852H292.477C293.352 442.852 294.069 443.569 294.069 444.444V449.322C294.069 450.198 293.352 450.915 292.477 450.915H292.26C291.384 450.916 290.668 450.199 290.668 449.322Z" fill="#07113D"/>
<path d="M318.008 438.833C318.008 438.833 324.368 435.429 330.775 439.174" stroke="#DB734C" stroke-width="2.5582" stroke-miterlimit="10" stroke-linecap="round"/>
<g opacity="0.18">
<path d="M330.73 457.689C330.704 459.311 327.284 460.57 323.093 460.503C318.902 460.435 315.525 459.065 315.551 457.444C315.577 455.823 318.996 454.564 323.188 454.631C327.379 454.7 330.756 456.069 330.73 457.689Z" fill="#D93838"/>
</g>
<path d="M322.226 449.322V444.444C322.226 443.569 322.943 442.852 323.818 442.852H324.034C324.909 442.852 325.626 443.569 325.626 444.444V449.322C325.626 450.198 324.909 450.915 324.034 450.915H323.818C322.943 450.916 322.226 450.199 322.226 449.322Z" fill="#07113D"/>
<path d="M295.203 466.663L319.643 466.537C319.643 466.537 316.608 474.634 307.926 475.104C298.605 475.608 295.203 466.663 295.203 466.663Z" fill="white"/>
</g>
<path d="M381.139 367.872H222.788V582.145H381.139V367.872Z" stroke="#6A8593" stroke-width="3" stroke-miterlimit="10"/>
<mask id="mask15_2_302" style="mask-type:luminance" maskUnits="userSpaceOnUse" x="455" y="317" width="269" height="269">
<path d="M572.032 317.487L455.478 434.041L606.99 585.553L723.544 468.999L572.032 317.487Z" fill="white"/>
</mask>
<g mask="url(#mask15_2_302)">
<path d="M543.627 403.724C550.342 397.009 550.342 386.121 543.627 379.406C536.911 372.69 526.023 372.69 519.308 379.406C512.593 386.121 512.593 397.009 519.308 403.724C526.023 410.439 536.911 410.439 543.627 403.724Z" fill="#1F1331"/>
</g>
<mask id="mask16_2_302" style="mask-type:luminance" maskUnits="userSpaceOnUse" x="447" y="367" width="166" height="216">
<path d="M612.541 367.865H447.708V582.138H612.541V367.865Z" fill="white"/>
</mask>
<g mask="url(#mask16_2_302)">
<path d="M590.826 648.629H481.251V565.773C481.251 535.515 505.78 510.985 536.039 510.985C566.297 510.985 590.826 535.515 590.826 565.773V648.629Z" fill="#4D6199"/>
</g>
<mask id="mask17_2_302" style="mask-type:luminance" maskUnits="userSpaceOnUse" x="447" y="367" width="166" height="216">
<path d="M612.541 367.865H447.708V582.138H612.541V367.865Z" fill="white"/>
</mask>
<g mask="url(#mask17_2_302)">
<path d="M549.789 486.694H518.546V529.528H549.789V486.694Z" fill="#F4A891"/>
</g>
<mask id="mask18_2_302" style="mask-type:luminance" maskUnits="userSpaceOnUse" x="447" y="367" width="166" height="216">
<path d="M612.541 367.865H447.708V582.138H612.541V367.865Z" fill="white"/>
</mask>
<g mask="url(#mask18_2_302)">
<path d="M580.756 450.279C580.778 454.02 578.062 457.356 574.459 458.126C574.128 458.198 573.782 458.254 573.424 458.28C573.266 458.317 573.081 458.308 572.895 458.315L570.453 458.337L570.405 453.238L570.398 452.096L570.331 442.843L572.788 442.822C573.016 442.817 573.216 442.826 573.429 442.85L573.443 442.851C573.757 442.864 574.069 442.905 574.367 442.962C574.367 442.962 574.381 442.949 574.381 442.962C575.925 443.215 577.324 443.891 578.392 444.936C579.829 446.341 580.734 448.15 580.756 450.279Z" fill="#F4A891"/>
<path d="M486.176 450.279C486.154 454.02 488.87 457.356 492.473 458.126C492.804 458.198 493.15 458.254 493.507 458.28C493.666 458.317 493.851 458.308 494.037 458.315L496.479 458.337L496.527 453.238L496.534 452.096L496.601 442.843L494.144 442.822C493.916 442.817 493.716 442.826 493.503 442.85L493.489 442.851C493.175 442.864 492.863 442.905 492.565 442.962C492.565 442.962 492.551 442.949 492.551 442.962C491.006 443.215 489.608 443.891 488.54 444.936C487.103 446.341 486.197 448.15 486.176 450.279Z" fill="#F4A891"/>
<path d="M572.965 456.604V457.889L572.949 458.161C572.949 458.705 572.949 459.249 572.905 459.779C572.905 460.233 572.859 460.671 572.829 461.139C572.829 461.275 572.799 461.411 572.783 461.563C572.315 467.217 570.591 472.554 567.931 477.3C567.795 477.542 567.659 477.784 567.522 478.011C563.169 485.388 556.502 491.269 548.489 494.64C548.473 494.656 548.459 494.656 548.459 494.656C545.359 495.97 542.064 496.894 538.617 497.362C537.347 497.544 536.078 497.664 534.792 497.74C534.278 497.77 533.764 497.77 533.234 497.77C531.36 497.785 529.516 497.68 527.702 497.422C527.188 497.362 526.659 497.302 526.16 497.196C509.212 494.339 495.909 480.899 493.385 464.027C493.128 462.229 492.962 460.369 492.962 458.494L492.932 455.652L492.842 442.999L492.796 436.68C492.781 435.712 492.796 434.744 492.842 433.792C492.917 431.948 493.084 430.134 493.371 428.365C493.719 426.279 494.248 424.253 495.019 422.289C495.927 419.96 496.954 417.738 498.178 415.636C499.644 413.096 501.383 410.754 503.499 408.637C510.71 401.381 520.809 396.876 531.845 396.785C540.1 396.709 547.825 399.159 554.295 403.345C555.233 403.965 556.139 404.615 557.031 405.296C560.735 408.153 563.94 411.66 566.419 415.636C566.903 416.378 567.356 417.148 567.779 417.934C567.779 417.934 567.795 417.95 567.795 417.965C568.49 419.249 569.139 420.595 569.669 421.971C569.775 422.213 569.866 422.439 569.955 422.727C570.606 424.375 571.195 426.099 571.649 427.867C572.314 430.377 572.753 432.992 572.783 435.682L572.799 436.076L572.813 437.618L572.829 439.311L572.843 441.457V441.473L572.858 441.593V441.955L572.873 442.968L572.918 452.19V453.218L572.965 456.604Z" fill="#FFC7B0"/>
</g>
<mask id="mask19_2_302" style="mask-type:luminance" maskUnits="userSpaceOnUse" x="447" y="367" width="166" height="216">
<path d="M612.541 367.865H447.708V582.138H612.541V367.865Z" fill="white"/>
</mask>
<g mask="url(#mask19_2_302)">
<path d="M526.992 462.891C526.992 462.891 527.512 465.75 531.563 465.532C535.125 465.341 535.431 462.839 535.431 462.839L526.992 462.891Z" fill="#F4A891"/>
<path d="M510.549 440.344C510.549 440.344 516.909 436.94 523.316 440.685" stroke="#2B1B40" stroke-width="2.5582" stroke-miterlimit="10" stroke-linecap="round"/>
</g>
<mask id="mask20_2_302" style="mask-type:luminance" maskUnits="userSpaceOnUse" x="447" y="367" width="166" height="216">
<path d="M612.541 367.865H447.708V582.138H612.541V367.865Z" fill="white"/>
</mask>
<g mask="url(#mask20_2_302)">
<path d="M514.514 508.528C514.514 509.991 535.175 617.269 535.175 617.269L553.82 507.552L542.607 507.831L533.93 529.323L523.363 508.308L514.514 508.528Z" fill="white"/>
</g>
<mask id="mask21_2_302" style="mask-type:luminance" maskUnits="userSpaceOnUse" x="447" y="367" width="166" height="216">
<path d="M612.541 367.865H447.708V582.138H612.541V367.865Z" fill="white"/>
</mask>
<g mask="url(#mask21_2_302)">
<path d="M514.766 450.834V445.956C514.766 445.081 515.483 444.364 516.358 444.364H516.575C517.45 444.364 518.167 445.081 518.167 445.956V450.834C518.167 451.71 517.45 452.427 516.575 452.427H516.358C515.483 452.427 514.766 451.711 514.766 450.834Z" fill="#07113D"/>
</g>
<mask id="mask22_2_302" style="mask-type:luminance" maskUnits="userSpaceOnUse" x="447" y="367" width="166" height="216">
<path d="M612.541 367.865H447.708V582.138H612.541V367.865Z" fill="white"/>
</mask>
<g mask="url(#mask22_2_302)">
<path d="M542.107 440.344C542.107 440.344 548.467 436.94 554.874 440.685" stroke="#2B1B40" stroke-width="2.5582" stroke-miterlimit="10" stroke-linecap="round"/>
<g opacity="0.1">
<path d="M564.391 463.448C564.328 467.41 560.752 470.565 556.406 470.494C552.059 470.424 548.588 467.156 548.652 463.194C548.715 459.233 552.291 456.078 556.638 456.148C560.984 456.219 564.456 459.487 564.391 463.448Z" fill="#D93838"/>
</g>
<g opacity="0.1">
<path d="M515.637 463.448C515.574 467.41 511.998 470.565 507.651 470.494C503.305 470.424 499.834 467.156 499.898 463.194C499.961 459.233 503.537 456.078 507.883 456.148C512.23 456.219 515.701 459.487 515.637 463.448Z" fill="#D93838"/>
</g>
</g>
<mask id="mask23_2_302" style="mask-type:luminance" maskUnits="userSpaceOnUse" x="447" y="367" width="166" height="216">
<path d="M612.541 367.865H447.708V582.138H612.541V367.865Z" fill="white"/>
</mask>
<g mask="url(#mask23_2_302)">
<path d="M546.325 450.834V445.956C546.325 445.081 547.042 444.364 547.917 444.364H548.133C549.01 444.364 549.726 445.081 549.726 445.956V450.834C549.726 451.71 549.009 452.427 548.133 452.427H547.917C547.041 452.427 546.325 451.711 546.325 450.834Z" fill="#07113D"/>
</g>
<mask id="mask24_2_302" style="mask-type:luminance" maskUnits="userSpaceOnUse" x="447" y="367" width="166" height="216">
<path d="M612.541 367.865H447.708V582.138H612.541V367.865Z" fill="white"/>
</mask>
<g mask="url(#mask24_2_302)">
<path d="M572.861 442.397C572.846 442.443 572.987 445.799 572.987 445.799C570.749 431.271 536.184 418.539 514.642 419.673C512.223 419.793 510.061 420.353 508.125 421.215C492.826 428.078 492.491 455.11 492.36 454.114C484.801 396.666 530.137 394.351 530.137 394.351C544.257 394.865 553.977 398.885 560.645 404.479C574.945 416.467 573.359 435.095 572.861 442.397Z" fill="#F4A891"/>
<path d="M519.193 433.956C525.107 433.956 529.902 429.387 529.902 423.751C529.902 418.116 525.107 413.547 519.193 413.547C513.279 413.547 508.484 418.116 508.484 423.751C508.484 429.387 513.279 433.956 519.193 433.956Z" fill="#F4A891"/>
<path d="M539.099 433.956C545.013 433.956 549.807 429.387 549.807 423.751C549.807 418.116 545.013 413.547 539.099 413.547C533.184 413.547 528.39 418.116 528.39 423.751C528.39 429.387 533.184 433.956 539.099 433.956Z" fill="#F4A891"/>
<path d="M554.72 435.468C560.634 435.468 565.429 430.899 565.429 425.263C565.429 419.628 560.634 415.059 554.72 415.059C548.806 415.059 544.011 419.628 544.011 425.263C544.011 430.899 548.806 435.468 554.72 435.468Z" fill="#F4A891"/>
</g>
<mask id="mask25_2_302" style="mask-type:luminance" maskUnits="userSpaceOnUse" x="447" y="367" width="166" height="216">
<path d="M612.541 367.865H447.708V582.138H612.541V367.865Z" fill="white"/>
</mask>
<g mask="url(#mask25_2_302)">
<path d="M574.688 439.975C574.672 440.021 574.672 440.051 574.672 440.081C574.582 441.533 574.446 442.485 574.4 442.817C574.384 442.893 572.986 442.775 572.986 442.775C570.748 428.246 536.183 415.515 514.64 416.649C512.222 416.769 510.06 417.329 508.124 418.191C492.825 425.054 492.571 452.072 492.359 451.09C479.509 392.509 530.136 391.327 530.136 391.327C544.255 391.841 553.976 395.861 560.644 401.456C574.945 413.444 575.186 432.674 574.688 439.975Z" fill="#2B1B40"/>
<path d="M519.193 430.932C525.107 430.932 529.902 426.363 529.902 420.728C529.902 415.092 525.107 410.523 519.193 410.523C513.279 410.523 508.484 415.092 508.484 420.728C508.484 426.363 513.279 430.932 519.193 430.932Z" fill="#2B1B40"/>
<path d="M539.099 430.932C545.013 430.932 549.807 426.363 549.807 420.728C549.807 415.092 545.013 410.523 539.099 410.523C533.184 410.523 528.39 415.092 528.39 420.728C528.39 426.363 533.184 430.932 539.099 430.932Z" fill="#2B1B40"/>
<path d="M554.72 432.444C560.634 432.444 565.429 427.875 565.429 422.24C565.429 416.604 560.634 412.035 554.72 412.035C548.806 412.035 544.011 416.604 544.011 422.24C544.011 427.875 548.806 432.444 554.72 432.444Z" fill="#2B1B40"/>
<path d="M568.612 428.917C568.612 427.868 568.612 447.21 568.612 454.285C568.612 455.691 569.752 456.825 571.159 456.825C572.565 456.825 573.705 455.685 573.705 454.279V430.714C573.705 430.714 568.612 429.43 568.612 428.917Z" fill="#2B1B40"/>
<path d="M491.603 428.916C491.603 427.886 491.603 446.88 491.603 453.826C491.603 455.207 492.722 456.32 494.104 456.32C495.486 456.32 496.605 455.201 496.605 453.819V430.679C496.605 430.679 491.603 429.42 491.603 428.916Z" fill="#2B1B40"/>
</g>
<mask id="mask26_2_302" style="mask-type:luminance" maskUnits="userSpaceOnUse" x="447" y="367" width="166" height="216">
<path d="M612.541 367.865H447.708V582.138H612.541V367.865Z" fill="white"/>
</mask>
<g mask="url(#mask26_2_302)">
<path d="M535.697 473.01H527.382C526.55 473.01 525.87 472.33 525.87 471.498C525.87 470.666 526.55 469.986 527.382 469.986H535.697C536.528 469.986 537.209 470.666 537.209 471.498C537.209 472.33 536.528 473.01 535.697 473.01Z" fill="#D93838"/>
</g>
<mask id="mask27_2_302" style="mask-type:luminance" maskUnits="userSpaceOnUse" x="447" y="367" width="166" height="216">
<path d="M612.541 367.865H447.708V582.138H612.541V367.865Z" fill="white"/>
</mask>
<g mask="url(#mask27_2_302)">
<path d="M534.996 475.718H528.369C527.613 475.718 526.994 475.099 526.994 474.343V474.069C526.994 473.313 527.613 472.694 528.369 472.694H534.996C535.752 472.694 536.371 473.313 536.371 474.069V474.343C536.371 475.099 535.752 475.718 534.996 475.718Z" fill="#D93838"/>
</g>
<path d="M610.316 367.872H451.965V582.145H610.316V367.872Z" stroke="#6A8593" stroke-width="3" stroke-miterlimit="10"/>
<mask id="mask28_2_302" style="mask-type:luminance" maskUnits="userSpaceOnUse" x="5" y="5" width="158" height="212">
<path d="M162.716 5.63387H5.49194V216.274H162.716V5.63387Z" fill="white"/>
</mask>
<g mask="url(#mask28_2_302)">
<path d="M-21.4435 253.03C-20.2382 250.298 28.3389 171.389 46.2595 162.427C64.1813 153.467 112.967 157.449 121.928 164.419C130.889 171.389 180.651 242.457 186.645 257.013C193.614 273.939 186.645 295.843 178.68 295.843C170.715 295.843 -8.50032 295.843 -8.50032 295.843C-8.50032 295.843 -36.3781 286.883 -21.4435 253.03Z" fill="#D93838"/>
<path d="M98.4011 130.566H75.6313C56.2466 130.566 40.5315 114.851 40.5315 95.4667V68.6538C40.5315 44.285 60.2863 24.5301 84.6551 24.5301H89.3762C113.745 24.5301 133.5 44.285 133.5 68.6538V95.4667C133.5 114.853 117.786 130.566 98.4011 130.566Z" fill="#07113D"/>
<path d="M52.8693 79.7081L52.2416 90.5561L51.809 97.8807L48.5375 97.7358C48.2989 97.7224 48.0603 97.709 47.8361 97.67C42.3848 97.0924 38.2782 92.7137 38.5469 87.9001C38.6818 85.4014 39.9953 83.3241 41.9968 81.7463C43.7886 80.3392 46.1491 79.5899 48.717 79.5642H48.7315C49.0303 79.5375 49.2834 79.5375 49.5823 79.5642L52.8693 79.7081Z" fill="#F4A891"/>
<path d="M124.159 79.9567L124.787 90.8048L125.22 98.1294L128.491 97.9844C128.73 97.971 128.968 97.9576 129.192 97.9186C134.644 97.341 138.75 92.9624 138.482 88.1488C138.347 85.65 137.033 83.5728 135.032 81.995C133.24 80.5878 130.879 79.8385 128.312 79.8129H128.297C127.998 79.7861 127.745 79.7861 127.445 79.8129L124.159 79.9567Z" fill="#F4A891"/>
<path d="M90.2012 166.934H82.7662C75.9434 166.934 70.3616 161.352 70.3616 154.529V119.575C70.3616 112.752 75.9434 107.17 82.7662 107.17H90.2012C97.024 107.17 102.606 112.752 102.606 119.575V154.529C102.606 161.352 97.024 166.934 90.2012 166.934Z" fill="#F4A891"/>
<path d="M128.375 78.6577L127.408 97.5395L127.266 100.366C127.18 102.228 126.939 104.075 126.598 105.851C123.685 120.855 112.191 132.717 97.557 136.483C95.9235 136.909 94.2477 137.222 92.5417 137.435C92.031 137.521 91.5047 137.563 90.9929 137.591C89.9125 137.705 88.8331 137.762 87.7393 137.762C86.9577 137.762 86.176 137.734 85.381 137.705C83.5914 137.606 81.8576 137.393 80.1382 137.065C79.4279 136.937 78.731 136.78 78.0353 136.61C75.3782 135.984 72.8493 135.076 70.4487 133.939C70.4487 133.939 70.4342 133.939 70.4197 133.925C58.9115 128.484 50.5288 117.77 48.2408 105.169C48.2274 105.125 48.2274 105.097 48.2274 105.055C47.9999 103.691 47.8293 102.313 47.7301 100.92C47.6877 100.48 47.6732 100.054 47.6598 99.6135C47.6453 99.1585 47.6308 98.7181 47.6453 98.2643C47.6175 97.738 47.6453 97.1983 47.6732 96.6587V96.3743L47.7301 95.0809L47.9152 91.7135L48.1995 85.9455V85.8898L48.4838 80.0649L48.4983 79.9512V79.9367L48.6121 77.7914L48.6979 76.1144L48.7827 74.5801L48.8105 74.1821C48.9666 71.5116 49.5063 68.9247 50.2879 66.4527C50.8131 64.7189 51.4665 63.0285 52.1913 61.4084C52.2905 61.1385 52.3897 60.9122 52.5035 60.6702C53.1 59.3344 53.7969 58.0131 54.5496 56.7632C54.5496 56.7487 54.5629 56.7342 54.5629 56.7342C57.4185 51.9608 61.2687 47.8263 65.8157 44.6295C66.7256 43.9895 67.6622 43.3785 68.6144 42.8109C75.2499 38.9173 83.035 36.8299 91.2471 37.2559C102.23 37.8245 112.076 42.7541 118.939 50.2838C120.956 52.5005 122.605 54.9156 123.954 57.5303C125.077 59.6477 126 61.8778 126.795 64.2361C127.307 65.7135 127.676 67.2332 127.946 68.7686C127.946 68.7686 127.946 68.7831 127.946 68.7976C128.032 69.3239 128.102 69.8346 128.159 70.3609C128.273 71.2841 128.358 72.2218 128.401 73.1741C128.489 74.9637 128.474 76.7968 128.375 78.6577Z" fill="#FFC7B0"/>
<path d="M103.795 90.9899C102.768 90.9899 101.928 90.1503 101.928 89.1233V83.1491C101.928 82.1221 102.768 81.2825 103.795 81.2825C104.821 81.2825 105.661 82.1221 105.661 83.1491V89.1233C105.662 90.1503 104.821 90.9899 103.795 90.9899Z" fill="#07113D"/>
<path d="M71.1881 90.8661C70.1611 90.8661 69.3215 90.0265 69.3215 88.9996V83.0253C69.3215 81.9984 70.1623 81.1588 71.1881 81.1588C72.215 81.1588 73.0546 81.9984 73.0546 83.0253V88.9996C73.0546 90.0254 72.215 90.8661 71.1881 90.8661Z" fill="#07113D"/>
<path d="M110.198 75.907H97.0063C95.7062 75.907 94.6414 74.8433 94.6414 73.542C94.6414 72.2419 95.7051 71.1771 97.0063 71.1771H110.198C111.498 71.1771 112.563 72.2408 112.563 73.542C112.563 74.8433 111.498 75.907 110.198 75.907Z" fill="#07113D"/>
<path d="M78.089 75.907H64.8972C63.5971 75.907 62.5322 74.8433 62.5322 73.542C62.5322 72.2419 63.596 71.1771 64.8972 71.1771H78.089C79.3891 71.1771 80.454 72.2408 80.454 73.542C80.454 74.8433 79.3891 75.907 78.089 75.907Z" fill="#07113D"/>
<path d="M98.5918 109.315C94.7695 114.917 91.2549 118.644 86.0322 117.835C81.6524 117.157 78.0988 113.869 75.9111 108.997L98.5918 109.315Z" fill="white"/>
<path d="M82.8467 97.0891H91.807C91.807 97.0891 87.5766 103.062 82.8467 97.0891Z" fill="#E48867"/>
<path d="M76.0015 54.774L98.6197 61.7752C102.184 62.878 105.46 59.4047 104.15 55.9113L104.004 55.521L106.729 56.9728C114.714 61.2277 121.18 67.8588 125.23 75.9494L130.391 86.2611C130.391 86.2611 142.587 33.99 85.3354 32.7456C39.6429 31.7521 45.3852 77.5494 45.3852 77.5494C45.3852 77.5494 55.4673 51.7868 76.0015 54.774Z" fill="#07113D"/>
<path d="M138.36 202.294L134.968 346.034L26.1211 347.042L23.2744 202.295C23.2744 178.041 40.8382 157.864 63.9415 153.802C66.7201 153.324 69.5723 153.07 72.4993 153.07H89.1365C116.316 153.069 138.36 175.113 138.36 202.294Z" fill="#D93838"/>
<path d="M107.756 348.049H64.4187L64.5235 150.082H108.58L107.756 348.049Z" fill="white"/>
<path d="M75.6313 151.849C76.3784 152.97 87.5788 169.024 87.5788 169.024L101.02 152.596L94.6737 146.995L82.3527 148.488L75.6313 151.849Z" fill="#07113D"/>
<path d="M109.079 161.283L88.4185 149.148L64.2749 161.283V146.349H109.079V161.283Z" fill="white"/>
<path d="M95.4097 215.694H79.7537L83.0987 158.943H93.1796L95.4097 215.694Z" fill="#07113D"/>
<path d="M52.6639 51.4735L51.2936 85.9065C51.2289 87.54 49.7359 88.7409 48.1258 88.4532C46.858 88.2269 45.927 87.1353 45.9035 85.8474L45.3828 56.7008L52.6639 51.4735Z" fill="#07113D"/>
<path d="M124.356 53.5319L125.726 87.9648C125.791 89.5984 127.284 90.7992 128.894 90.5116C130.162 90.2852 131.093 89.1936 131.115 87.9058L131.636 58.7591L124.356 53.5319Z" fill="#07113D"/>
</g>
<path d="M161.077 2H2V216.273H161.077V2Z" stroke="#6A8593" stroke-width="3" stroke-miterlimit="10"/>
<mask id="mask29_2_302" style="mask-type:luminance" maskUnits="userSpaceOnUse" x="5" y="371" width="158" height="212">
<path d="M162.716 371.498H5.49194V582.138H162.716V371.498Z" fill="white"/>
</mask>
<g mask="url(#mask29_2_302)">
<path d="M-19.9315 618.518C-18.7262 615.785 29.8509 536.875 47.7715 527.915C65.6932 518.954 113.693 523.769 122.654 530.738C131.614 537.708 182.163 607.944 188.157 622.501C195.126 639.427 188.157 661.33 180.191 661.33C172.227 661.33 -6.98836 661.33 -6.98836 661.33C-6.98836 661.33 -34.8661 652.37 -19.9315 618.518Z" fill="#4D6199"/>
<path d="M140.627 568.536L137.235 712.276L28.3879 713.284L25.5413 568.536C25.5413 544.282 43.1051 524.106 66.2083 520.044C68.987 519.565 71.8381 519.311 74.7661 519.311H91.4034C118.584 519.312 140.627 541.355 140.627 568.536Z" fill="#4D6199"/>
<path d="M98.4011 496.432H75.6313C56.2466 496.432 40.5315 480.718 40.5315 461.333V434.52C40.5315 410.152 60.2863 390.397 84.6551 390.397H89.3762C113.745 390.397 133.5 410.152 133.5 434.52V461.333C133.5 480.717 117.786 496.432 98.4011 496.432Z" fill="#EAA64F"/>
<path d="M52.8693 445.574L52.2416 456.422L51.809 463.746L48.5375 463.601C48.2989 463.588 48.0603 463.575 47.8361 463.536C42.3848 462.958 38.2782 458.579 38.5469 453.766C38.6818 451.267 39.9953 449.19 41.9968 447.612C43.7886 446.205 46.1491 445.455 48.717 445.43H48.7315C49.0303 445.403 49.2834 445.403 49.5823 445.43L52.8693 445.574Z" fill="#F4A891"/>
<path d="M124.159 445.822L124.787 456.67L125.22 463.995L128.491 463.851C128.73 463.838 128.968 463.824 129.192 463.785C134.644 463.208 138.75 458.829 138.482 454.015C138.347 451.517 137.033 449.439 135.032 447.862C133.24 446.454 130.879 445.705 128.312 445.679H128.297C127.998 445.653 127.745 445.653 127.445 445.679L124.159 445.822Z" fill="#F4A891"/>
<path d="M89.7564 537.16H83.2101C76.1431 537.16 70.3606 531.378 70.3606 524.311V485.884C70.3606 478.817 76.1431 473.034 83.2101 473.034H89.7564C96.8234 473.034 102.606 478.817 102.606 485.884V524.312C102.606 531.379 96.8234 537.16 89.7564 537.16Z" fill="#F4A891"/>
<path d="M128.32 444.534L127.354 463.391L127.212 466.214C127.128 468.074 126.886 469.918 126.546 471.691C123.636 486.673 112.158 498.52 97.5449 502.28C95.9136 502.705 94.24 503.018 92.5373 503.23C92.0267 503.316 91.5015 503.357 90.9908 503.386C89.9126 503.5 88.8344 503.557 87.7416 503.557C86.9611 503.557 86.1806 503.528 85.3867 503.5C83.5993 503.401 81.8677 503.188 80.1517 502.861C79.4425 502.734 78.7467 502.578 78.0521 502.407C75.3983 501.783 72.8739 500.875 70.4755 499.74C70.4755 499.74 70.461 499.74 70.4476 499.726C58.9551 494.292 50.5846 483.594 48.3 471.009C48.2866 470.967 48.2866 470.938 48.2866 470.896C48.0591 469.534 47.8885 468.157 47.7904 466.767C47.748 466.326 47.7335 465.902 47.7201 465.461C47.7056 465.007 47.6923 464.567 47.7056 464.114C47.6778 463.589 47.7056 463.05 47.7335 462.511V462.228L47.7904 460.936L47.9744 457.573L48.2587 451.813V451.757L48.5419 445.94L48.5564 445.827V445.812L48.6701 443.67L48.7549 441.995L48.8396 440.463L48.8675 440.066C49.0236 437.399 49.5622 434.817 50.3427 432.348C50.8667 430.617 51.5201 428.929 52.2438 427.311C52.343 427.041 52.4423 426.814 52.5549 426.574C53.1503 425.239 53.8461 423.92 54.5987 422.672C54.5987 422.658 54.6121 422.643 54.6121 422.643C57.4632 417.876 61.3089 413.748 65.8493 410.555C66.7569 409.916 67.6935 409.306 68.6446 408.739C75.2701 404.851 83.0452 402.766 91.2461 403.192C102.214 403.759 112.046 408.682 118.899 416.202C120.914 418.416 122.559 420.827 123.906 423.438C125.027 425.552 125.95 427.78 126.744 430.135C127.255 431.61 127.624 433.129 127.894 434.661C127.894 434.661 127.894 434.675 127.894 434.69C127.978 435.215 128.05 435.726 128.107 436.251C128.22 437.173 128.305 438.11 128.347 439.06C128.433 440.846 128.419 442.676 128.32 444.534Z" fill="#FFC7B0"/>
<path d="M103.795 456.855C102.768 456.855 101.928 456.016 101.928 454.989V449.015C101.928 447.988 102.768 447.148 103.795 447.148C104.821 447.148 105.661 447.988 105.661 449.015V454.989C105.662 456.015 104.821 456.855 103.795 456.855Z" fill="#07113D"/>
<path d="M71.1881 456.73C70.1611 456.73 69.3215 455.891 69.3215 454.864V448.89C69.3215 447.863 70.1623 447.023 71.1881 447.023C72.215 447.023 73.0546 447.863 73.0546 448.89V454.864C73.0546 455.891 72.215 456.73 71.1881 456.73Z" fill="#07113D"/>
<path d="M110.576 441.771H96.6283C95.5356 441.771 94.6414 440.877 94.6414 439.784C94.6414 438.692 95.5356 437.797 96.6283 437.797H110.576C111.669 437.797 112.563 438.692 112.563 439.784C112.563 440.878 111.669 441.771 110.576 441.771Z" fill="#EAA64F"/>
<path d="M78.467 441.771H64.5192C63.4265 441.771 62.5322 440.877 62.5322 439.784C62.5322 438.692 63.4265 437.797 64.5192 437.797H78.467C79.5597 437.797 80.454 438.692 80.454 439.784C80.454 440.878 79.5597 441.771 78.467 441.771Z" fill="#EAA64F"/>
<path d="M82.8467 462.953H91.807C91.807 462.953 87.5766 468.928 82.8467 462.953Z" fill="#E48867"/>
</g>
<path d="M54.4358 423.403L49.619 455.403C49.396 456.887 47.7223 457.652 46.4534 456.851C45.8892 456.494 45.5302 455.889 45.4889 455.222L44.0427 431.906C44.0427 431.906 51.7899 412.631 54.4358 423.403Z" fill="#EAA64F"/>
<path d="M120.954 427.559L125.771 459.559C125.994 461.043 127.667 461.808 128.936 461.008C129.5 460.651 129.859 460.045 129.901 459.379L131.347 429.638C131.347 429.638 123.6 416.788 120.954 427.559Z" fill="#EAA64F"/>
<path d="M48.7169 445.429L57.5924 434.558C59.6798 432.002 61.5017 429.237 63.027 426.31L68.4817 415.844C68.4817 415.844 116.354 418.868 124.417 445.575L130.968 427.433C130.968 427.433 116.354 387.12 79.0633 396.694C41.7747 406.269 48.7169 445.429 48.7169 445.429Z" fill="#EAA64F"/>
<path d="M105.773 394.678C105.773 394.678 140.544 412.82 140.544 414.332C140.544 415.844 129.457 424.914 117.867 419.371C106.277 413.828 105.773 394.678 105.773 394.678Z" fill="#EAA64F"/>
<path d="M104.765 403.749C104.765 403.749 139.536 421.89 139.536 423.402C139.536 424.914 128.449 433.985 116.86 428.441C105.269 422.898 104.765 403.749 104.765 403.749Z" fill="#EAA64F"/>
<path d="M70.121 517.887C70.121 517.887 71.2549 533.194 85.2384 533.383C99.2219 533.571 102.812 517.509 102.812 517.509L105.269 521.478C105.269 521.478 104.895 538.513 85.6153 538.107C67.6635 537.729 67.0959 522.044 66.9075 519.966L70.121 517.887Z" fill="#FBFCFC"/>
<path d="M96.9985 475.223C94.7629 477.541 91.2974 478.894 87.4796 478.697C84.2783 478.534 81.4339 477.312 79.4258 475.428" stroke="#E48867" stroke-width="1.3558" stroke-miterlimit="10"/>
<path opacity="0.45" d="M102.413 445.364L109.762 459.769L115.347 459.18L107.704 445.364H102.413Z" fill="white"/>
<path d="M111.609 460.577H95.0127C93.164 460.577 91.6509 459.064 91.6509 457.215V448.065C91.6509 446.216 93.164 444.703 95.0127 444.703H111.609C113.457 444.703 114.97 446.216 114.97 448.065V457.215C114.969 459.064 113.457 460.577 111.609 460.577Z" stroke="#07113D" stroke-width="1.427" stroke-miterlimit="10"/>
<path opacity="0.45" d="M71.1702 445.364L78.5193 459.769L84.1044 459.18L76.461 445.364H71.1702Z" fill="white"/>
<path d="M80.3645 460.577H63.7685C61.9198 460.577 60.4067 459.064 60.4067 457.215V448.065C60.4067 446.216 61.9198 444.703 63.7685 444.703H80.3645C82.2132 444.703 83.7263 446.216 83.7263 448.065V457.215C83.7263 459.064 82.2132 460.577 80.3645 460.577Z" stroke="#07113D" stroke-width="1.427" stroke-miterlimit="10"/>
<path d="M83.0115 452.713L92.4178 453.007" stroke="#07113D" stroke-width="1.4837" stroke-miterlimit="10"/>
<path d="M161.077 368.529H2V582.802H161.077V368.529Z" stroke="#6A8593" stroke-width="3" stroke-miterlimit="10"/>
</svg>
