<svg width="739" height="590" viewBox="0 0 739 590" fill="none" xmlns="http://www.w3.org/2000/svg">
<path d="M360.776 513.394C542.057 513.394 689.014 484.588 689.014 449.053C689.014 413.519 542.057 384.712 360.776 384.712C179.496 384.712 32.5383 413.519 32.5383 449.053C32.5383 484.588 179.496 513.394 360.776 513.394Z" fill="#C7C7C7"/>
<path d="M638.369 345.47C609.957 368.009 570.576 333.162 579.994 304.65C584.863 289.91 596.412 278.19 598.73 262.605C601.124 246.511 608.735 239.71 621.171 229.989C626.047 226.176 628 219.164 630.268 213.444C634.551 202.648 640.952 193.56 651.247 187.768C663.938 180.628 688.913 190.258 692.024 206.257C695.801 225.672 670.607 234.861 662.361 247.33C655.283 258.033 661.96 272.128 651.588 283.724C636.001 301.145 660.713 328.863 638.369 345.47Z" fill="#88C8FC"/>
<path d="M608.614 378.369C608.024 378.369 607.521 377.918 607.468 377.319C602.436 321.905 619.319 265.736 653.79 223.22C654.191 222.723 654.916 222.648 655.412 223.051C655.905 223.452 655.982 224.177 655.581 224.672C621.484 266.727 604.782 322.29 609.763 377.113C609.82 377.746 609.353 378.306 608.718 378.364C608.685 378.367 608.648 378.369 608.614 378.369Z" fill="#172554"/>
<path d="M624.703 309.026C617.036 319.869 611 332.024 597.996 334.41C578.362 338.016 554.851 356.741 556.049 381.202C555.707 431.007 631.677 429.991 637.544 393C640.313 375.514 644.751 367.888 662.622 365.323C673.325 363.793 676.562 354.778 679.575 345.538C682.367 341.296 686.369 338.025 691.164 336.28C697.965 333.801 705.641 334.877 712.919 334.659C719.34 334.468 725.756 333.144 730.52 328.906C735.052 324.861 738.019 319.132 738.81 312.736C739.582 306.368 737.988 299.692 734.278 294.024C730.778 288.69 725.467 284.344 719.733 282.088C713.228 279.515 706.583 279.552 700.556 282.047C693.578 284.92 688.16 290.133 682.749 295.214C682.714 295.253 682.671 295.283 682.635 295.323C675.676 301.888 665.743 304.234 655.901 301.774C644.161 298.844 632.978 297.338 624.703 309.026Z" fill="#508DD2"/>
<path d="M555.125 426.375C554.925 426.375 554.722 426.322 554.538 426.213C553.991 425.889 553.809 425.181 554.135 424.636C586.418 370.284 637.095 329.779 696.835 310.58C697.437 310.385 698.088 310.719 698.283 311.324C698.479 311.931 698.145 312.578 697.54 312.773C638.337 331.799 588.111 371.945 556.116 425.811C555.902 426.173 555.518 426.375 555.125 426.375Z" fill="#172554"/>
<path d="M95.8497 366.073C124.262 388.612 163.643 353.765 154.225 325.253C149.356 310.513 137.805 298.793 135.488 283.208C133.095 267.114 125.484 260.313 113.048 250.591C108.172 246.777 106.22 239.765 103.951 234.045C99.6677 223.249 93.2671 214.161 82.9718 208.369C70.2812 201.23 45.3057 210.858 42.1946 226.858C38.4181 246.273 63.6118 255.462 71.8575 267.932C78.9357 278.634 72.2585 292.729 82.6307 304.326C98.2173 321.75 73.5061 349.468 95.8497 366.073Z" fill="#508DD2"/>
<path d="M125.605 398.972C125.57 398.972 125.534 398.97 125.499 398.967C124.864 398.909 124.399 398.35 124.456 397.715C129.435 342.891 112.735 287.329 78.6376 245.273C78.2366 244.779 78.3134 244.053 78.8066 243.652C79.2998 243.251 80.0265 243.327 80.4275 243.821C114.899 286.341 131.784 342.508 126.751 397.922C126.697 398.522 126.193 398.972 125.605 398.972Z" fill="#172554"/>
<path d="M114.297 323.034C121.964 333.878 128 346.033 141.004 348.419C160.638 352.024 184.149 370.751 182.951 395.212C183.293 445.017 107.322 444.002 101.456 407.01C98.6875 389.526 94.2488 381.898 76.3776 379.334C65.6751 377.803 62.438 368.788 59.4251 359.548C56.6335 355.306 52.6312 352.035 47.8362 350.29C41.033 347.812 33.3573 348.887 26.0809 348.669C19.6604 348.478 13.2444 347.154 8.48011 342.917C3.94777 338.871 0.981007 333.142 0.189769 326.746C-0.581497 320.378 1.01174 313.702 4.72211 308.035C8.22199 302.7 13.5333 298.354 19.2671 296.098C25.7721 293.525 32.417 293.562 38.4442 296.057C45.4225 298.93 50.8398 304.143 56.2509 309.224C56.2863 309.264 56.3293 309.293 56.3646 309.333C63.3245 315.898 73.2572 318.244 83.0993 315.784C94.8388 312.853 106.022 311.347 114.297 323.034Z" fill="#88C8FC"/>
<path d="M183.874 440.383C183.481 440.383 183.098 440.182 182.883 439.819C150.889 385.954 100.663 345.81 41.4602 326.781C40.8533 326.586 40.5214 325.938 40.7165 325.333C40.9101 324.726 41.56 324.395 42.1654 324.589C101.905 343.788 152.584 384.293 184.865 438.644C185.189 439.19 185.009 439.898 184.462 440.222C184.276 440.331 184.074 440.383 183.874 440.383Z" fill="#172554"/>
<path d="M657.005 490.511H77.5146C71.0494 490.511 65.8088 485.271 65.8088 478.804V473.877H668.713V478.804C668.713 485.269 663.47 490.511 657.005 490.511Z" fill="#172554"/>
<path d="M605.813 382.087H128.707L65.8088 473.878H668.713L605.813 382.087Z" fill="white"/>
<path d="M597.601 79.4587H136.92C132.517 79.4587 128.948 83.0278 128.948 87.431V382.087H605.573V87.431C605.573 83.0278 602.004 79.4587 597.601 79.4587Z" fill="#172554"/>
<path d="M590.987 104.542H143.535V358.611H590.987V104.542Z" fill="#344580"/>
<path d="M657.007 491.663H77.5146C70.4242 491.663 64.655 485.894 64.655 478.804V473.878C64.655 473.242 65.1713 472.726 65.8073 472.726H668.711C669.347 472.726 669.863 473.242 669.863 473.878V478.804C669.865 485.894 664.097 491.663 657.007 491.663ZM66.9611 475.031V478.804C66.9611 484.624 71.6963 489.359 77.5161 489.359H657.007C662.827 489.359 667.56 484.624 667.56 478.804V475.031H66.9611Z" fill="#172554"/>
<path d="M668.713 475.03H65.8088C65.3817 475.03 64.9884 474.794 64.7887 474.416C64.5889 474.038 64.6166 473.58 64.8578 473.228L127.756 381.437C127.971 381.123 128.326 380.936 128.707 380.936H605.813C606.193 380.936 606.549 381.123 606.764 381.437L669.662 473.228C669.903 473.582 669.93 474.038 669.73 474.416C669.533 474.792 669.14 475.03 668.713 475.03ZM67.9951 472.726H666.526L605.206 383.239H129.314L67.9951 472.726Z" fill="#172554"/>
<path d="M605.573 383.239H128.948C128.312 383.239 127.796 382.723 127.796 382.087V87.4311C127.796 82.3995 131.889 78.3065 136.92 78.3065H597.601C602.633 78.3065 606.727 82.3995 606.727 87.4311V382.087C606.726 382.723 606.21 383.239 605.573 383.239ZM130.1 380.935H604.421V87.4311C604.421 83.67 601.362 80.6111 597.6 80.6111H136.92C133.159 80.6111 130.1 83.67 130.1 87.4311V380.935Z" fill="#172554"/>
<path d="M590.987 359.762H143.535C142.899 359.762 142.382 359.245 142.382 358.609V104.542C142.382 103.906 142.899 103.39 143.535 103.39H590.987C591.623 103.39 592.139 103.906 592.139 104.542V358.609C592.139 359.245 591.623 359.762 590.987 359.762ZM144.687 357.457H589.835V105.694H144.687V357.457Z" fill="#172554"/>
<path d="M489.845 369.129H244.676V380.266H489.845V369.129Z" fill="white"/>
<path d="M346.474 91.7221C346.474 95.8704 343.111 99.232 338.964 99.232C334.816 99.232 331.455 95.8704 331.455 91.7221C331.455 87.5739 334.816 84.2123 338.964 84.2123C343.111 84.2123 346.474 87.5739 346.474 91.7221Z" fill="#172554"/>
<path d="M453.712 467.608H280.808C280.38 467.608 279.987 467.372 279.787 466.994C279.588 466.616 279.615 466.158 279.857 465.806L297.895 439.482C298.11 439.168 298.465 438.981 298.846 438.981H435.675C436.055 438.981 436.411 439.168 436.626 439.482L454.663 465.806C454.905 466.158 454.931 466.616 454.731 466.994C454.533 467.37 454.141 467.608 453.712 467.608ZM282.995 465.304H451.528L435.068 441.284H299.455L282.995 465.304Z" fill="#172554"/>
<path d="M191.239 406.692H159.353C158.944 406.692 158.565 406.474 158.359 406.122C158.153 405.77 158.149 405.333 158.35 404.976L166.531 390.413C166.735 390.05 167.12 389.824 167.536 389.824H198.17C198.565 389.824 198.932 390.027 199.144 390.362C199.354 390.697 199.379 391.115 199.21 391.473L192.279 406.036C192.089 406.437 191.685 406.692 191.239 406.692ZM161.323 404.388H190.513L196.346 392.129H168.21L161.323 404.388Z" fill="#172554"/>
<path d="M246.293 406.692H214.406C214.021 406.692 213.663 406.5 213.448 406.181C213.234 405.861 213.194 405.455 213.34 405.101L219.363 390.537C219.541 390.105 219.962 389.824 220.427 389.824H251.063C251.432 389.824 251.779 390.001 251.996 390.301C252.212 390.6 252.272 390.984 252.157 391.336L247.385 405.899C247.233 406.373 246.792 406.692 246.293 406.692ZM216.13 404.388H245.458L249.474 392.129H221.2L216.13 404.388Z" fill="#172554"/>
<path d="M301.346 406.692H269.46C269.102 406.692 268.764 406.526 268.547 406.242C268.329 405.958 268.254 405.589 268.346 405.245L272.21 390.68C272.344 390.174 272.801 389.823 273.324 389.823H303.959C304.3 389.823 304.625 389.975 304.843 390.236C305.062 390.498 305.153 390.844 305.093 391.179L302.48 405.743C302.381 406.294 301.905 406.692 301.346 406.692ZM270.959 404.387H300.383L302.583 392.129H274.212L270.959 404.387Z" fill="#172554"/>
<path d="M356.399 406.692H324.513C324.184 406.692 323.871 406.551 323.651 406.305C323.433 406.061 323.329 405.732 323.367 405.405L325.072 390.841C325.14 390.26 325.633 389.823 326.217 389.823H356.852C357.164 389.823 357.464 389.948 357.681 390.173C357.897 390.397 358.014 390.698 358.005 391.01L357.55 405.574C357.533 406.199 357.023 406.692 356.399 406.692ZM325.808 404.387H355.284L355.666 392.129H327.245L325.808 404.387Z" fill="#172554"/>
<path d="M411.452 406.692H379.566C378.944 406.692 378.434 406.197 378.414 405.575L377.959 391.012C377.95 390.7 378.067 390.397 378.285 390.173C378.502 389.948 378.8 389.823 379.112 389.823H409.747C410.332 389.823 410.824 390.26 410.892 390.841L412.596 405.406C412.632 405.733 412.529 406.061 412.311 406.306C412.095 406.551 411.781 406.692 411.452 406.692ZM380.683 404.387H410.159L408.724 392.129H380.301L380.683 404.387Z" fill="#172554"/>
<path d="M466.506 406.692H434.62C434.062 406.692 433.583 406.291 433.486 405.743L430.872 391.179C430.813 390.843 430.903 390.498 431.123 390.236C431.343 389.975 431.667 389.823 432.006 389.823H462.642C463.164 389.823 463.622 390.174 463.756 390.68L467.62 405.245C467.71 405.592 467.638 405.961 467.42 406.242C467.202 406.526 466.864 406.692 466.506 406.692ZM435.585 404.387H465.008L461.755 392.129H433.383L435.585 404.387Z" fill="#172554"/>
<path d="M521.561 406.692H489.675C489.177 406.692 488.734 406.371 488.579 405.898L483.807 391.334C483.693 390.984 483.753 390.6 483.97 390.299C484.188 390.001 484.534 389.823 484.903 389.823H515.537C516.004 389.823 516.423 390.104 516.601 390.535L522.624 405.099C522.771 405.454 522.73 405.859 522.516 406.179C522.304 406.5 521.945 406.692 521.561 406.692ZM490.509 404.387H519.835L514.767 392.129H486.493L490.509 404.387Z" fill="#172554"/>
<path d="M576.612 406.692H544.726C544.281 406.692 543.875 406.436 543.685 406.033L536.754 391.47C536.585 391.113 536.61 390.692 536.822 390.359C537.032 390.024 537.401 389.821 537.796 389.821H568.43C568.848 389.821 569.232 390.045 569.434 390.409L577.616 404.973C577.815 405.329 577.812 405.767 577.605 406.119C577.401 406.475 577.023 406.692 576.612 406.692ZM545.455 404.387H574.644L567.758 392.129H539.622L545.455 404.387Z" fill="#172554"/>
<path d="M156.734 427.123H124.848C124.439 427.123 124.059 426.905 123.853 426.553C123.648 426.2 123.643 425.763 123.844 425.407L132.026 410.843C132.23 410.481 132.614 410.255 133.03 410.255H163.666C164.061 410.255 164.428 410.458 164.64 410.793C164.85 411.128 164.875 411.546 164.706 411.904L157.775 426.468C157.583 426.866 157.178 427.123 156.734 427.123ZM126.817 424.818H156.005L161.839 412.56H133.703L126.817 424.818Z" fill="#172554"/>
<path d="M211.787 427.123H179.902C179.517 427.123 179.159 426.931 178.944 426.611C178.73 426.292 178.69 425.886 178.836 425.531L184.857 410.966C185.036 410.535 185.457 410.253 185.922 410.253H216.558C216.926 410.253 217.274 410.43 217.49 410.728C217.707 411.028 217.767 411.412 217.651 411.764L212.879 426.327C212.727 426.803 212.285 427.123 211.787 427.123ZM181.625 424.818H210.951L214.967 412.559H186.693L181.625 424.818Z" fill="#172554"/>
<path d="M266.84 427.123H234.954C234.596 427.123 234.258 426.957 234.042 426.673C233.823 426.388 233.75 426.02 233.84 425.676L237.704 411.112C237.838 410.607 238.296 410.255 238.818 410.255H269.452C269.793 410.255 270.117 410.407 270.336 410.667C270.555 410.929 270.646 411.274 270.586 411.61L267.973 426.173C267.876 426.723 267.398 427.123 266.84 427.123ZM236.454 424.818H265.877L268.077 412.559H239.706L236.454 424.818Z" fill="#172554"/>
<path d="M321.894 427.123H290.007C289.679 427.123 289.365 426.982 289.146 426.736C288.927 426.491 288.823 426.163 288.861 425.837L290.565 411.274C290.633 410.693 291.126 410.255 291.71 410.255H322.344C322.656 410.255 322.954 410.381 323.172 410.604C323.389 410.83 323.505 411.131 323.496 411.443L323.043 426.007C323.026 426.63 322.516 427.123 321.894 427.123ZM291.303 424.818H320.777L321.159 412.559H292.738L291.303 424.818Z" fill="#172554"/>
<path d="M376.945 427.123H345.061C344.439 427.123 343.928 426.628 343.908 426.006L343.455 411.441C343.446 411.129 343.563 410.828 343.779 410.602C343.996 410.379 344.294 410.253 344.608 410.253H375.241C375.827 410.253 376.317 410.691 376.386 411.272L378.09 425.835C378.127 426.163 378.024 426.49 377.806 426.736C377.588 426.982 377.274 427.123 376.945 427.123ZM346.178 424.818H375.652L374.217 412.559H345.795L346.178 424.818Z" fill="#172554"/>
<path d="M432 427.123H400.116C399.558 427.123 399.08 426.722 398.982 426.173L396.368 411.61C396.309 411.274 396.401 410.929 396.619 410.667C396.839 410.405 397.161 410.255 397.502 410.255H428.138C428.66 410.255 429.118 410.607 429.252 411.112L433.114 425.677C433.206 426.023 433.133 426.392 432.914 426.674C432.695 426.957 432.357 427.123 432 427.123ZM401.078 424.818H430.501L427.25 412.559H398.877L401.078 424.818Z" fill="#172554"/>
<path d="M487.052 427.123H455.169C454.671 427.123 454.229 426.802 454.073 426.329L449.3 411.765C449.186 411.413 449.246 411.029 449.461 410.73C449.679 410.432 450.025 410.255 450.394 410.255H481.029C481.496 410.255 481.916 410.536 482.094 410.968L488.115 425.533C488.263 425.888 488.221 426.293 488.008 426.613C487.797 426.931 487.436 427.123 487.052 427.123ZM456.003 424.818H485.33L480.261 412.559H451.985L456.003 424.818Z" fill="#172554"/>
<path d="M542.105 427.123H510.221C509.777 427.123 509.371 426.866 509.179 426.465L502.247 411.9C502.078 411.544 502.103 411.125 502.315 410.79C502.525 410.455 502.894 410.252 503.289 410.252H533.924C534.34 410.252 534.725 410.476 534.929 410.84L543.109 425.404C543.308 425.76 543.304 426.198 543.098 426.55C542.894 426.906 542.516 427.123 542.105 427.123ZM510.949 424.818H540.137L533.251 412.56H505.114L510.949 424.818Z" fill="#172554"/>
<path d="M596.02 427.123H564.136C563.692 427.123 563.286 426.866 563.094 426.465L556.162 411.9C555.993 411.544 556.017 411.125 556.229 410.79C556.44 410.455 556.809 410.252 557.203 410.252H587.837C588.254 410.252 588.638 410.476 588.842 410.84L597.023 425.404C597.223 425.76 597.22 426.198 597.013 426.55C596.808 426.906 596.43 427.123 596.02 427.123ZM564.864 424.818H594.052L587.166 412.56H559.029L564.864 424.818Z" fill="#172554"/>
<path d="M498.546 59.79V307.231C498.546 321.954 486.606 333.893 471.883 333.893H262.638C247.915 333.893 235.976 321.954 235.976 307.231V59.79C235.976 45.0668 247.915 33.1276 262.638 33.1276H471.882C486.605 33.1276 498.546 45.0668 498.546 59.79Z" fill="white"/>
<path d="M417.191 48.1182C417.191 51.7594 414.238 54.7124 410.597 54.7124C406.955 54.7124 404.003 51.7594 404.003 48.1182C404.003 44.477 406.955 41.524 410.597 41.524C414.238 41.5256 417.191 44.477 417.191 48.1182Z" fill="#88C8FC"/>
<path d="M446.166 48.1182C446.166 51.7594 443.213 54.7124 439.571 54.7124C435.93 54.7124 432.977 51.7594 432.977 48.1182C432.977 44.477 435.93 41.524 439.571 41.524C443.213 41.5256 446.166 44.477 446.166 48.1182Z" fill="#508DD2"/>
<path d="M475.14 48.1182C475.14 51.7594 472.187 54.7124 468.546 54.7124C464.905 54.7124 461.952 51.7594 461.952 48.1182C461.952 44.477 464.903 41.524 468.546 41.524C472.189 41.524 475.14 44.477 475.14 48.1182Z" fill="#172554"/>
<path d="M471.882 335.047H262.64C247.302 335.047 234.825 322.569 234.825 307.231V59.7901C234.825 44.4539 247.303 31.9753 262.64 31.9753H471.883C487.219 31.9753 499.698 44.4539 499.698 59.7901V307.231C499.698 322.567 487.219 335.047 471.882 335.047ZM262.64 34.2799C248.573 34.2799 237.13 45.7245 237.13 59.7901V307.231C237.13 321.297 248.574 332.743 262.64 332.743H471.883C485.949 332.743 497.393 321.298 497.393 307.231V59.7901C497.393 45.7245 485.949 34.2799 471.883 34.2799H262.64Z" fill="#172554"/>
<path d="M498.546 60.9424H235.976C235.34 60.9424 234.823 60.4262 234.823 59.7901C234.823 59.154 235.34 58.6378 235.976 58.6378H498.546C499.182 58.6378 499.698 59.154 499.698 59.7901C499.698 60.4262 499.182 60.9424 498.546 60.9424Z" fill="#172554"/>
<path d="M326.49 93.4137L297.972 81.3377L269.455 93.4137V26.1661H326.49V93.4137Z" fill="#508DD2"/>
<path d="M321.678 109.219H255.529V180.659H321.678V109.219Z" fill="#88C8FC"/>
<path d="M478.992 109.219H330.809V115.289H478.992V109.219Z" fill="#C7C7C7"/>
<path d="M478.992 125.472H330.809V131.542H478.992V125.472Z" fill="#C7C7C7"/>
<path d="M478.992 141.724H330.809V147.794H478.992V141.724Z" fill="#C7C7C7"/>
<path d="M478.992 157.976H330.809V164.046H478.992V157.976Z" fill="#C7C7C7"/>
<path d="M416.449 174.229H330.809V180.299H416.449V174.229Z" fill="#C7C7C7"/>
<path d="M478.992 205.788H255.529V211.858H478.992V205.788Z" fill="#C7C7C7"/>
<path d="M478.992 222.04H255.529V228.11H478.992V222.04Z" fill="#C7C7C7"/>
<path d="M478.992 238.293H255.529V244.364H478.992V238.293Z" fill="#C7C7C7"/>
<path d="M478.992 254.545H255.529V260.616H478.992V254.545Z" fill="#C7C7C7"/>
<path d="M416.449 270.799H255.529V276.869H416.449V270.799Z" fill="#C7C7C7"/>
<path d="M478.078 79.4587H375.192V96.4235H478.078V79.4587Z" fill="#88C8FC"/>
<path d="M373.628 318.442C373.459 318.442 373.289 318.405 373.132 318.33L349.591 307.102C349.017 306.829 348.773 306.14 349.048 305.566C349.321 304.993 350.011 304.75 350.582 305.022L373.628 316.011L396.674 305.022C397.252 304.744 397.935 304.991 398.21 305.566C398.485 306.14 398.241 306.829 397.668 307.102L374.126 318.33C373.968 318.405 373.799 318.442 373.628 318.442Z" fill="#172554"/>
<path d="M161.088 125.839C163.985 125.839 166.333 123.491 166.333 120.594C166.333 117.697 163.985 115.349 161.088 115.349C158.191 115.349 155.843 117.697 155.843 120.594C155.843 123.491 158.191 125.839 161.088 125.839Z" fill="#172554"/>
<path d="M186.426 125.839C183.53 125.839 181.181 123.492 181.181 120.594C181.181 117.698 183.528 115.349 186.426 115.349C189.323 115.349 191.671 117.698 191.671 120.594C191.671 123.49 189.322 125.839 186.426 125.839Z" fill="#172554"/>
<path d="M161.088 151.177C163.985 151.177 166.333 148.829 166.333 145.932C166.333 143.035 163.985 140.687 161.088 140.687C158.191 140.687 155.843 143.035 155.843 145.932C155.843 148.829 158.191 151.177 161.088 151.177Z" fill="#172554"/>
<path d="M161.088 176.515C163.985 176.515 166.333 174.167 166.333 171.27C166.333 168.373 163.985 166.025 161.088 166.025C158.191 166.025 155.843 168.373 155.843 171.27C155.843 174.167 158.191 176.515 161.088 176.515Z" fill="#172554"/>
<path d="M161.088 201.853C163.985 201.853 166.333 199.505 166.333 196.608C166.333 193.711 163.985 191.363 161.088 191.363C158.191 191.363 155.843 193.711 155.843 196.608C155.843 199.505 158.191 201.853 161.088 201.853Z" fill="#172554"/>
<path d="M155.843 221.946C155.843 219.049 158.19 216.701 161.088 216.701C163.984 216.701 166.333 219.049 166.333 221.946C166.333 224.842 163.984 227.191 161.088 227.191C158.19 227.191 155.843 224.842 155.843 221.946Z" fill="#172554"/>
<path d="M186.426 151.177C183.53 151.177 181.181 148.83 181.181 145.932C181.181 143.034 183.528 140.687 186.426 140.687C189.323 140.687 191.671 143.034 191.671 145.932C191.671 148.828 189.322 151.177 186.426 151.177Z" fill="#172554"/>
<path d="M181.181 171.27C181.181 168.374 183.528 166.025 186.426 166.025C189.323 166.025 191.671 168.374 191.671 171.27C191.671 174.166 189.322 176.515 186.426 176.515C183.528 176.515 181.181 174.166 181.181 171.27Z" fill="#172554"/>
<path d="M181.181 196.608C181.181 193.712 183.528 191.363 186.426 191.363C189.323 191.363 191.671 193.711 191.671 196.608C191.671 199.506 189.322 201.853 186.426 201.853C183.528 201.853 181.181 199.504 181.181 196.608Z" fill="#172554"/>
<path d="M181.181 221.946C181.181 219.049 183.528 216.701 186.426 216.701C189.323 216.701 191.671 219.049 191.671 221.946C191.671 224.842 189.322 227.191 186.426 227.191C183.528 227.191 181.181 224.842 181.181 221.946Z" fill="#172554"/>
<path d="M161.088 252.528C163.985 252.528 166.333 250.18 166.333 247.283C166.333 244.386 163.985 242.038 161.088 242.038C158.191 242.038 155.843 244.386 155.843 247.283C155.843 250.18 158.191 252.528 161.088 252.528Z" fill="#172554"/>
<path d="M181.181 247.283C181.181 244.387 183.528 242.038 186.426 242.038C189.323 242.038 191.671 244.387 191.671 247.283C191.671 250.179 189.322 252.528 186.426 252.528C183.528 252.528 181.181 250.18 181.181 247.283Z" fill="#172554"/>
<path d="M548.965 126.09C546.069 126.09 543.72 123.74 543.72 120.844C543.72 117.948 546.069 115.599 548.965 115.599C551.861 115.599 554.21 117.948 554.21 120.844C554.21 123.74 551.863 126.09 548.965 126.09Z" fill="#172554"/>
<path d="M574.303 126.09C571.407 126.09 569.058 123.74 569.058 120.844C569.058 117.948 571.407 115.599 574.303 115.599C577.199 115.599 579.548 117.948 579.548 120.844C579.548 123.74 577.201 126.09 574.303 126.09Z" fill="#172554"/>
<path d="M548.965 151.428C551.862 151.428 554.21 149.079 554.21 146.183C554.21 143.286 551.862 140.937 548.965 140.937C546.068 140.937 543.72 143.286 543.72 146.183C543.72 149.079 546.068 151.428 548.965 151.428Z" fill="#172554"/>
<path d="M548.965 176.764C551.862 176.764 554.21 174.416 554.21 171.519C554.21 168.622 551.862 166.274 548.965 166.274C546.068 166.274 543.72 168.622 543.72 171.519C543.72 174.416 546.068 176.764 548.965 176.764Z" fill="#172554"/>
<path d="M548.965 202.102C551.862 202.102 554.21 199.754 554.21 196.857C554.21 193.96 551.862 191.612 548.965 191.612C546.068 191.612 543.72 193.96 543.72 196.857C543.72 199.754 546.068 202.102 548.965 202.102Z" fill="#172554"/>
<path d="M574.303 151.428C577.2 151.428 579.548 149.079 579.548 146.183C579.548 143.286 577.2 140.937 574.303 140.937C571.406 140.937 569.058 143.286 569.058 146.183C569.058 149.079 571.406 151.428 574.303 151.428Z" fill="#172554"/>
<path d="M574.303 176.764C577.2 176.764 579.548 174.416 579.548 171.519C579.548 168.622 577.2 166.274 574.303 166.274C571.406 166.274 569.058 168.622 569.058 171.519C569.058 174.416 571.406 176.764 574.303 176.764Z" fill="#172554"/>
<path d="M574.303 202.102C577.2 202.102 579.548 199.754 579.548 196.857C579.548 193.96 577.2 191.612 574.303 191.612C571.406 191.612 569.058 193.96 569.058 196.857C569.058 199.754 571.406 202.102 574.303 202.102Z" fill="#172554"/>
<path d="M522.801 125.214C525.697 125.214 528.046 122.865 528.046 119.969C528.046 117.072 525.697 114.723 522.801 114.723C519.904 114.723 517.555 117.072 517.555 119.969C517.555 122.865 519.904 125.214 522.801 125.214Z" fill="#172554"/>
<path d="M522.801 150.554C525.697 150.554 528.046 148.205 528.046 145.308C528.046 142.412 525.697 140.063 522.801 140.063C519.904 140.063 517.555 142.412 517.555 145.308C517.555 148.205 519.904 150.554 522.801 150.554Z" fill="#172554"/>
<path d="M522.801 175.89C525.697 175.89 528.046 173.542 528.046 170.645C528.046 167.748 525.697 165.4 522.801 165.4C519.904 165.4 517.555 167.748 517.555 170.645C517.555 173.542 519.904 175.89 522.801 175.89Z" fill="#172554"/>
<path d="M517.555 195.983C517.555 193.087 519.904 190.738 522.801 190.738C525.697 190.738 528.046 193.087 528.046 195.983C528.046 198.88 525.697 201.228 522.801 201.228C519.904 201.228 517.555 198.88 517.555 195.983Z" fill="#172554"/>
<path d="M552.053 13.4664C552.053 15.0827 550.746 16.3902 549.131 16.3902H541.512V24.0091C541.512 25.6254 540.205 26.9328 538.59 26.9328C537.782 26.9328 537.054 26.6041 536.52 26.0786C535.995 25.547 535.666 24.8172 535.666 24.0091V16.3902H528.047C526.431 16.3902 525.124 15.0827 525.124 13.4664C525.124 12.6583 525.452 11.93 525.978 11.3969C526.509 10.8715 527.239 10.5427 528.047 10.5427H535.666V2.92374C535.666 1.30746 536.974 0 538.588 0C539.397 0 540.125 0.328786 540.658 0.85423C541.183 1.38582 541.512 2.1156 541.512 2.92374V10.5427H549.131C550.747 10.5442 552.053 11.8517 552.053 13.4664Z" fill="#172554"/>
<path d="M545.832 46.2837C540.755 46.2837 540.747 54.1746 545.832 54.1746C550.91 54.1761 550.918 46.2837 545.832 46.2837Z" fill="#172554"/>
<path d="M582.047 14.2638C576.969 14.2638 576.961 22.1547 582.047 22.1547C587.124 22.1547 587.132 14.2638 582.047 14.2638Z" fill="#172554"/>
<path d="M674.433 142.381C674.433 143.998 673.125 145.304 671.51 145.304H663.892V152.923C663.892 154.539 662.584 155.845 660.969 155.845C660.161 155.845 659.433 155.516 658.9 154.991C658.374 154.459 658.046 153.729 658.046 152.921V145.302H650.427C648.81 145.302 647.503 143.995 647.503 142.38C647.503 141.572 647.832 140.844 648.357 140.31C648.889 139.785 649.619 139.456 650.427 139.456H658.046V131.837C658.046 130.221 659.353 128.915 660.968 128.915C661.776 128.915 662.504 129.244 663.037 129.769C663.563 130.301 663.892 131.031 663.892 131.839V139.458H671.51C673.125 139.459 674.433 140.767 674.433 142.381Z" fill="#172554"/>
<path d="M631.208 166.066C626.13 166.066 626.121 173.957 631.208 173.957C636.286 173.959 636.293 166.066 631.208 166.066Z" fill="#172554"/>
<path d="M635.49 108.309C630.412 108.309 630.404 116.2 635.49 116.2C640.568 116.2 640.575 108.309 635.49 108.309Z" fill="#172554"/>
<path d="M205.136 48.1182C205.136 49.7345 203.828 51.0419 202.214 51.0419H194.595V58.6609C194.595 60.2772 193.287 61.5846 191.673 61.5846C190.864 61.5846 190.136 61.2558 189.603 60.7304C189.078 60.1988 188.749 59.469 188.749 58.6609V51.0419H181.13C179.514 51.0419 178.206 49.7345 178.206 48.1182C178.206 47.3101 178.535 46.5818 179.06 46.0487C179.592 45.5232 180.322 45.1945 181.13 45.1945H188.749V37.5755C188.749 35.9592 190.056 34.6533 191.673 34.6533C192.481 34.6533 193.209 34.9821 193.742 35.5076C194.268 36.0391 194.596 36.7689 194.596 37.5771V45.196H202.215C203.828 45.196 205.136 46.5035 205.136 48.1182Z" fill="#172554"/>
<path d="M157.536 38.3866C152.458 38.3866 152.45 46.2775 157.536 46.2775C162.613 46.279 162.623 38.3866 157.536 38.3866Z" fill="#172554"/>
<path d="M212.819 10.7456C207.742 10.7456 207.732 18.6365 212.819 18.6365C217.897 18.6365 217.905 10.7456 212.819 10.7456Z" fill="#172554"/>
<path d="M85.1411 172.476C85.1411 174.092 83.8337 175.398 82.2189 175.398H74.6V183.017C74.6 184.634 73.2925 185.94 71.6763 185.94C70.8681 185.94 70.1399 185.611 69.6067 185.085C69.0813 184.554 68.7525 183.824 68.7525 183.016V175.397H61.1336C59.5173 175.397 58.2098 174.089 58.2098 172.475C58.2098 171.666 58.5386 170.938 59.0641 170.405C59.5957 169.88 60.3254 169.551 61.1336 169.551H68.7525V161.932C68.7525 160.316 70.06 159.01 71.6763 159.01C72.4844 159.01 73.2126 159.339 73.7458 159.864C74.2712 160.396 74.6 161.125 74.6 161.934V169.552H82.2189C83.8352 169.552 85.1411 170.86 85.1411 172.476Z" fill="#172554"/>
<path d="M36.4408 163.432C31.363 163.432 31.3538 171.322 36.4408 171.322C41.5186 171.322 41.5262 163.432 36.4408 163.432Z" fill="#172554"/>
</svg>
