<svg width="739" height="590" viewBox="0 0 739 590" fill="none" xmlns="http://www.w3.org/2000/svg">
<path d="M360.776 513.394C542.057 513.394 689.014 484.588 689.014 449.053C689.014 413.519 542.057 384.712 360.776 384.712C179.496 384.712 32.5384 413.519 32.5384 449.053C32.5384 484.588 179.496 513.394 360.776 513.394Z" fill="#C7C7C7"/>
<path d="M638.369 345.47C609.957 368.009 570.576 333.162 579.994 304.65C584.863 289.91 596.412 278.19 598.73 262.605C601.124 246.511 608.735 239.71 621.171 229.989C626.047 226.176 628 219.164 630.268 213.444C634.551 202.648 640.952 193.56 651.247 187.768C663.938 180.628 688.913 190.258 692.024 206.257C695.801 225.672 670.607 234.861 662.361 247.33C655.283 258.033 661.96 272.128 651.588 283.724C636.001 301.145 660.713 328.863 638.369 345.47Z" fill="#88C8FC"/>
<path d="M608.614 378.369C608.024 378.369 607.521 377.918 607.468 377.319C602.436 321.905 619.319 265.736 653.79 223.22C654.191 222.723 654.916 222.648 655.412 223.051C655.905 223.452 655.982 224.177 655.581 224.672C621.484 266.727 604.782 322.29 609.763 377.113C609.82 377.746 609.353 378.306 608.718 378.364C608.685 378.367 608.648 378.369 608.614 378.369Z" fill="#172554"/>
<path d="M624.703 309.026C617.036 319.869 611 332.024 597.996 334.41C578.362 338.016 554.851 356.741 556.049 381.202C555.707 431.007 631.676 429.991 637.544 393C640.313 375.514 644.751 367.888 662.622 365.323C673.325 363.793 676.562 354.778 679.575 345.538C682.367 341.296 686.369 338.025 691.164 336.28C697.965 333.801 705.641 334.877 712.919 334.659C719.34 334.468 725.756 333.144 730.52 328.906C735.052 324.861 738.019 319.132 738.81 312.736C739.581 306.368 737.988 299.692 734.278 294.024C730.778 288.69 725.467 284.344 719.733 282.088C713.228 279.515 706.583 279.552 700.556 282.047C693.577 284.92 688.16 290.133 682.749 295.214C682.714 295.253 682.671 295.283 682.635 295.323C675.676 301.888 665.743 304.234 655.901 301.774C644.161 298.844 632.978 297.338 624.703 309.026Z" fill="#508DD2"/>
<path d="M555.125 426.375C554.925 426.375 554.722 426.322 554.538 426.213C553.991 425.889 553.809 425.181 554.135 424.636C586.418 370.284 637.095 329.779 696.835 310.58C697.437 310.385 698.088 310.719 698.283 311.324C698.479 311.931 698.145 312.578 697.54 312.773C638.337 331.799 588.111 371.945 556.116 425.811C555.902 426.173 555.518 426.375 555.125 426.375Z" fill="#172554"/>
<path d="M95.8497 366.073C124.262 388.612 163.643 353.765 154.225 325.253C149.356 310.513 137.805 298.793 135.488 283.208C133.095 267.114 125.484 260.313 113.048 250.591C108.172 246.777 106.22 239.765 103.951 234.045C99.6676 223.249 93.2671 214.161 82.9717 208.369C70.2812 201.23 45.3057 210.858 42.1945 226.858C38.4181 246.273 63.6117 255.462 71.8575 267.932C78.9356 278.634 72.2585 292.729 82.6307 304.326C98.2173 321.75 73.5061 349.468 95.8497 366.073Z" fill="#508DD2"/>
<path d="M125.605 398.972C125.57 398.972 125.534 398.97 125.499 398.967C124.864 398.909 124.399 398.35 124.456 397.715C129.435 342.891 112.735 287.329 78.6376 245.273C78.2366 244.779 78.3134 244.053 78.8066 243.652C79.2998 243.251 80.0265 243.327 80.4275 243.821C114.899 286.341 131.784 342.508 126.751 397.922C126.697 398.522 126.193 398.972 125.605 398.972Z" fill="#172554"/>
<path d="M114.297 323.034C121.964 333.878 128 346.033 141.004 348.419C160.638 352.024 184.149 370.751 182.951 395.212C183.293 445.017 107.322 444.002 101.456 407.01C98.6875 389.526 94.2488 381.898 76.3776 379.334C65.6751 377.803 62.438 368.788 59.4251 359.548C56.6335 355.306 52.6312 352.035 47.8362 350.29C41.033 347.812 33.3573 348.887 26.0809 348.669C19.6604 348.478 13.2444 347.154 8.48011 342.917C3.94777 338.871 0.981007 333.142 0.189769 326.746C-0.581497 320.378 1.01174 313.702 4.72211 308.035C8.22199 302.7 13.5333 298.354 19.2671 296.098C25.7721 293.525 32.417 293.562 38.4442 296.057C45.4225 298.93 50.8398 304.143 56.2509 309.224C56.2863 309.264 56.3293 309.293 56.3646 309.333C63.3245 315.898 73.2572 318.244 83.0993 315.784C94.8388 312.853 106.022 311.347 114.297 323.034Z" fill="#88C8FC"/>
<path d="M183.874 440.383C183.481 440.383 183.098 440.182 182.883 439.819C150.889 385.954 100.663 345.81 41.4602 326.781C40.8533 326.586 40.5214 325.938 40.7165 325.333C40.9101 324.726 41.56 324.395 42.1654 324.589C101.905 343.788 152.584 384.293 184.865 438.644C185.189 439.19 185.009 439.898 184.462 440.222C184.276 440.331 184.074 440.383 183.874 440.383Z" fill="#172554"/>
<path d="M657.005 490.511H77.5146C71.0494 490.511 65.8088 485.271 65.8088 478.804V473.877H668.713V478.804C668.713 485.269 663.47 490.511 657.005 490.511Z" fill="#172554"/>
<path d="M605.813 382.087H128.707L65.8088 473.878H668.713L605.813 382.087Z" fill="white"/>
<path d="M597.601 79.4587H136.92C132.517 79.4587 128.948 83.0278 128.948 87.431V382.087H605.573V87.431C605.573 83.0278 602.004 79.4587 597.601 79.4587Z" fill="#172554"/>
<path d="M590.987 104.542H143.535V358.611H590.987V104.542Z" fill="#344580"/>
<path d="M657.007 491.663H77.5146C70.4242 491.663 64.655 485.894 64.655 478.804V473.878C64.655 473.242 65.1713 472.726 65.8073 472.726H668.711C669.347 472.726 669.863 473.242 669.863 473.878V478.804C669.865 485.894 664.097 491.663 657.007 491.663ZM66.9611 475.031V478.804C66.9611 484.624 71.6963 489.359 77.5161 489.359H657.007C662.827 489.359 667.56 484.624 667.56 478.804V475.031H66.9611Z" fill="#172554"/>
<path d="M668.713 475.03H65.8088C65.3817 475.03 64.9884 474.794 64.7887 474.416C64.589 474.038 64.6166 473.58 64.8578 473.228L127.756 381.437C127.971 381.123 128.326 380.936 128.707 380.936H605.813C606.193 380.936 606.549 381.123 606.764 381.437L669.662 473.228C669.903 473.582 669.93 474.038 669.73 474.416C669.533 474.792 669.14 475.03 668.713 475.03ZM67.9951 472.726H666.526L605.206 383.239H129.314L67.9951 472.726Z" fill="#172554"/>
<path d="M605.573 383.239H128.948C128.312 383.239 127.796 382.723 127.796 382.087V87.4311C127.796 82.3995 131.889 78.3065 136.92 78.3065H597.601C602.633 78.3065 606.727 82.3995 606.727 87.4311V382.087C606.726 382.723 606.209 383.239 605.573 383.239ZM130.1 380.935H604.421V87.4311C604.421 83.67 601.362 80.6111 597.6 80.6111H136.92C133.159 80.6111 130.1 83.67 130.1 87.4311V380.935Z" fill="#172554"/>
<path d="M590.987 359.762H143.535C142.899 359.762 142.382 359.245 142.382 358.609V104.542C142.382 103.906 142.899 103.39 143.535 103.39H590.987C591.623 103.39 592.139 103.906 592.139 104.542V358.609C592.139 359.245 591.623 359.762 590.987 359.762ZM144.687 357.457H589.835V105.694H144.687V357.457Z" fill="#172554"/>
<path d="M489.845 369.129H244.676V380.266H489.845V369.129Z" fill="white"/>
<path d="M346.474 91.7221C346.474 95.8704 343.111 99.232 338.964 99.232C334.816 99.232 331.455 95.8704 331.455 91.7221C331.455 87.5739 334.816 84.2123 338.964 84.2123C343.111 84.2123 346.474 87.5739 346.474 91.7221Z" fill="#172554"/>
<path d="M453.712 467.608H280.808C280.38 467.608 279.987 467.372 279.787 466.994C279.588 466.616 279.615 466.158 279.857 465.806L297.895 439.482C298.11 439.168 298.465 438.981 298.846 438.981H435.675C436.055 438.981 436.411 439.168 436.626 439.482L454.663 465.806C454.905 466.158 454.931 466.616 454.731 466.994C454.533 467.37 454.141 467.608 453.712 467.608ZM282.995 465.304H451.528L435.068 441.284H299.455L282.995 465.304Z" fill="#172554"/>
<path d="M191.239 406.692H159.353C158.945 406.692 158.565 406.474 158.359 406.122C158.153 405.77 158.149 405.333 158.35 404.976L166.531 390.413C166.736 390.05 167.12 389.824 167.536 389.824H198.17C198.565 389.824 198.932 390.027 199.144 390.362C199.355 390.697 199.379 391.115 199.21 391.473L192.28 406.036C192.089 406.437 191.685 406.692 191.239 406.692ZM161.323 404.388H190.513L196.346 392.129H168.211L161.323 404.388Z" fill="#172554"/>
<path d="M246.293 406.692H214.406C214.021 406.692 213.663 406.5 213.448 406.181C213.234 405.861 213.194 405.455 213.34 405.101L219.363 390.537C219.541 390.105 219.962 389.824 220.428 389.824H251.063C251.432 389.824 251.779 390.001 251.996 390.301C252.212 390.6 252.272 390.984 252.157 391.336L247.385 405.899C247.233 406.373 246.792 406.692 246.293 406.692ZM216.13 404.388H245.458L249.475 392.129H221.2L216.13 404.388Z" fill="#172554"/>
<path d="M301.346 406.692H269.46C269.102 406.692 268.764 406.526 268.547 406.242C268.329 405.958 268.254 405.589 268.346 405.245L272.21 390.68C272.344 390.174 272.801 389.823 273.324 389.823H303.959C304.3 389.823 304.625 389.975 304.843 390.236C305.062 390.498 305.153 390.844 305.093 391.179L302.48 405.743C302.381 406.294 301.905 406.692 301.346 406.692ZM270.959 404.387H300.383L302.583 392.129H274.212L270.959 404.387Z" fill="#172554"/>
<path d="M356.399 406.692H324.513C324.184 406.692 323.871 406.551 323.651 406.305C323.433 406.061 323.329 405.732 323.367 405.405L325.072 390.841C325.14 390.26 325.633 389.823 326.217 389.823H356.853C357.164 389.823 357.464 389.948 357.681 390.173C357.897 390.397 358.014 390.698 358.005 391.01L357.55 405.574C357.533 406.199 357.023 406.692 356.399 406.692ZM325.808 404.387H355.284L355.666 392.129H327.245L325.808 404.387Z" fill="#172554"/>
<path d="M411.453 406.692H379.566C378.944 406.692 378.434 406.197 378.414 405.575L377.959 391.012C377.95 390.7 378.067 390.397 378.285 390.173C378.502 389.948 378.8 389.823 379.112 389.823H409.747C410.333 389.823 410.824 390.26 410.892 390.841L412.596 405.406C412.633 405.733 412.53 406.061 412.311 406.306C412.095 406.551 411.781 406.692 411.453 406.692ZM380.683 404.387H410.159L408.724 392.129H380.301L380.683 404.387Z" fill="#172554"/>
<path d="M466.506 406.692H434.62C434.062 406.692 433.583 406.291 433.486 405.743L430.872 391.179C430.813 390.843 430.903 390.498 431.123 390.236C431.343 389.975 431.667 389.823 432.006 389.823H462.642C463.164 389.823 463.622 390.174 463.756 390.68L467.62 405.245C467.71 405.592 467.638 405.961 467.42 406.242C467.202 406.526 466.864 406.692 466.506 406.692ZM435.585 404.387H465.008L461.755 392.129H433.383L435.585 404.387Z" fill="#172554"/>
<path d="M521.561 406.692H489.675C489.177 406.692 488.734 406.371 488.579 405.898L483.807 391.334C483.693 390.984 483.753 390.6 483.97 390.299C484.188 390.001 484.534 389.823 484.903 389.823H515.537C516.004 389.823 516.423 390.104 516.601 390.535L522.624 405.099C522.771 405.454 522.73 405.859 522.516 406.179C522.304 406.5 521.945 406.692 521.561 406.692ZM490.509 404.387H519.835L514.767 392.129H486.493L490.509 404.387Z" fill="#172554"/>
<path d="M576.612 406.692H544.726C544.281 406.692 543.875 406.436 543.685 406.033L536.754 391.47C536.585 391.113 536.61 390.692 536.822 390.359C537.032 390.024 537.401 389.821 537.796 389.821H568.43C568.848 389.821 569.232 390.045 569.434 390.409L577.616 404.973C577.815 405.329 577.812 405.767 577.605 406.119C577.401 406.475 577.023 406.692 576.612 406.692ZM545.455 404.387H574.644L567.758 392.129H539.622L545.455 404.387Z" fill="#172554"/>
<path d="M156.734 427.123H124.848C124.439 427.123 124.059 426.905 123.854 426.553C123.648 426.2 123.643 425.763 123.844 425.407L132.026 410.843C132.23 410.481 132.614 410.255 133.03 410.255H163.666C164.061 410.255 164.428 410.458 164.64 410.793C164.85 411.128 164.875 411.546 164.706 411.904L157.775 426.468C157.583 426.866 157.178 427.123 156.734 427.123ZM126.817 424.818H156.006L161.839 412.56H133.703L126.817 424.818Z" fill="#172554"/>
<path d="M211.787 427.123H179.902C179.517 427.123 179.159 426.931 178.944 426.611C178.73 426.292 178.69 425.886 178.836 425.531L184.857 410.966C185.036 410.535 185.457 410.253 185.922 410.253H216.558C216.926 410.253 217.274 410.43 217.49 410.728C217.707 411.028 217.767 411.412 217.651 411.764L212.879 426.327C212.727 426.803 212.285 427.123 211.787 427.123ZM181.625 424.818H210.951L214.967 412.559H186.693L181.625 424.818Z" fill="#172554"/>
<path d="M266.84 427.123H234.954C234.596 427.123 234.258 426.957 234.042 426.673C233.823 426.388 233.75 426.02 233.84 425.676L237.704 411.112C237.838 410.607 238.296 410.255 238.818 410.255H269.452C269.793 410.255 270.117 410.407 270.336 410.667C270.555 410.929 270.646 411.274 270.586 411.61L267.973 426.173C267.876 426.723 267.398 427.123 266.84 427.123ZM236.454 424.818H265.877L268.077 412.559H239.706L236.454 424.818Z" fill="#172554"/>
<path d="M321.894 427.123H290.008C289.679 427.123 289.365 426.982 289.146 426.736C288.927 426.491 288.823 426.163 288.861 425.837L290.565 411.274C290.633 410.693 291.126 410.255 291.71 410.255H322.344C322.656 410.255 322.954 410.381 323.172 410.604C323.389 410.83 323.505 411.131 323.496 411.443L323.043 426.007C323.026 426.63 322.516 427.123 321.894 427.123ZM291.303 424.818H320.777L321.159 412.559H292.738L291.303 424.818Z" fill="#172554"/>
<path d="M376.945 427.123H345.061C344.439 427.123 343.928 426.628 343.909 426.006L343.455 411.441C343.446 411.129 343.563 410.828 343.779 410.602C343.996 410.379 344.294 410.253 344.608 410.253H375.242C375.827 410.253 376.317 410.691 376.386 411.272L378.09 425.835C378.127 426.163 378.024 426.49 377.806 426.736C377.588 426.982 377.274 427.123 376.945 427.123ZM346.178 424.818H375.652L374.217 412.559H345.795L346.178 424.818Z" fill="#172554"/>
<path d="M432 427.123H400.116C399.558 427.123 399.08 426.722 398.982 426.173L396.368 411.61C396.309 411.274 396.401 410.929 396.619 410.667C396.839 410.405 397.161 410.255 397.502 410.255H428.138C428.66 410.255 429.118 410.607 429.252 411.112L433.114 425.677C433.206 426.023 433.133 426.392 432.914 426.674C432.695 426.957 432.357 427.123 432 427.123ZM401.078 424.818H430.501L427.25 412.559H398.877L401.078 424.818Z" fill="#172554"/>
<path d="M487.052 427.123H455.169C454.671 427.123 454.229 426.802 454.074 426.329L449.3 411.765C449.186 411.413 449.246 411.029 449.461 410.73C449.68 410.432 450.025 410.255 450.394 410.255H481.029C481.497 410.255 481.916 410.536 482.094 410.968L488.115 425.533C488.263 425.888 488.221 426.293 488.008 426.613C487.797 426.931 487.436 427.123 487.052 427.123ZM456.003 424.818H485.33L480.261 412.559H451.986L456.003 424.818Z" fill="#172554"/>
<path d="M542.105 427.123H510.221C509.777 427.123 509.371 426.866 509.179 426.465L502.247 411.9C502.078 411.544 502.103 411.125 502.315 410.79C502.525 410.455 502.894 410.252 503.289 410.252H533.924C534.34 410.252 534.725 410.476 534.929 410.84L543.109 425.404C543.308 425.76 543.304 426.198 543.098 426.55C542.894 426.906 542.516 427.123 542.105 427.123ZM510.949 424.818H540.137L533.251 412.56H505.114L510.949 424.818Z" fill="#172554"/>
<path d="M596.02 427.123H564.136C563.692 427.123 563.286 426.866 563.094 426.465L556.162 411.9C555.993 411.544 556.017 411.125 556.229 410.79C556.44 410.455 556.809 410.252 557.203 410.252H587.837C588.254 410.252 588.638 410.476 588.842 410.84L597.023 425.404C597.223 425.76 597.22 426.198 597.013 426.55C596.808 426.906 596.43 427.123 596.02 427.123ZM564.864 424.818H594.052L587.166 412.56H559.029L564.864 424.818Z" fill="#172554"/>
<path d="M498.546 59.79V307.231C498.546 321.954 486.606 333.893 471.883 333.893H262.638C247.915 333.893 235.976 321.954 235.976 307.231V59.79C235.976 45.0668 247.915 33.1276 262.638 33.1276H471.882C486.605 33.1276 498.546 45.0668 498.546 59.79Z" fill="white"/>
<path d="M417.191 48.1182C417.191 51.7594 414.238 54.7123 410.597 54.7123C406.955 54.7123 404.003 51.7594 404.003 48.1182C404.003 44.4769 406.955 41.524 410.597 41.524C414.238 41.5255 417.191 44.4769 417.191 48.1182Z" fill="#88C8FC"/>
<path d="M446.166 48.1182C446.166 51.7594 443.213 54.7123 439.571 54.7123C435.93 54.7123 432.977 51.7594 432.977 48.1182C432.977 44.4769 435.93 41.524 439.571 41.524C443.213 41.5255 446.166 44.4769 446.166 48.1182Z" fill="#508DD2"/>
<path d="M475.14 48.1182C475.14 51.7594 472.187 54.7123 468.546 54.7123C464.905 54.7123 461.952 51.7594 461.952 48.1182C461.952 44.4769 464.903 41.524 468.546 41.524C472.189 41.524 475.14 44.4769 475.14 48.1182Z" fill="#172554"/>
<path d="M471.882 335.047H262.64C247.302 335.047 234.825 322.569 234.825 307.231V59.7901C234.825 44.4539 247.304 31.9754 262.64 31.9754H471.883C487.219 31.9754 499.698 44.4539 499.698 59.7901V307.231C499.698 322.567 487.219 335.047 471.882 335.047ZM262.64 34.28C248.573 34.28 237.13 45.7245 237.13 59.7901V307.231C237.13 321.297 248.574 332.743 262.64 332.743H471.883C485.949 332.743 497.393 321.298 497.393 307.231V59.7901C497.393 45.7245 485.949 34.28 471.883 34.28H262.64Z" fill="#172554"/>
<path d="M498.546 60.9424H235.976C235.34 60.9424 234.823 60.4262 234.823 59.7901C234.823 59.154 235.34 58.6378 235.976 58.6378H498.546C499.182 58.6378 499.698 59.154 499.698 59.7901C499.698 60.4262 499.182 60.9424 498.546 60.9424Z" fill="#172554"/>
<path d="M326.49 93.4139L297.972 81.3379L269.455 93.4139V26.1663H326.49V93.4139Z" fill="#508DD2"/>
<path d="M321.678 109.219H255.529V180.659H321.678V109.219Z" fill="#88C8FC"/>
<path d="M478.992 109.219H330.809V115.289H478.992V109.219Z" fill="#C7C7C7"/>
<path d="M478.992 125.472H330.809V131.542H478.992V125.472Z" fill="#C7C7C7"/>
<path d="M478.992 141.724H330.809V147.794H478.992V141.724Z" fill="#C7C7C7"/>
<path d="M478.992 157.976H330.809V164.046H478.992V157.976Z" fill="#C7C7C7"/>
<path d="M416.449 174.229H330.809V180.3H416.449V174.229Z" fill="#C7C7C7"/>
<path d="M478.992 205.788H255.529V211.858H478.992V205.788Z" fill="#C7C7C7"/>
<path d="M478.992 222.04H255.529V228.11H478.992V222.04Z" fill="#C7C7C7"/>
<path d="M478.992 238.294H255.529V244.364H478.992V238.294Z" fill="#C7C7C7"/>
<path d="M478.992 254.545H255.529V260.616H478.992V254.545Z" fill="#C7C7C7"/>
<path d="M416.449 270.799H255.529V276.869H416.449V270.799Z" fill="#C7C7C7"/>
<path d="M478.078 79.4589H375.192V96.4236H478.078V79.4589Z" fill="#88C8FC"/>
<path d="M373.628 318.442C373.459 318.442 373.289 318.405 373.132 318.33L349.591 307.102C349.017 306.829 348.773 306.14 349.048 305.566C349.321 304.993 350.011 304.75 350.582 305.022L373.628 316.012L396.674 305.022C397.252 304.744 397.935 304.991 398.21 305.566C398.485 306.14 398.241 306.829 397.668 307.102L374.126 318.33C373.968 318.405 373.799 318.442 373.628 318.442Z" fill="#172554"/>
<path d="M697.423 588.379H560.831L523.87 449.053C523.87 449.053 486.291 409.361 468.419 380.956C450.528 352.533 443.606 343.098 442.07 333.823C440.713 325.525 430.96 265.308 428.884 252.482C428.645 251.105 429.084 249.689 430.041 248.692C430.201 248.492 430.381 248.332 430.599 248.174C434.907 244.923 445.399 240.595 457.328 261.179C471.071 284.895 473.065 314.834 473.364 321.796L478.232 330.014L491.535 352.453L508.171 380.498C508.171 380.498 525.864 377.227 537.971 362.825L521.355 334.78L508.051 312.341L502.826 303.505L502.766 303.425L467.022 253.141C467.022 253.141 449.429 245.522 432.095 237.344C414.762 229.166 409.217 200.742 421.843 202.677C426.631 203.414 437.202 207.284 448.472 211.812C466.822 219.153 486.987 228.188 486.987 228.188C494.886 220.987 508.331 225.137 508.331 225.137C508.331 225.137 517.766 220.15 527.199 221.527C536.614 222.923 579.738 263.533 586.519 276.978C593.321 290.421 609.258 416.901 609.258 416.901L697.423 588.379Z" fill="white"/>
<path d="M439.931 213.037C439.639 215.221 439.02 217.772 437.673 219.866C436.198 222.16 433.266 223.016 430.753 221.978L418.532 216.953C416.165 215.97 414.745 213.548 415.035 211.016C415.272 208.994 415.837 206.645 417.111 204.716C418.531 202.549 421.262 201.692 423.704 202.549L436.161 206.902C438.711 207.793 440.277 210.36 439.931 213.037Z" fill="#172554"/>
<path d="M445.035 270.548C441.784 273.2 436.717 273.357 434.034 273.231C432.977 273.183 432.109 272.395 431.936 271.353L429.08 253.708C428.954 252.887 429.284 252.067 429.932 251.562C433.341 248.925 437.476 248.925 439.496 249.131C440.286 249.209 440.98 249.667 441.328 250.394C443.522 255.114 445.288 265.073 445.841 268.45C445.966 269.255 445.651 270.044 445.035 270.548Z" fill="#172554"/>
<path d="M508.053 312.342C495.926 326.743 478.233 330.016 478.233 330.016L473.366 321.797C473.066 314.836 471.072 284.897 457.329 261.181C445.401 240.596 434.91 244.924 430.601 248.175C430.381 248.335 430.201 248.495 430.043 248.693L394.259 188.276C394.857 189.154 396.433 191.387 398.487 193.383L398.827 193.723C399.404 194.261 400.003 194.78 400.641 195.219C400.821 195.379 401.02 195.499 401.219 195.639C401.578 195.878 401.936 196.098 402.316 196.276C402.575 196.416 402.835 196.536 403.093 196.636C403.353 196.736 403.611 196.836 403.89 196.915C404.13 196.975 404.39 197.035 404.648 197.075C404.648 197.075 404.668 197.075 404.688 197.075C404.948 197.115 405.206 197.135 405.465 197.135C406.303 197.135 407.16 196.915 407.979 196.438C411.19 194.543 411.849 190.853 411.729 187.722C411.729 187.622 411.729 187.522 411.709 187.422C411.689 186.843 411.649 186.305 411.569 185.806C411.569 185.706 411.549 185.626 411.549 185.546C411.509 185.306 411.469 185.087 411.449 184.889C411.429 184.869 411.429 184.849 411.429 184.849C411.21 183.512 410.91 182.575 410.87 182.395C410.91 182.435 410.99 182.515 411.09 182.635C411.15 182.695 411.21 182.755 411.27 182.834C411.35 182.914 411.429 183.014 411.509 183.094C411.809 183.394 412.187 183.752 412.626 184.151C412.806 184.351 413.006 184.511 413.206 184.67C413.445 184.87 413.683 185.09 413.943 185.268C414.003 185.328 414.083 185.388 414.143 185.428C414.442 185.668 414.74 185.887 415.06 186.085C415.14 186.145 415.22 186.205 415.3 186.265C415.819 186.585 416.377 186.903 416.936 187.162C417.236 187.302 417.514 187.442 417.813 187.542C418.113 187.662 418.411 187.742 418.71 187.822C418.99 187.921 419.288 187.981 419.588 188.001C420.405 188.121 421.204 188.101 422.001 187.881C422.241 187.822 422.479 187.742 422.719 187.642C422.959 187.542 423.218 187.402 423.456 187.262C424.114 186.863 424.613 186.345 424.993 185.706C425.093 185.566 425.172 185.426 425.252 185.267C425.252 185.247 425.252 185.247 425.252 185.247C425.392 184.947 425.512 184.649 425.612 184.329C425.652 184.249 425.672 184.19 425.672 184.11C425.772 183.85 425.832 183.572 425.872 183.292C425.931 182.973 425.971 182.655 425.991 182.335C426.011 182.295 426.011 182.235 426.011 182.175C426.071 181.498 426.071 180.799 426.031 180.061C426.011 179.782 425.991 179.502 425.971 179.244C425.892 178.347 425.772 177.449 425.592 176.591C425.552 176.291 425.492 176.013 425.412 175.733C425.332 175.334 425.252 174.936 425.152 174.556C425.053 174.157 424.953 173.779 424.853 173.419C424.394 171.763 423.956 170.566 423.836 170.268L448.47 211.817C437.201 207.289 426.629 203.419 421.842 202.681C409.216 200.747 414.76 229.17 432.094 237.348C449.427 245.527 467.021 253.146 467.021 253.146L502.765 303.43L502.825 303.51L508.053 312.342Z" fill="#E6AC4B"/>
<path d="M521.358 334.781C509.231 349.202 491.538 352.454 491.538 352.454L478.235 330.016C478.235 330.016 495.928 326.745 508.054 312.343L521.358 334.781Z" fill="#C7C7C7"/>
<path d="M537.972 362.827C525.864 377.227 508.173 380.5 508.173 380.5L491.537 352.454C491.537 352.454 509.23 349.203 521.356 334.781L537.972 362.827Z" fill="white"/>
<path d="M426.034 180.058C426.074 180.795 426.074 181.495 426.014 182.172C426.014 182.232 426.014 182.292 425.994 182.332C425.974 182.651 425.935 182.969 425.875 183.289C425.855 183.369 425.835 183.469 425.815 183.549C425.795 183.649 425.795 183.728 425.755 183.808C425.735 183.908 425.715 184.008 425.675 184.108C425.655 184.188 425.635 184.248 425.615 184.328C425.515 184.647 425.395 184.945 425.255 185.245C425.255 185.245 425.255 185.245 425.255 185.265C425.176 185.425 425.096 185.564 424.996 185.704C424.616 186.342 424.119 186.861 423.459 187.261C423.22 187.4 422.96 187.54 422.722 187.64C422.484 187.74 422.244 187.82 422.004 187.88C421.207 188.099 420.408 188.119 419.591 188C419.311 187.96 419.013 187.9 418.714 187.82C418.414 187.74 418.116 187.66 417.816 187.54C417.517 187.44 417.239 187.301 416.939 187.161C416.381 186.901 415.822 186.583 415.303 186.263C415.223 186.204 415.143 186.144 415.063 186.084C414.744 185.884 414.445 185.664 414.146 185.426C414.086 185.386 414.006 185.326 413.946 185.266C413.686 185.087 413.448 184.867 413.209 184.669C413.009 184.509 412.809 184.329 412.629 184.149C412.19 183.75 411.812 183.392 411.512 183.092C411.433 182.992 411.353 182.893 411.273 182.833C411.213 182.753 411.153 182.693 411.093 182.633C410.993 182.513 410.913 182.433 410.873 182.393C410.913 182.573 411.213 183.51 411.433 184.847C411.433 184.847 411.433 184.867 411.453 184.887C411.473 185.087 411.512 185.306 411.552 185.544C411.552 185.624 411.572 185.704 411.572 185.804C411.652 186.303 411.692 186.841 411.712 187.42C411.732 187.52 411.732 187.62 411.732 187.72C411.852 190.851 411.194 194.542 407.982 196.436C407.165 196.915 406.306 197.133 405.468 197.133C405.209 197.133 404.949 197.113 404.691 197.073C404.671 197.073 404.651 197.073 404.651 197.073C404.391 197.034 404.132 196.974 403.894 196.914C403.614 196.834 403.356 196.734 403.096 196.634C402.837 196.534 402.577 196.414 402.319 196.275C401.939 196.095 401.581 195.875 401.222 195.637C401.022 195.497 400.822 195.377 400.644 195.218C400.006 194.778 399.407 194.26 398.83 193.721L398.49 193.382C396.436 191.387 394.86 189.153 394.262 188.275C394.102 188.015 394.002 187.875 394.002 187.875L388.218 158.175C391.489 156.401 396.316 153.128 398.59 148.442L423.822 170.204C423.822 170.204 423.822 170.224 423.842 170.264C423.962 170.563 424.401 171.76 424.859 173.415C424.959 173.774 425.059 174.152 425.159 174.552C425.259 174.931 425.338 175.329 425.418 175.728C425.498 176.008 425.558 176.286 425.598 176.586C425.778 177.443 425.898 178.342 425.978 179.239C425.994 179.519 426.014 179.798 426.034 180.058Z" fill="white"/>
<path d="M398.588 148.444C396.315 153.131 391.487 156.402 388.216 158.177L386.162 147.605L390.949 141.84L398.588 148.444Z" fill="#172554"/>
<path d="M560.829 589.531C560.321 589.531 559.854 589.19 559.717 588.674L522.831 449.631C519.825 446.435 484.495 408.669 467.443 381.57C464.335 376.633 461.557 372.266 459.082 368.376C447.171 349.655 442.24 341.907 440.933 334.01C439.576 325.712 429.823 265.492 427.748 252.666C427.449 250.948 427.995 249.16 429.21 247.896C429.361 247.702 429.608 247.472 429.925 247.241C432.272 245.47 436.113 243.546 440.971 244.529C447.015 245.751 452.854 251.159 458.325 260.602C471.77 283.804 474.105 312.682 474.503 321.456L508.737 379.194C512.178 378.379 526.325 374.434 536.557 362.702L501.832 304.092L466.268 254.07C463.883 253.035 447.536 245.905 431.602 238.387C418.133 232.033 411.858 214.607 414.363 206.41C415.484 202.741 418.279 200.964 422.014 201.54C426.291 202.199 435.336 205.296 448.897 210.744C465.194 217.263 483.125 225.209 486.783 226.84C494.35 220.597 505.761 223.24 508.211 223.907C510.199 222.934 518.694 219.121 527.362 220.388C537.853 221.945 580.977 263.442 587.545 276.46C594.287 289.784 609.424 409.03 610.373 416.557L698.442 587.855C698.732 588.42 698.509 589.115 697.944 589.407C697.38 589.699 696.684 589.474 696.392 588.909L608.23 417.431C608.168 417.311 608.128 417.182 608.112 417.049C607.953 415.786 592.122 290.615 585.487 277.502C578.665 263.977 536.047 224.008 527.024 222.67C518.062 221.367 508.953 226.113 508.864 226.159C508.592 226.302 508.279 226.331 507.987 226.242C507.858 226.202 495.069 222.379 487.759 229.044C487.421 229.352 486.931 229.433 486.511 229.244C486.31 229.153 466.157 220.133 448.039 212.886C434.826 207.578 425.707 204.444 421.662 203.82C419.064 203.42 417.346 204.519 416.564 207.086C414.281 214.564 420.548 230.628 432.584 236.307C449.701 244.382 467.3 252.012 467.475 252.088C467.669 252.171 467.835 252.307 467.956 252.477L503.7 302.762C503.719 302.789 503.797 302.895 503.812 302.923L538.957 362.243C539.206 362.662 539.163 363.195 538.848 363.57C526.616 378.121 509.116 381.498 508.377 381.635C507.895 381.729 507.421 381.506 507.176 381.091L472.369 322.387C472.272 322.226 472.217 322.039 472.209 321.85C471.853 313.57 469.659 284.77 456.326 261.762C451.2 252.915 445.878 247.879 440.509 246.793C436.496 245.98 433.277 247.598 431.29 249.099C431.121 249.222 431.018 249.314 430.932 249.421C430.158 250.234 429.84 251.279 430.015 252.291C432.092 265.129 441.845 325.345 443.202 333.643C444.431 341.073 449.288 348.706 461.021 367.147C463.498 371.039 466.279 375.408 469.388 380.351C486.995 408.33 524.326 447.872 524.701 448.268C524.833 448.408 524.927 448.578 524.978 448.764L561.939 588.09C562.103 588.704 561.736 589.336 561.121 589.499C561.027 589.519 560.928 589.531 560.829 589.531Z" fill="#172554"/>
<path d="M491.537 353.607C491.134 353.607 490.755 353.396 490.544 353.043L472.373 322.384C472.277 322.221 472.221 322.035 472.214 321.846C471.857 313.567 469.663 284.767 456.33 261.758C451.205 252.912 445.883 247.876 440.513 246.789C436.5 245.977 433.282 247.594 431.295 249.096C431.126 249.218 431.023 249.311 430.937 249.418C430.699 249.712 430.327 249.871 429.957 249.844C429.58 249.816 429.239 249.607 429.047 249.281L393.265 188.865C392.948 188.328 393.113 187.639 393.638 187.305C394.167 186.969 394.86 187.115 395.208 187.629C395.934 188.694 397.425 190.751 399.286 192.558L399.638 192.91C400.266 193.495 400.785 193.924 401.291 194.271C401.497 194.443 401.597 194.506 401.698 194.572L401.876 194.695C402.167 194.889 402.479 195.081 402.806 195.238C403.073 195.38 403.29 195.48 403.505 195.563C403.731 195.651 403.96 195.74 404.204 195.811C404.361 195.849 404.559 195.897 404.762 195.93C404.797 195.934 404.832 195.937 404.86 195.94C405.734 196.072 406.599 195.91 407.395 195.445C409.649 194.116 410.72 191.532 410.575 187.768C410.563 187.708 410.557 187.523 410.554 187.463C410.537 186.936 410.502 186.445 410.429 185.99C410.419 185.93 410.414 185.869 410.414 185.809C410.408 185.763 410.403 185.72 410.4 185.68C410.363 185.458 410.336 185.296 410.316 185.153C410.305 185.114 410.296 185.076 410.29 185.037L410.288 185.039C410.125 184.045 409.915 183.283 409.812 182.917C409.776 182.787 409.752 182.693 409.741 182.645C409.632 182.143 409.867 181.63 410.319 181.385C410.769 181.144 411.328 181.226 411.689 181.593C411.751 181.656 411.847 181.754 411.97 181.9C411.993 181.919 412.041 181.968 412.098 182.035C412.225 182.154 412.322 182.277 412.407 182.381C412.608 182.573 412.974 182.92 413.398 183.304C413.616 183.536 413.769 183.655 413.921 183.776L414.141 183.96C414.289 184.086 414.436 184.215 414.594 184.325C414.653 184.365 414.705 184.409 414.754 184.458C415.123 184.744 415.386 184.939 415.667 185.113L415.991 185.351C416.481 185.646 416.979 185.919 417.417 186.122L417.564 186.19C417.769 186.287 417.965 186.383 418.173 186.451C418.486 186.575 418.735 186.638 418.981 186.706C419.267 186.803 419.463 186.841 419.661 186.855C420.457 186.967 421.093 186.94 421.691 186.774C421.903 186.721 422.087 186.658 422.27 186.583C422.467 186.502 422.677 186.386 422.871 186.273C423.333 185.993 423.707 185.614 423.999 185.123C424.08 185.004 424.129 184.924 424.169 184.85C424.18 184.821 424.192 184.793 424.203 184.767C424.32 184.515 424.423 184.263 424.506 183.994C424.513 183.968 424.583 183.722 424.593 183.698C424.604 183.638 424.627 183.549 424.653 183.466C424.661 183.421 424.673 183.346 424.675 183.337C424.678 183.326 424.708 183.189 424.71 183.178C424.712 183.172 424.744 183.031 424.745 183.023C424.784 182.811 424.818 182.538 424.836 182.264C424.839 182.204 424.848 182.144 424.862 182.088C424.91 181.428 424.911 180.822 424.874 180.13L424.816 179.336C424.736 178.429 424.615 177.581 424.46 176.832C424.413 176.509 424.363 176.282 424.3 176.056C424.203 175.59 424.131 175.215 424.036 174.857C423.934 174.452 423.836 174.083 423.741 173.733C423.304 172.158 422.879 170.989 422.763 170.703C422.539 170.144 422.783 169.508 423.323 169.24C423.865 168.971 424.516 169.17 424.825 169.687L449.458 211.234C449.709 211.658 449.662 212.198 449.341 212.573C449.019 212.946 448.493 213.075 448.037 212.892C434.826 207.585 425.707 204.45 421.662 203.827C419.064 203.428 417.346 204.527 416.564 207.094C414.281 214.571 420.548 230.636 432.584 236.314C449.701 244.39 467.3 252.019 467.475 252.095C467.669 252.179 467.835 252.314 467.956 252.485L503.7 302.769C503.719 302.797 503.797 302.903 503.812 302.931L522.341 334.204C522.59 334.626 522.547 335.158 522.232 335.533C509.979 350.104 492.477 353.462 491.738 353.597C491.675 353.601 491.606 353.607 491.537 353.607ZM474.504 321.458L492.104 351.15C495.545 350.34 509.694 346.407 519.944 334.658L501.835 304.092L466.271 254.07C463.886 253.035 447.539 245.904 431.605 238.387C418.136 232.032 411.861 214.607 414.366 206.41C415.487 202.741 418.282 200.964 422.017 201.54C425.954 202.147 433.933 204.82 445.754 209.491L426.973 177.807C427.03 178.228 427.081 178.677 427.122 179.139L427.184 179.972C427.231 180.837 427.224 181.582 427.162 182.274C427.165 182.289 427.167 182.39 427.134 182.53C427.108 182.854 427.067 183.178 427.007 183.501C427.004 183.515 426.972 183.662 426.968 183.675C426.938 183.836 426.915 183.984 426.864 184.134C426.839 184.242 426.812 184.349 426.773 184.457C426.764 184.492 426.753 184.529 426.752 184.537C426.615 184.987 426.489 185.312 426.348 185.626C426.331 185.678 426.309 185.729 426.288 185.776C426.18 185.993 426.068 186.181 425.935 186.37C425.497 187.115 424.865 187.754 424.056 188.244C423.757 188.419 423.447 188.582 423.163 188.7C422.871 188.823 422.574 188.921 422.281 188.994C421.399 189.236 420.454 189.284 419.423 189.135C419.098 189.117 418.698 189.034 418.323 188.9C418.054 188.832 417.718 188.739 417.386 188.605C417.157 188.531 416.876 188.402 416.586 188.264C415.925 187.957 415.369 187.652 414.699 187.241L414.376 187.004C414.095 186.833 413.759 186.588 413.425 186.32C413.402 186.31 413.312 186.24 413.218 186.157C413.052 186.038 412.891 185.906 412.732 185.772C412.797 186.222 412.837 186.717 412.86 187.307C412.878 187.442 412.883 187.579 412.883 187.715C413.058 192.282 411.566 195.654 408.566 197.424C407.327 198.149 405.957 198.415 404.582 198.22C404.543 198.217 404.503 198.214 404.476 198.209C404.179 198.164 403.883 198.097 403.612 198.028C403.264 197.929 402.973 197.819 402.681 197.707C402.379 197.59 402.074 197.45 401.77 197.287C401.441 197.132 401.059 196.911 400.583 196.593L400.489 196.528L430.342 246.934C432.713 245.256 436.393 243.6 440.973 244.526C447.017 245.748 452.855 251.156 458.326 260.598C471.771 283.804 474.106 312.682 474.504 321.458Z" fill="#172554"/>
<path d="M508.174 381.65C507.772 381.65 507.392 381.44 507.183 381.087L490.547 353.041C490.355 352.717 490.334 352.319 490.49 351.977C490.647 351.634 490.96 351.388 491.331 351.321C491.503 351.288 508.773 347.957 520.477 334.039C520.719 333.754 521.078 333.6 521.455 333.632C521.826 333.663 522.161 333.87 522.352 334.193L538.968 362.238C539.217 362.658 539.174 363.191 538.859 363.566C526.626 378.117 509.127 381.494 508.388 381.63C508.312 381.646 508.243 381.65 508.174 381.65ZM493.337 353.23L508.738 379.195C512.181 378.381 526.326 374.435 536.559 362.704L521.177 336.743C511.039 348.017 497.873 352.104 493.337 353.23Z" fill="#172554"/>
<path d="M405.47 198.284C405.175 198.284 404.878 198.264 404.585 198.223C404.546 198.22 404.507 198.217 404.479 198.212C404.182 198.167 403.886 198.1 403.615 198.031C403.267 197.932 402.976 197.822 402.684 197.71C402.382 197.593 402.078 197.453 401.773 197.29C401.445 197.135 401.062 196.914 400.586 196.596L400.42 196.482C400.231 196.355 400.048 196.229 399.877 196.076C399.39 195.752 398.79 195.259 398.044 194.565L397.677 194.197C395.683 192.262 394.085 190.062 393.311 188.925C393.154 188.674 393.071 188.554 393.062 188.54C392.968 188.408 392.904 188.256 392.873 188.098L385.033 147.826C384.967 147.487 385.057 147.136 385.277 146.871L390.065 141.106C390.263 140.868 390.547 140.719 390.857 140.693C391.166 140.677 391.47 140.768 391.705 140.969L424.576 169.333C424.755 169.486 424.879 169.689 424.937 169.913C425.156 170.47 425.558 171.617 425.971 173.109C426.073 173.478 426.177 173.866 426.277 174.275C426.378 174.661 426.465 175.082 426.549 175.506C426.623 175.747 426.693 176.079 426.741 176.434C426.901 177.193 427.035 178.131 427.125 179.141L427.187 179.974C427.187 179.981 427.188 179.989 427.188 179.997C427.234 180.839 427.227 181.584 427.165 182.275C427.168 182.29 427.17 182.392 427.138 182.532C427.111 182.856 427.07 183.18 427.01 183.503C427.007 183.517 426.975 183.664 426.972 183.676C426.941 183.838 426.918 183.985 426.867 184.136C426.842 184.243 426.815 184.351 426.776 184.458C426.767 184.494 426.756 184.531 426.755 184.538C426.618 184.988 426.492 185.314 426.351 185.628C426.334 185.68 426.312 185.729 426.291 185.777C426.183 185.993 426.071 186.181 425.938 186.37C425.5 187.115 424.868 187.754 424.059 188.244C423.76 188.419 423.45 188.582 423.166 188.7C422.874 188.823 422.577 188.922 422.284 188.994C421.402 189.236 420.457 189.284 419.426 189.135C419.11 189.091 418.764 189.021 418.42 188.929C418.059 188.831 417.723 188.739 417.389 188.605C417.16 188.531 416.879 188.402 416.589 188.264C415.928 187.957 415.372 187.652 414.702 187.241L414.379 187.004C414.098 186.834 413.762 186.588 413.428 186.32C413.405 186.31 413.315 186.241 413.221 186.158C413.055 186.038 412.894 185.906 412.735 185.772C412.8 186.222 412.84 186.717 412.863 187.307C412.881 187.442 412.886 187.579 412.886 187.715C413.061 192.282 411.569 195.654 408.569 197.424C407.596 197.995 406.553 198.284 405.47 198.284ZM404.768 195.924C404.803 195.927 404.838 195.931 404.866 195.934C405.74 196.066 406.605 195.904 407.401 195.439C409.655 194.11 410.726 191.526 410.581 187.762C410.569 187.702 410.563 187.517 410.56 187.457C410.543 186.93 410.508 186.439 410.435 185.984C410.425 185.924 410.42 185.863 410.42 185.803C410.414 185.757 410.409 185.714 410.406 185.674C410.369 185.452 410.342 185.29 410.322 185.147C410.311 185.108 410.302 185.07 410.296 185.031L410.294 185.033C410.131 184.039 409.921 183.277 409.818 182.911C409.782 182.781 409.758 182.687 409.747 182.639C409.638 182.137 409.873 181.624 410.325 181.379C410.775 181.138 411.334 181.22 411.695 181.587C411.757 181.65 411.854 181.748 411.976 181.894C411.999 181.913 412.047 181.962 412.104 182.029C412.231 182.148 412.328 182.271 412.413 182.375C412.614 182.567 412.98 182.914 413.404 183.298C413.593 183.487 413.76 183.636 413.928 183.77L414.147 183.954C414.295 184.08 414.442 184.209 414.601 184.319C414.659 184.358 414.711 184.403 414.76 184.452C415.129 184.738 415.392 184.933 415.673 185.107L415.997 185.345C416.487 185.64 416.985 185.913 417.423 186.116L417.57 186.184C417.775 186.28 417.971 186.377 418.179 186.445C418.492 186.569 418.741 186.632 418.987 186.7C419.263 186.772 419.515 186.824 419.752 186.857C420.47 186.96 421.104 186.93 421.699 186.766C421.911 186.714 422.095 186.651 422.278 186.575C422.475 186.494 422.685 186.379 422.879 186.265C423.341 185.985 423.714 185.606 424.006 185.116C424.088 184.996 424.137 184.916 424.177 184.842C424.188 184.813 424.2 184.786 424.211 184.759C424.327 184.507 424.43 184.256 424.513 183.987C424.521 183.961 424.59 183.715 424.601 183.69C424.612 183.63 424.635 183.541 424.661 183.458C424.669 183.414 424.681 183.338 424.682 183.329C424.685 183.318 424.716 183.182 424.718 183.171C424.719 183.165 424.751 183.023 424.753 183.016C424.791 182.804 424.825 182.53 424.844 182.257C424.847 182.197 424.856 182.137 424.87 182.08C424.916 181.424 424.919 180.82 424.884 180.132L424.824 179.327C424.744 178.42 424.622 177.572 424.467 176.822C424.421 176.5 424.37 176.272 424.307 176.047C424.211 175.581 424.138 175.206 424.043 174.848C423.942 174.443 423.843 174.074 423.748 173.724C423.378 172.39 423.015 171.347 422.845 170.886L391.085 143.481L387.397 147.923L395.088 187.43C395.131 187.494 395.184 187.576 395.242 187.669C395.94 188.694 397.433 190.75 399.294 192.557L399.645 192.908C400.274 193.494 400.793 193.922 401.299 194.27C401.504 194.442 401.604 194.505 401.706 194.571L401.884 194.694C402.174 194.887 402.486 195.079 402.813 195.236C403.081 195.379 403.297 195.479 403.512 195.562C403.738 195.649 403.967 195.738 404.212 195.809C404.365 195.843 404.565 195.891 404.768 195.924Z" fill="#172554"/>
<path d="M421.846 203.829C421.422 203.829 421.015 203.596 420.812 203.19L411.597 184.66C411.313 184.09 411.546 183.398 412.116 183.115C412.692 182.828 413.378 183.065 413.662 183.633L422.877 202.164C423.161 202.734 422.928 203.425 422.358 203.708C422.193 203.791 422.017 203.829 421.846 203.829Z" fill="#172554"/>
<path d="M495.765 323.974C495.378 323.974 495 323.781 494.781 323.428L471.872 286.275C471.539 285.732 471.708 285.024 472.249 284.689C472.793 284.356 473.501 284.525 473.834 285.066L496.743 322.218C497.077 322.761 496.908 323.469 496.367 323.804C496.18 323.919 495.971 323.974 495.765 323.974Z" fill="#172554"/>
<path d="M537.972 286.823C537.654 286.823 537.338 286.693 537.109 286.436L486.127 228.954C485.704 228.477 485.749 227.749 486.224 227.327C486.702 226.904 487.427 226.947 487.852 227.423L538.836 284.904C539.257 285.382 539.214 286.109 538.737 286.531C538.518 286.726 538.244 286.823 537.972 286.823Z" fill="#172554"/>
<path d="M556.195 269.818C555.917 269.818 555.641 269.72 555.42 269.519L507.557 225.988C507.085 225.561 507.051 224.831 507.48 224.361C507.905 223.888 508.638 223.854 509.108 224.285L556.971 267.815C557.443 268.242 557.477 268.972 557.048 269.444C556.822 269.691 556.509 269.818 556.195 269.818Z" fill="#172554"/>
<path d="M523.868 450.207C523.335 450.207 522.856 449.835 522.742 449.291C522.612 448.669 523.011 448.058 523.633 447.926C523.773 447.896 537.683 444.957 545.997 441.703C546.591 441.473 547.258 441.763 547.49 442.356C547.722 442.949 547.43 443.617 546.837 443.849C538.344 447.174 524.686 450.061 524.108 450.182C524.028 450.199 523.948 450.207 523.868 450.207Z" fill="#172554"/>
<path d="M161.088 125.839C163.985 125.839 166.333 123.491 166.333 120.594C166.333 117.697 163.985 115.349 161.088 115.349C158.191 115.349 155.842 117.697 155.842 120.594C155.842 123.491 158.191 125.839 161.088 125.839Z" fill="#172554"/>
<path d="M186.426 125.839C183.53 125.839 181.181 123.492 181.181 120.594C181.181 117.698 183.528 115.349 186.426 115.349C189.323 115.349 191.671 117.698 191.671 120.594C191.671 123.49 189.322 125.839 186.426 125.839Z" fill="#172554"/>
<path d="M161.088 151.177C163.985 151.177 166.333 148.829 166.333 145.932C166.333 143.035 163.985 140.687 161.088 140.687C158.191 140.687 155.842 143.035 155.842 145.932C155.842 148.829 158.191 151.177 161.088 151.177Z" fill="#172554"/>
<path d="M161.088 176.515C163.985 176.515 166.333 174.167 166.333 171.27C166.333 168.373 163.985 166.025 161.088 166.025C158.191 166.025 155.842 168.373 155.842 171.27C155.842 174.167 158.191 176.515 161.088 176.515Z" fill="#172554"/>
<path d="M161.088 201.853C163.985 201.853 166.333 199.505 166.333 196.608C166.333 193.711 163.985 191.363 161.088 191.363C158.191 191.363 155.842 193.711 155.842 196.608C155.842 199.505 158.191 201.853 161.088 201.853Z" fill="#172554"/>
<path d="M155.842 221.946C155.842 219.049 158.19 216.701 161.088 216.701C163.984 216.701 166.333 219.049 166.333 221.946C166.333 224.842 163.984 227.191 161.088 227.191C158.19 227.191 155.842 224.842 155.842 221.946Z" fill="#172554"/>
<path d="M186.426 151.177C183.53 151.177 181.181 148.83 181.181 145.932C181.181 143.034 183.528 140.687 186.426 140.687C189.323 140.687 191.671 143.034 191.671 145.932C191.671 148.828 189.322 151.177 186.426 151.177Z" fill="#172554"/>
<path d="M181.181 171.27C181.181 168.374 183.528 166.025 186.426 166.025C189.323 166.025 191.671 168.374 191.671 171.27C191.671 174.166 189.322 176.515 186.426 176.515C183.528 176.515 181.181 174.166 181.181 171.27Z" fill="#172554"/>
<path d="M181.181 196.608C181.181 193.712 183.528 191.363 186.426 191.363C189.323 191.363 191.671 193.711 191.671 196.608C191.671 199.506 189.322 201.853 186.426 201.853C183.528 201.853 181.181 199.504 181.181 196.608Z" fill="#172554"/>
<path d="M181.181 221.946C181.181 219.049 183.528 216.701 186.426 216.701C189.323 216.701 191.671 219.049 191.671 221.946C191.671 224.842 189.322 227.191 186.426 227.191C183.528 227.191 181.181 224.842 181.181 221.946Z" fill="#172554"/>
<path d="M161.088 252.528C163.985 252.528 166.333 250.18 166.333 247.283C166.333 244.386 163.985 242.038 161.088 242.038C158.191 242.038 155.842 244.386 155.842 247.283C155.842 250.18 158.191 252.528 161.088 252.528Z" fill="#172554"/>
<path d="M181.181 247.283C181.181 244.387 183.528 242.038 186.426 242.038C189.323 242.038 191.671 244.387 191.671 247.283C191.671 250.179 189.322 252.528 186.426 252.528C183.528 252.528 181.181 250.18 181.181 247.283Z" fill="#172554"/>
<path d="M548.965 126.09C546.069 126.09 543.72 123.74 543.72 120.844C543.72 117.948 546.069 115.599 548.965 115.599C551.861 115.599 554.21 117.948 554.21 120.844C554.21 123.74 551.863 126.09 548.965 126.09Z" fill="#172554"/>
<path d="M574.303 126.09C571.407 126.09 569.058 123.74 569.058 120.844C569.058 117.948 571.407 115.599 574.303 115.599C577.199 115.599 579.548 117.948 579.548 120.844C579.548 123.74 577.201 126.09 574.303 126.09Z" fill="#172554"/>
<path d="M548.965 151.428C551.862 151.428 554.21 149.079 554.21 146.183C554.21 143.286 551.862 140.937 548.965 140.937C546.068 140.937 543.72 143.286 543.72 146.183C543.72 149.079 546.068 151.428 548.965 151.428Z" fill="#172554"/>
<path d="M548.965 176.764C551.862 176.764 554.21 174.416 554.21 171.519C554.21 168.622 551.862 166.274 548.965 166.274C546.068 166.274 543.72 168.622 543.72 171.519C543.72 174.416 546.068 176.764 548.965 176.764Z" fill="#172554"/>
<path d="M548.965 202.102C551.862 202.102 554.21 199.754 554.21 196.857C554.21 193.96 551.862 191.612 548.965 191.612C546.068 191.612 543.72 193.96 543.72 196.857C543.72 199.754 546.068 202.102 548.965 202.102Z" fill="#172554"/>
<path d="M574.303 151.428C577.2 151.428 579.548 149.079 579.548 146.183C579.548 143.286 577.2 140.937 574.303 140.937C571.406 140.937 569.058 143.286 569.058 146.183C569.058 149.079 571.406 151.428 574.303 151.428Z" fill="#172554"/>
<path d="M574.303 176.764C577.2 176.764 579.548 174.416 579.548 171.519C579.548 168.622 577.2 166.274 574.303 166.274C571.406 166.274 569.058 168.622 569.058 171.519C569.058 174.416 571.406 176.764 574.303 176.764Z" fill="#172554"/>
<path d="M574.303 202.102C577.2 202.102 579.548 199.754 579.548 196.857C579.548 193.96 577.2 191.612 574.303 191.612C571.406 191.612 569.058 193.96 569.058 196.857C569.058 199.754 571.406 202.102 574.303 202.102Z" fill="#172554"/>
<path d="M522.801 125.214C525.697 125.214 528.046 122.865 528.046 119.969C528.046 117.072 525.697 114.723 522.801 114.723C519.904 114.723 517.555 117.072 517.555 119.969C517.555 122.865 519.904 125.214 522.801 125.214Z" fill="#172554"/>
<path d="M522.801 150.554C525.697 150.554 528.046 148.205 528.046 145.308C528.046 142.412 525.697 140.063 522.801 140.063C519.904 140.063 517.555 142.412 517.555 145.308C517.555 148.205 519.904 150.554 522.801 150.554Z" fill="#172554"/>
<path d="M522.801 175.89C525.697 175.89 528.046 173.542 528.046 170.645C528.046 167.748 525.697 165.4 522.801 165.4C519.904 165.4 517.555 167.748 517.555 170.645C517.555 173.542 519.904 175.89 522.801 175.89Z" fill="#172554"/>
<path d="M517.555 195.983C517.555 193.087 519.904 190.738 522.801 190.738C525.697 190.738 528.046 193.087 528.046 195.983C528.046 198.88 525.697 201.228 522.801 201.228C519.904 201.228 517.555 198.88 517.555 195.983Z" fill="#172554"/>
<path d="M552.053 13.4664C552.053 15.0827 550.746 16.3902 549.131 16.3902H541.512V24.0091C541.512 25.6254 540.205 26.9328 538.59 26.9328C537.782 26.9328 537.054 26.6041 536.521 26.0786C535.995 25.547 535.666 24.8172 535.666 24.0091V16.3902H528.047C526.431 16.3902 525.124 15.0827 525.124 13.4664C525.124 12.6583 525.452 11.93 525.978 11.3969C526.509 10.8715 527.239 10.5427 528.047 10.5427H535.666V2.92374C535.666 1.30746 536.974 0 538.588 0C539.397 0 540.125 0.328786 540.658 0.85423C541.183 1.38582 541.512 2.1156 541.512 2.92374V10.5427H549.131C550.747 10.5442 552.053 11.8517 552.053 13.4664Z" fill="#172554"/>
<path d="M545.833 46.2836C540.755 46.2836 540.747 54.1745 545.833 54.1745C550.91 54.176 550.918 46.2836 545.833 46.2836Z" fill="#172554"/>
<path d="M582.047 14.2637C576.969 14.2637 576.961 22.1546 582.047 22.1546C587.124 22.1546 587.132 14.2637 582.047 14.2637Z" fill="#172554"/>
<path d="M674.433 142.381C674.433 143.998 673.125 145.304 671.511 145.304H663.892V152.923C663.892 154.539 662.584 155.845 660.969 155.845C660.161 155.845 659.433 155.516 658.9 154.991C658.374 154.459 658.046 153.729 658.046 152.921V145.302H650.427C648.81 145.302 647.503 143.995 647.503 142.38C647.503 141.572 647.832 140.844 648.357 140.31C648.889 139.785 649.619 139.456 650.427 139.456H658.046V131.837C658.046 130.221 659.353 128.915 660.968 128.915C661.776 128.915 662.504 129.244 663.037 129.769C663.563 130.301 663.892 131.031 663.892 131.839V139.458H671.511C673.125 139.459 674.433 140.767 674.433 142.381Z" fill="#172554"/>
<path d="M631.208 166.066C626.13 166.066 626.121 173.957 631.208 173.957C636.286 173.959 636.293 166.066 631.208 166.066Z" fill="#172554"/>
<path d="M635.49 108.309C630.412 108.309 630.404 116.2 635.49 116.2C640.568 116.2 640.575 108.309 635.49 108.309Z" fill="#172554"/>
<path d="M205.136 48.1181C205.136 49.7344 203.829 51.0419 202.214 51.0419H194.595V58.6608C194.595 60.2771 193.287 61.5846 191.673 61.5846C190.865 61.5846 190.136 61.2558 189.603 60.7303C189.078 60.1987 188.749 59.469 188.749 58.6608V51.0419H181.13C179.514 51.0419 178.206 49.7344 178.206 48.1181C178.206 47.31 178.535 46.5818 179.06 46.0486C179.592 45.5232 180.322 45.1944 181.13 45.1944H188.749V37.5755C188.749 35.9592 190.056 34.6533 191.673 34.6533C192.481 34.6533 193.209 34.982 193.742 35.5075C194.268 36.0391 194.596 36.7689 194.596 37.577V45.1959H202.215C203.829 45.1959 205.136 46.5034 205.136 48.1181Z" fill="#172554"/>
<path d="M157.536 38.3866C152.458 38.3866 152.45 46.2775 157.536 46.2775C162.613 46.279 162.623 38.3866 157.536 38.3866Z" fill="#172554"/>
<path d="M212.819 10.7455C207.742 10.7455 207.732 18.6364 212.819 18.6364C217.897 18.6364 217.905 10.7455 212.819 10.7455Z" fill="#172554"/>
<path d="M85.1411 172.476C85.1411 174.092 83.8336 175.398 82.2189 175.398H74.6V183.017C74.6 184.634 73.2925 185.94 71.6762 185.94C70.8681 185.94 70.1398 185.611 69.6067 185.085C69.0813 184.554 68.7525 183.824 68.7525 183.016V175.397H61.1336C59.5173 175.397 58.2098 174.089 58.2098 172.475C58.2098 171.666 58.5386 170.938 59.064 170.405C59.5956 169.88 60.3254 169.551 61.1336 169.551H68.7525V161.932C68.7525 160.316 70.0599 159.01 71.6762 159.01C72.4844 159.01 73.2126 159.339 73.7457 159.864C74.2712 160.396 74.6 161.125 74.6 161.934V169.552H82.2189C83.8352 169.552 85.1411 170.86 85.1411 172.476Z" fill="#172554"/>
<path d="M36.4408 163.432C31.363 163.432 31.3538 171.322 36.4408 171.322C41.5185 171.322 41.5262 163.432 36.4408 163.432Z" fill="#172554"/>
</svg>
