<svg width="314" height="449" viewBox="0 0 314 449" fill="none" xmlns="http://www.w3.org/2000/svg">
<path d="M312.412 447.688H175.819L138.858 308.362C138.858 308.362 101.28 268.669 83.4071 240.265C65.5159 211.842 58.5945 202.407 57.0581 193.131C55.7015 184.833 45.9485 124.616 43.8728 111.791C43.6332 110.414 44.0726 108.997 45.0297 108C45.1895 107.801 45.3693 107.641 45.5875 107.483C49.8955 104.232 60.3875 99.9036 72.316 120.488C86.0589 144.204 88.0531 174.143 88.3527 181.105L93.22 189.323L106.524 211.762L123.16 239.807C123.16 239.807 140.853 236.536 152.959 222.134L136.343 194.089L123.04 171.65L117.814 162.814L117.755 162.734L82.0106 112.45C82.0106 112.45 64.4174 104.831 47.0839 96.6526C29.7504 88.4744 24.2056 60.0513 36.8316 61.9856C41.619 62.7231 52.1908 66.5932 63.4602 71.121C81.8108 78.4618 101.976 87.4973 101.976 87.4973C109.874 80.2963 123.319 84.446 123.319 84.446C123.319 84.446 132.754 79.4589 142.188 80.8355C151.603 82.2321 194.726 122.842 201.508 136.287C208.309 149.73 224.246 276.21 224.246 276.21L312.412 447.688Z" fill="white"/>
<path d="M54.9194 72.3455C54.6275 74.5303 54.0083 77.0807 52.6609 79.1748C51.186 81.4686 48.2546 82.3244 45.741 81.2873L33.5206 76.2618C31.153 75.2785 29.7334 72.8571 30.0238 70.3252C30.2604 68.3033 30.8258 65.9542 32.0995 64.0245C33.5191 61.8582 36.2508 61.0009 38.6921 61.8582L51.1491 66.2107C53.6995 67.1018 55.2651 69.6691 54.9194 72.3455Z" fill="#172554"/>
<path d="M60.0231 129.857C56.7721 132.509 51.7051 132.666 49.0226 132.54C47.9655 132.492 47.0975 131.704 46.9239 130.662L44.0677 113.017C43.9417 112.196 44.2721 111.376 44.9205 110.87C48.3297 108.234 52.4641 108.234 54.4844 108.44C55.2741 108.518 55.9686 108.976 56.3158 109.703C58.5098 114.423 60.2766 124.381 60.8297 127.758C60.9541 128.563 60.6392 129.353 60.0231 129.857Z" fill="#172554"/>
<path d="M123.041 171.651C110.914 186.052 93.2213 189.324 93.2213 189.324L88.3541 181.106C88.0545 174.145 86.0602 144.205 72.3172 120.49C60.3887 99.9052 49.8983 104.233 45.5888 107.484C45.3691 107.644 45.1893 107.804 45.0311 108.002L9.24707 47.5851C9.84472 48.4624 11.4211 50.6963 13.4752 52.6921L13.8148 53.0316C14.3925 53.5694 14.9917 54.0887 15.6293 54.5281C15.809 54.6878 16.0087 54.8077 16.2069 54.9475C16.5664 55.1872 16.9244 55.4069 17.3039 55.5851C17.5636 55.7249 17.8232 55.8447 18.0813 55.9446C18.3409 56.0445 18.5991 56.1443 18.8787 56.2242C19.1184 56.2842 19.378 56.3441 19.6361 56.384C19.6361 56.384 19.6561 56.384 19.6761 56.384C19.9357 56.424 20.1938 56.4439 20.4535 56.4439C21.2908 56.4439 22.1481 56.2242 22.967 55.7464C26.1781 53.852 26.8372 50.1616 26.7173 47.0305C26.7173 46.9306 26.7173 46.8308 26.6973 46.7309C26.6774 46.1517 26.6374 45.614 26.5575 45.1146C26.5575 45.0148 26.5376 44.9349 26.5376 44.855C26.4976 44.6153 26.4577 44.3956 26.4377 44.1974C26.4177 44.1774 26.4177 44.1575 26.4177 44.1575C26.198 42.8208 25.8984 41.8836 25.8585 41.7038C25.8984 41.7438 25.9783 41.8237 26.0782 41.9435C26.1381 42.0035 26.198 42.0634 26.258 42.1432C26.3379 42.2231 26.4177 42.323 26.4976 42.4029C26.7972 42.7025 27.1752 43.0605 27.6146 43.4599C27.7943 43.6597 27.9941 43.8195 28.1938 43.9792C28.4335 44.179 28.6716 44.3987 28.9313 44.5769C28.9912 44.6368 29.0711 44.6967 29.131 44.7367C29.4306 44.9763 29.7286 45.1961 30.0482 45.3943C30.1281 45.4542 30.208 45.5141 30.2879 45.574C30.8072 45.8936 31.3649 46.2116 31.9241 46.4712C32.2237 46.6111 32.5018 46.7509 32.8014 46.8507C33.101 46.9706 33.3991 47.0505 33.6987 47.1304C33.9783 47.2302 34.2764 47.2902 34.576 47.3101C35.3933 47.43 36.1922 47.41 36.9896 47.1903C37.2293 47.1304 37.4674 47.0505 37.7071 46.9506C37.9468 46.8508 38.2064 46.7109 38.4445 46.5711C39.1021 46.1717 39.6014 45.6539 39.9809 45.0148C40.0808 44.8749 40.1607 44.7351 40.2406 44.5754C40.2406 44.5554 40.2406 44.5554 40.2406 44.5554C40.3804 44.2558 40.5002 43.9577 40.6001 43.6382C40.6401 43.5583 40.66 43.4983 40.66 43.4185C40.7599 43.1588 40.8198 42.8807 40.8598 42.6011C40.9197 42.2815 40.9596 41.9635 40.9796 41.6439C40.9996 41.604 40.9996 41.5441 40.9996 41.4841C41.0595 40.8066 41.0595 40.1075 41.0196 39.3701C40.9996 39.0905 40.9796 38.8108 40.9596 38.5527C40.8798 37.6555 40.7599 36.7582 40.5801 35.8994C40.5402 35.5998 40.4803 35.3217 40.4004 35.0421C40.3205 34.6426 40.2406 34.2447 40.1407 33.8652C40.0409 33.4657 39.941 33.0878 39.8412 32.7283C39.3818 31.0721 38.9439 29.8752 38.824 29.5771L63.4584 71.1256C52.1891 66.5979 41.6172 62.7277 36.8298 61.9903C24.2038 60.056 29.7486 88.4791 47.0821 96.6573C64.4156 104.835 82.0088 112.454 82.0088 112.454L117.753 162.739L117.813 162.819L123.041 171.651Z" fill="#E6AC4B"/>
<path d="M136.346 194.09C124.219 208.511 106.526 211.763 106.526 211.763L93.2229 189.324C93.2229 189.324 110.916 186.053 123.043 171.651L136.346 194.09Z" fill="#C7C7C7"/>
<path d="M152.961 222.135C140.853 236.536 123.161 239.808 123.161 239.808L106.525 211.763C106.525 211.763 124.218 208.512 136.345 194.09L152.961 222.135Z" fill="white"/>
<path d="M41.0226 39.3668C41.0626 40.1043 41.0626 40.8034 41.0027 41.4809C41.0027 41.5408 41.0027 41.6007 40.9827 41.6407C40.9627 41.9603 40.9228 42.2783 40.8628 42.5979C40.8429 42.6778 40.8229 42.7776 40.8029 42.8575C40.7829 42.9574 40.7829 43.0373 40.743 43.1172C40.723 43.217 40.703 43.3169 40.6631 43.4168C40.6431 43.4967 40.6231 43.5566 40.6032 43.6365C40.5033 43.956 40.3835 44.2541 40.2437 44.5537C40.2437 44.5537 40.2437 44.5537 40.2437 44.5736C40.1638 44.7334 40.0839 44.8733 39.984 45.0131C39.6045 45.6507 39.1068 46.17 38.4477 46.5694C38.208 46.7092 37.9483 46.849 37.7102 46.9489C37.472 47.0488 37.2324 47.1287 36.9927 47.1886C36.1953 47.4083 35.3964 47.4282 34.579 47.3084C34.2994 47.2685 34.0014 47.2086 33.7018 47.1287C33.4022 47.0488 33.1041 46.9689 32.8045 46.849C32.5049 46.7492 32.2268 46.6094 31.9272 46.4696C31.3695 46.2099 30.8103 45.8919 30.291 45.5723C30.2111 45.5124 30.1312 45.4525 30.0513 45.3925C29.7317 45.1928 29.4337 44.9731 29.1341 44.735C29.0741 44.695 28.9942 44.6351 28.9343 44.5752C28.6747 44.3954 28.4366 44.1757 28.1969 43.9775C27.9972 43.8177 27.7974 43.638 27.6177 43.4582C27.1782 43.0588 26.8003 42.7008 26.5007 42.4012C26.4208 42.3013 26.3409 42.2015 26.261 42.1416C26.2011 42.0617 26.1412 42.0017 26.0813 41.9418C25.9814 41.822 25.9015 41.7421 25.8616 41.7022C25.9015 41.8819 26.2011 42.8191 26.4208 44.1558C26.4208 44.1558 26.4208 44.1757 26.4408 44.1957C26.4608 44.3954 26.5007 44.6151 26.5407 44.8533C26.5407 44.9332 26.5606 45.013 26.5606 45.1129C26.6405 45.6122 26.6805 46.15 26.7005 46.7292C26.7204 46.8291 26.7204 46.9289 26.7204 47.0288C26.8403 50.16 26.1827 53.8504 22.9701 55.7447C22.1527 56.2241 21.2939 56.4422 20.4566 56.4422C20.1969 56.4422 19.9373 56.4223 19.6792 56.3823C19.6592 56.3823 19.6392 56.3823 19.6392 56.3823C19.3796 56.3424 19.1199 56.2824 18.8818 56.2225C18.6021 56.1426 18.344 56.0428 18.0844 55.9429C17.8247 55.843 17.5651 55.7232 17.307 55.5834C16.9275 55.4036 16.5695 55.1839 16.21 54.9458C16.0103 54.806 15.8105 54.6862 15.6323 54.5264C14.9947 54.087 14.3955 53.5692 13.8178 53.0299L13.4783 52.6904C11.4241 50.6962 9.84784 48.4622 9.25018 47.5834C9.0904 47.3238 8.99052 47.184 8.99052 47.184L3.20605 17.4841C6.47702 15.7096 11.3043 12.4371 13.5782 7.7511L38.8102 29.5125C38.8102 29.5125 38.8102 29.5324 38.8302 29.5724C38.95 29.872 39.3895 31.0688 39.8473 32.7235C39.9472 33.083 40.047 33.461 40.1469 33.8604C40.2467 34.2399 40.3266 34.6378 40.4065 35.0373C40.4864 35.3169 40.5464 35.595 40.5863 35.8946C40.7661 36.7519 40.8859 37.6507 40.9658 38.5479C40.9827 38.8276 41.0027 39.1072 41.0226 39.3668Z" fill="white"/>
<path d="M13.5767 7.75268C11.3028 12.4402 6.47551 15.7111 3.20455 17.4857L1.15039 6.91381L5.93776 1.14929L13.5767 7.75268Z" fill="#172554"/>
<path d="M175.818 448.84C175.309 448.84 174.842 448.499 174.705 447.983L137.82 308.94C134.813 305.744 99.4839 267.978 82.4316 240.879C79.3235 235.941 76.5457 231.575 74.0706 227.685C62.159 208.964 57.2287 201.216 55.9212 193.319C54.5646 185.021 44.8116 124.801 42.736 111.975C42.4379 110.257 42.9834 108.469 44.1987 107.205C44.3492 107.011 44.5966 106.78 44.9131 106.55C47.2607 104.779 51.1016 102.855 55.9597 103.838C62.0038 105.06 67.8421 110.468 73.3131 119.91C86.7581 143.113 89.0934 171.991 89.4913 180.765L123.725 238.503C127.167 237.688 141.314 233.743 151.546 222.011L116.82 163.401L81.2563 113.379C78.8718 112.344 62.5246 105.213 46.5908 97.6958C33.1213 91.3413 26.8467 73.9157 29.351 65.719C30.4726 62.0502 33.2672 60.2726 37.0022 60.8487C41.2795 61.5078 50.3242 64.6052 63.8859 70.0532C80.1823 76.5721 98.1135 84.5183 101.772 86.1484C109.338 79.906 120.749 82.5486 123.2 83.2154C125.188 82.2429 133.682 78.4296 142.351 79.6971C152.841 81.2534 195.966 122.751 202.534 135.769C209.276 149.093 224.412 268.339 225.362 275.866L313.43 447.164C313.721 447.729 313.498 448.424 312.932 448.715C312.369 449.007 311.673 448.783 311.381 448.218L223.218 276.74C223.157 276.62 223.117 276.491 223.1 276.358C222.942 275.095 207.111 149.924 200.475 136.811C193.654 123.286 151.036 83.3168 142.013 81.9786C133.051 80.6758 123.942 85.4217 123.853 85.4677C123.581 85.6106 123.267 85.6398 122.975 85.5507C122.846 85.5108 110.057 81.6882 102.747 88.3531C102.409 88.6604 101.919 88.7418 101.5 88.5528C101.298 88.4622 81.1456 79.4421 63.027 72.1949C49.8141 66.8867 40.6957 63.7525 36.6504 63.1287C34.0523 62.7292 32.3347 63.8278 31.5526 66.3951C29.2696 73.8726 35.5365 89.9371 47.5725 95.6156C64.6894 103.691 82.2887 111.321 82.4638 111.397C82.6574 111.48 82.8234 111.615 82.9448 111.786L118.689 162.07C118.707 162.098 118.786 162.204 118.801 162.232L153.946 221.552C154.195 221.971 154.152 222.504 153.837 222.879C141.604 237.43 124.105 240.807 123.366 240.944C122.883 241.038 122.41 240.815 122.164 240.4L87.3572 181.696C87.2604 181.535 87.2052 181.347 87.1975 181.158C86.841 172.879 84.6471 144.079 71.3143 121.07C66.1889 112.224 60.8669 107.188 55.4972 106.101C51.4842 105.289 48.2654 106.906 46.2789 108.408C46.1099 108.53 46.0069 108.623 45.9209 108.73C45.1466 109.543 44.8286 110.588 45.0037 111.6C47.0809 124.438 56.8339 184.654 58.1905 192.952C59.4196 200.382 64.2761 208.014 76.0095 226.456C78.4862 230.347 81.267 234.717 84.3767 239.659C101.984 267.639 139.315 307.18 139.69 307.577C139.822 307.717 139.915 307.887 139.966 308.073L176.927 447.399C177.091 448.013 176.724 448.645 176.11 448.808C176.016 448.828 175.916 448.84 175.818 448.84Z" fill="#172554"/>
<path d="M106.525 212.915C106.122 212.915 105.743 212.705 105.532 212.352L87.3616 181.693C87.2648 181.53 87.2095 181.344 87.2018 181.155C86.8454 172.876 84.6514 144.076 71.3186 121.067C66.1932 112.221 60.8712 107.184 55.5016 106.098C51.4885 105.285 48.2698 106.903 46.2833 108.404C46.1143 108.527 46.0113 108.619 45.9253 108.727C45.6871 109.02 45.3153 109.18 44.9451 109.153C44.5686 109.125 44.2275 108.916 44.0355 108.59L8.25306 48.1734C7.93657 47.6372 8.10098 46.9474 8.62642 46.614C9.15494 46.2775 9.84785 46.4235 10.1966 46.9382C10.9218 48.0029 12.4136 50.0601 14.2742 51.8669L14.626 52.2187C15.2544 52.8041 15.7737 53.2327 16.2791 53.58C16.485 53.752 16.5849 53.815 16.6863 53.8811L16.8645 54.004C17.1549 54.1976 17.4668 54.3897 17.7941 54.5464C18.0614 54.6893 18.278 54.7891 18.4931 54.8721C18.7189 54.9596 18.9479 55.0488 19.1922 55.1194C19.3489 55.1578 19.547 55.2055 19.7498 55.2393C19.7852 55.2423 19.8206 55.2454 19.8482 55.2485C20.7224 55.3806 21.5874 55.2193 22.3832 54.7538C24.6371 53.4248 25.7079 50.8406 25.5635 47.0764C25.5512 47.0165 25.5451 46.8322 25.542 46.7722C25.5251 46.2453 25.4898 45.7536 25.4176 45.2989C25.4069 45.2389 25.4022 45.1775 25.4022 45.1176C25.3961 45.0715 25.3915 45.0285 25.3884 44.9885C25.3515 44.7673 25.3239 44.6044 25.3039 44.4615C25.2932 44.4231 25.2839 44.3847 25.2778 44.3463L25.2762 44.3478C25.1134 43.3538 24.9029 42.5917 24.8 42.2261C24.7646 42.0955 24.74 42.0018 24.7293 41.9541C24.6202 41.4517 24.8553 40.9386 25.307 40.6943C25.7571 40.4531 26.3164 40.5345 26.6774 40.9017C26.7389 40.9647 26.8357 41.0631 26.9586 41.209C26.9816 41.2274 27.0293 41.2766 27.0861 41.3442C27.2136 41.4625 27.3104 41.5854 27.3949 41.6899C27.5962 41.8819 27.9618 42.2292 28.3859 42.6132C28.604 42.8452 28.7577 42.9636 28.9098 43.0849L29.1295 43.2693C29.277 43.3953 29.4245 43.5243 29.5827 43.6334C29.6411 43.6734 29.6933 43.7179 29.7425 43.7671C30.1112 44.0529 30.374 44.248 30.6551 44.4216L30.9793 44.6597C31.4694 44.9547 31.9672 45.2282 32.405 45.431L32.5526 45.4986C32.7569 45.5954 32.9535 45.6922 33.161 45.7598C33.4744 45.8842 33.7233 45.9472 33.9691 46.0148C34.2549 46.1116 34.4515 46.15 34.6497 46.1638C35.4456 46.276 36.0816 46.2484 36.6793 46.0824C36.8913 46.0302 37.0757 45.9672 37.2585 45.8919C37.4551 45.8105 37.6657 45.6952 37.8592 45.5816C38.3217 45.3019 38.695 44.9224 38.9869 44.4323C39.0683 44.3125 39.1175 44.2326 39.1575 44.1589C39.1682 44.1297 39.1805 44.102 39.1913 44.0759C39.3081 43.8239 39.411 43.572 39.494 43.3031C39.5016 43.277 39.5708 43.0312 39.5815 43.0066C39.5923 42.9467 39.6153 42.8575 39.6415 42.7746C39.6491 42.73 39.6614 42.6547 39.6629 42.6455C39.666 42.6348 39.6968 42.498 39.6983 42.4873C39.6998 42.4811 39.7321 42.3398 39.7336 42.3321C39.772 42.1201 39.8058 41.8466 39.8243 41.5731C39.8273 41.5132 39.8366 41.4533 39.8504 41.3964C39.898 40.7373 39.8995 40.1305 39.8627 39.4391L39.8043 38.6448C39.7244 37.7383 39.603 36.8902 39.4479 36.1405C39.4018 35.8178 39.3511 35.5904 39.2881 35.3646C39.1913 34.8991 39.1191 34.5242 39.0238 34.1662C38.9224 33.7606 38.8241 33.3919 38.7288 33.0416C38.2925 31.4668 37.8669 30.2976 37.7517 30.0118C37.5274 29.4526 37.7717 28.8165 38.311 28.5492C38.8533 28.2803 39.5047 28.4785 39.8135 28.9963L64.4464 70.5432C64.6968 70.9672 64.6507 71.5065 64.3296 71.8814C64.007 72.2547 63.4816 72.3838 63.0253 72.201C49.8139 66.8943 40.6954 63.7585 36.6501 63.1363C34.0521 62.7368 32.3344 63.8354 31.5524 66.4027C29.2693 73.8802 35.5362 89.9447 47.5723 95.6232C64.6891 103.698 82.2884 111.328 82.4636 111.403C82.6572 111.488 82.8231 111.623 82.9445 111.794L118.688 162.078C118.707 162.106 118.785 162.212 118.801 162.239L137.329 193.512C137.578 193.935 137.535 194.467 137.22 194.841C124.968 209.413 107.465 212.771 106.726 212.906C106.663 212.909 106.594 212.915 106.525 212.915ZM89.4926 180.767L107.092 210.459C110.533 209.649 124.682 205.716 134.933 193.967L116.823 163.401L81.259 113.379C78.8746 112.344 62.5275 105.213 46.5936 97.6958C33.1241 91.3413 26.8495 73.9156 29.3538 65.719C30.4754 62.0501 33.2701 60.2725 37.005 60.8486C40.9428 61.4555 48.9212 64.1288 60.7421 68.7994L41.9614 37.1161C42.0182 37.537 42.0689 37.9857 42.1104 38.4481L42.1719 39.2808C42.2195 40.1458 42.2118 40.891 42.1504 41.5823C42.1534 41.5977 42.155 41.6991 42.1227 41.8389C42.0966 42.1631 42.0551 42.4873 41.9952 42.8099C41.9921 42.8237 41.9598 42.9712 41.9568 42.9835C41.926 43.1449 41.903 43.2923 41.8523 43.4429C41.8277 43.5505 41.8001 43.658 41.7617 43.7655C41.7525 43.8009 41.7417 43.8377 41.7402 43.8454C41.6034 44.2956 41.4774 44.6213 41.3361 44.9347C41.3192 44.987 41.2977 45.0377 41.2762 45.0853C41.1686 45.3019 41.0564 45.4894 40.9228 45.6784C40.4849 46.4235 39.8535 47.0626 39.0438 47.5527C38.7457 47.7279 38.4354 47.8907 38.1512 48.009C37.8593 48.132 37.5627 48.2303 37.2693 48.3025C36.3874 48.5452 35.4425 48.5929 34.4116 48.4439C34.0859 48.4254 33.6864 48.3425 33.3116 48.2088C33.0427 48.1412 32.7062 48.0475 32.3743 47.9138C32.1454 47.8401 31.8643 47.711 31.5739 47.5727C30.9132 47.2654 30.3571 46.9612 29.6872 46.5495L29.3646 46.3129C29.0834 46.1423 28.7469 45.8965 28.4135 45.6292C28.3905 45.6184 28.2998 45.5493 28.2061 45.4663C28.0402 45.3465 27.8789 45.2144 27.7206 45.0807C27.7852 45.5308 27.8251 46.0256 27.8481 46.6155C27.8666 46.7508 27.8712 46.8875 27.8712 47.0242C28.0463 51.5904 26.5545 54.9627 23.554 56.7326C22.3156 57.4578 20.9452 57.7236 19.5701 57.5285C19.5317 57.5254 19.4918 57.5223 19.4641 57.5177C19.1676 57.4732 18.871 57.4056 18.6006 57.3364C18.2519 57.2381 17.9615 57.1275 17.6696 57.0153C17.3669 56.8986 17.0627 56.7588 16.7585 56.5959C16.4297 56.4407 16.0471 56.2195 15.5709 55.9015L15.4772 55.8369L45.3307 106.243C47.7013 104.565 51.381 102.909 55.9609 103.835C62.0051 105.057 67.8433 110.465 73.3144 119.907C86.7593 143.113 89.0946 171.991 89.4926 180.767Z" fill="#172554"/>
<path d="M123.163 240.959C122.76 240.959 122.381 240.749 122.172 240.395L105.536 212.35C105.344 212.026 105.322 211.628 105.479 211.285C105.635 210.943 105.949 210.697 106.319 210.629C106.491 210.597 123.762 207.266 135.466 193.348C135.707 193.062 136.067 192.909 136.443 192.941C136.815 192.972 137.15 193.179 137.34 193.502L153.956 221.547C154.205 221.966 154.162 222.5 153.847 222.874C141.615 237.426 124.115 240.802 123.376 240.939C123.301 240.955 123.232 240.959 123.163 240.959ZM108.326 212.539L123.726 238.504C127.169 237.69 141.315 233.744 151.547 222.012L136.165 196.052C126.028 207.326 112.861 211.413 108.326 212.539Z" fill="#172554"/>
<path d="M20.4582 57.5931C20.1632 57.5931 19.8667 57.5731 19.5732 57.5316C19.5348 57.5286 19.4949 57.5255 19.4672 57.5209C19.1707 57.4763 18.8741 57.4087 18.6037 57.3396C18.255 57.2413 17.9646 57.1306 17.6727 57.0185C17.37 56.9017 17.0659 56.7619 16.7616 56.5991C16.4329 56.4439 16.0503 56.2226 15.574 55.9046L15.4081 55.7909C15.2191 55.6634 15.0363 55.5374 14.8657 55.3853C14.3787 55.0611 13.778 54.568 13.0328 53.8735L12.6656 53.5063C10.6714 51.5705 9.07353 49.3704 8.2992 48.2334C8.14248 47.983 8.05954 47.8632 8.05032 47.8493C7.9566 47.7172 7.8921 47.5651 7.86137 47.4069L0.0211496 7.13511C-0.044915 6.79557 0.0457734 6.44529 0.265477 6.17949L5.05285 0.414975C5.25104 0.176835 5.53526 0.0277866 5.84561 0.00166805C6.15443 -0.0136958 6.45863 0.0769631 6.6937 0.27823L39.5647 28.6414C39.7429 28.7951 39.8673 28.9979 39.9257 29.2222C40.1439 29.7784 40.5464 30.9261 40.9597 32.4179C41.0611 32.7866 41.1656 33.1753 41.2654 33.584C41.3668 33.9696 41.4529 34.3906 41.5374 34.8146C41.6111 35.0559 41.6818 35.3877 41.7294 35.7426C41.8892 36.5016 42.0229 37.4403 42.1135 38.4497L42.175 39.2824C42.175 39.2901 42.1765 39.2978 42.1765 39.3055C42.2226 40.1474 42.2149 40.8926 42.1535 41.5839C42.1565 41.5993 42.1581 41.7007 42.1258 41.8405C42.0997 42.1647 42.0582 42.4889 41.9983 42.8115C41.9952 42.8254 41.963 42.9728 41.9599 42.9851C41.9292 43.1465 41.9061 43.2939 41.8554 43.4445C41.8308 43.5521 41.8032 43.6596 41.7648 43.7672C41.7555 43.8025 41.7448 43.8394 41.7432 43.8471C41.6065 44.2972 41.4805 44.6229 41.3392 44.9364C41.3223 44.9886 41.3008 45.0378 41.2793 45.0854C41.1717 45.302 41.0596 45.4895 40.9259 45.6784C40.488 46.4236 39.8566 47.0627 39.0469 47.5528C38.7488 47.728 38.4385 47.8908 38.1543 48.0091C37.8623 48.132 37.5658 48.2304 37.2724 48.3026C36.3905 48.5453 35.4456 48.593 34.4147 48.4439C34.0982 48.3994 33.7525 48.3302 33.4084 48.238C33.0473 48.1397 32.7109 48.0475 32.3775 47.9139C32.1486 47.8401 31.8674 47.7111 31.577 47.5728C30.9163 47.2655 30.3602 46.9613 29.6903 46.5496L29.3677 46.3129C29.0865 46.1424 28.7501 45.8966 28.4167 45.6293C28.3936 45.6185 28.303 45.5494 28.2092 45.4664C28.0433 45.3466 27.882 45.2144 27.7237 45.0808C27.7883 45.5309 27.8282 46.0257 27.8513 46.6156C27.8697 46.7508 27.8743 46.8876 27.8743 47.0243C28.0495 51.5904 26.5576 54.9628 23.557 56.7327C22.5845 57.3043 21.5413 57.5931 20.4582 57.5931ZM19.756 55.2332C19.7914 55.2363 19.8267 55.2393 19.8544 55.2424C20.7286 55.3745 21.5936 55.2132 22.3894 54.7477C24.6433 53.4187 25.7142 50.8345 25.5697 47.0704C25.5575 47.0105 25.5513 46.8261 25.5482 46.7662C25.5313 46.2392 25.496 45.7476 25.4238 45.2928C25.413 45.2329 25.4084 45.1714 25.4084 45.1115C25.4023 45.0654 25.3977 45.0224 25.3946 44.9824C25.3577 44.7612 25.3301 44.5983 25.3101 44.4555C25.2993 44.417 25.2901 44.3786 25.284 44.3402L25.2824 44.3418C25.1196 43.3477 24.9091 42.5857 24.8062 42.22C24.7708 42.0894 24.7462 41.9957 24.7355 41.9481C24.6264 41.4457 24.8614 40.9325 25.3131 40.6882C25.7633 40.447 26.3225 40.5285 26.6836 40.8957C26.745 40.9586 26.8419 41.057 26.9648 41.2029C26.9878 41.2214 27.0355 41.2705 27.0923 41.3381C27.2198 41.4564 27.3166 41.5793 27.4011 41.6838C27.6024 41.8759 27.968 42.2231 28.3921 42.6072C28.581 42.7962 28.7485 42.9452 28.916 43.0789L29.1357 43.2632C29.2832 43.3892 29.4307 43.5183 29.5889 43.6273C29.6473 43.6673 29.6996 43.7119 29.7487 43.761C30.1175 44.0468 30.3802 44.2419 30.6613 44.4155L30.9855 44.6536C31.4756 44.9486 31.9734 45.2221 32.4112 45.4249L32.5587 45.4925C32.7631 45.5893 32.9597 45.6861 33.1671 45.7537C33.4806 45.8782 33.7295 45.9411 33.9753 46.0087C34.2518 46.081 34.5038 46.1332 34.7404 46.1655C35.4579 46.2684 36.0924 46.2392 36.687 46.0748C36.899 46.0226 37.0834 45.9596 37.2662 45.8843C37.4629 45.8029 37.6734 45.6876 37.867 45.5739C38.3294 45.2943 38.7027 44.9148 38.9947 44.4247C39.0761 44.3049 39.1253 44.225 39.1652 44.1513C39.176 44.1221 39.1882 44.0944 39.199 44.0683C39.3157 43.8163 39.4187 43.5643 39.5017 43.2955C39.5094 43.2694 39.5785 43.0236 39.5893 42.999C39.6 42.939 39.6231 42.8499 39.6492 42.767C39.6569 42.7224 39.6691 42.6471 39.6707 42.6379C39.6737 42.6272 39.7045 42.4904 39.706 42.4797C39.7076 42.4735 39.7398 42.3322 39.7414 42.3245C39.7798 42.1125 39.8136 41.839 39.832 41.5655C39.8351 41.5056 39.8443 41.4457 39.8581 41.3888C39.9042 40.7328 39.9073 40.129 39.8719 39.4407L39.812 38.6356C39.7321 37.7292 39.6108 36.8811 39.4556 36.1313C39.4095 35.8087 39.3588 35.5813 39.2958 35.3554C39.199 34.8899 39.1268 34.515 39.0316 34.1571C38.9301 33.7515 38.8318 33.3827 38.7365 33.0324C38.3663 31.6989 38.0037 30.6556 37.8332 30.1947L6.07301 2.79021L2.38565 7.23191L10.0768 46.7385C10.1198 46.8031 10.1721 46.8845 10.2305 46.9782C10.928 48.003 12.4213 50.0587 14.2819 51.8654L14.6337 52.2173C15.2621 52.8026 15.7814 53.2313 16.2869 53.5785C16.4927 53.7506 16.5926 53.8136 16.694 53.8797L16.8723 54.0026C17.1626 54.1962 17.4745 54.3882 17.8018 54.5449C18.0691 54.6878 18.2857 54.7877 18.5008 54.8706C18.7267 54.9582 18.9556 55.0473 19.1999 55.118C19.3535 55.1518 19.5532 55.1994 19.756 55.2332Z" fill="#172554"/>
<path d="M36.8344 63.1379C36.4104 63.1379 36.0032 62.9044 35.8004 62.4988L26.5852 43.9684C26.3009 43.3984 26.5345 42.707 27.1045 42.4243C27.6806 42.137 28.3658 42.3736 28.6501 42.9421L37.8653 61.4725C38.1496 62.0425 37.916 62.7338 37.346 63.0165C37.1816 63.0995 37.005 63.1379 36.8344 63.1379Z" fill="#172554"/>
<path d="M110.753 183.283C110.366 183.283 109.988 183.09 109.77 182.736L86.8607 145.583C86.5273 145.041 86.6964 144.333 87.2372 143.998C87.7811 143.665 88.4893 143.834 88.8227 144.374L111.732 181.527C112.065 182.07 111.896 182.778 111.355 183.113C111.168 183.228 110.959 183.283 110.753 183.283Z" fill="#172554"/>
<path d="M152.961 146.132C152.643 146.132 152.326 146.001 152.097 145.745L101.115 88.2625C100.693 87.7862 100.737 87.0579 101.212 86.6354C101.69 86.2129 102.415 86.2559 102.841 86.7322L153.824 144.213C154.245 144.691 154.202 145.418 153.726 145.84C153.506 146.035 153.233 146.132 152.961 146.132Z" fill="#172554"/>
<path d="M171.184 129.127C170.906 129.127 170.629 129.029 170.408 128.828L122.545 85.2972C122.073 84.8701 122.039 84.1403 122.468 83.6702C122.894 83.197 123.626 83.1632 124.097 83.5934L171.96 127.124C172.431 127.551 172.465 128.281 172.036 128.752C171.811 129 171.497 129.127 171.184 129.127Z" fill="#172554"/>
<path d="M138.857 309.516C138.324 309.516 137.844 309.144 137.731 308.6C137.6 307.978 137.999 307.366 138.622 307.234C138.761 307.205 152.672 304.266 160.985 301.012C161.58 300.782 162.247 301.072 162.479 301.665C162.711 302.258 162.419 302.926 161.826 303.158C153.333 306.483 139.674 309.37 139.096 309.491C139.017 309.508 138.937 309.516 138.857 309.516Z" fill="#172554"/>
</svg>
