<svg width="642" height="543" viewBox="0 0 642 543" fill="none" xmlns="http://www.w3.org/2000/svg">
<path opacity="0.6" d="M485.144 372.85L485.098 374.287L484.841 382.301L456.189 381.38L455.833 392.461C431.855 386.143 377.519 371.943 362.267 368.955C360.534 368.615 358.795 368.33 357.055 368.082L257.497 340.348L240.892 309.76L242.534 308.869C246.761 306.574 248.343 301.238 246.049 297.011L238.828 283.707C236.533 279.48 231.197 277.898 226.97 280.193L225.845 280.804C225.659 280.872 225.474 280.942 225.293 281.022L218.117 267.804C267.456 227.286 282.056 156.043 249.273 98.8088C213.08 34.9303 131.752 12.5105 67.6742 48.9194C3.80013 85.1074 -18.6241 166.44 17.7836 230.5C51.3748 289.628 123.238 313.284 184.482 287.97L190.838 299.682L187.774 301.346C183.347 303.75 181.691 309.338 184.094 313.766L190.919 326.34C193.322 330.768 198.911 332.424 203.339 330.021L206.402 328.358L240.102 390.451L206.276 398.168C198.683 399.903 193.426 406.566 193.119 414.024L193.114 414.179C193.068 415.589 193.193 417.038 193.527 418.478C195.592 427.579 204.735 433.311 213.819 431.245L253.97 422.071C254.945 421.848 255.881 421.542 256.774 421.164L256.948 421.484L236.441 426.173C228.744 427.939 223.448 434.704 223.172 442.249L223.17 442.318C223.124 443.727 223.25 445.177 223.581 446.633C225.679 455.786 234.89 461.572 244.043 459.492L255.996 456.76C250.995 459.282 247.722 464.403 247.544 469.981C247.513 470.961 247.565 471.978 247.74 472.981C247.799 473.276 247.859 473.553 247.92 473.847C249.79 482.064 258.054 487.251 266.254 485.381L275.242 483.329C270.5 485.924 267.588 491.269 268.396 496.912L268.679 498.814C268.72 499.107 268.764 499.385 268.841 499.663C270.24 506.471 276.802 511.138 283.769 510.14L296.69 508.293C298.499 508.137 300.872 507.927 303.724 507.668L317.13 532.368C322.305 541.884 334.192 545.402 343.709 540.244C346.11 538.94 348.122 537.199 349.718 535.189C354.452 529.231 355.44 520.781 351.584 513.665L345.985 503.349C346.02 503.344 346.056 503.341 346.092 503.336L346.148 503.47L349.495 502.946C378.084 499.64 411.629 495.027 435.504 489.466L452.806 486.754L452.436 498.281L481.088 499.202L480.711 510.944L641.825 516.624V503.886V379.968V378.401L485.144 372.85ZM225.018 112.71C253.755 163.14 235.891 227.442 185.456 256.174C156.4 272.672 122.636 273.784 93.7735 262.025C72.7464 253.458 54.3218 238.059 42.216 216.802C13.6792 166.167 31.1338 101.874 81.7836 73.3428C132.204 44.6154 196.295 62.274 225.018 112.71Z" fill="#405162"/>
<path d="M278.376 354.454C307.266 342.249 339.152 333.396 369.928 339.426C389.68 343.296 475.012 361.181 475.012 361.181C475.012 361.181 472.343 439.999 474.102 443.946C483.181 464.33 300.292 479.105 300.292 479.105C300.292 479.105 261.647 361.522 278.376 354.454Z" fill="#FFC7B0"/>
<path d="M364.047 472.119C364.047 472.119 333.959 370.059 331.106 369.451C328.251 368.844 267.332 348.981 267.332 348.981C267.332 348.981 331.287 474.078 333.437 474.147C335.585 474.217 364.047 472.119 364.047 472.119Z" fill="#F4A891"/>
<path d="M324.789 502.837L181.787 239.362L193.958 232.759L216.224 220.676L359.243 484.135C363.099 491.251 362.111 499.699 357.377 505.659C355.782 507.668 353.769 509.411 351.368 510.715C341.852 515.87 329.964 512.354 324.789 502.837Z" fill="#8E3E33"/>
<path d="M336.692 495.723L234.284 306.266L252.124 286.753L359.243 484.135C363.099 491.251 362.111 499.699 357.377 505.659C349.285 507.123 340.833 503.349 336.692 495.723Z" fill="#B95241"/>
<path d="M270.894 381.716L298.119 371.774L287.805 352.261L247.107 331.633L240.696 342.783L270.894 381.716Z" fill="#8E3E33"/>
<path d="M210.999 300.491L247.849 280.488C252.277 278.085 253.933 272.496 251.53 268.068L244.705 255.494C242.302 251.066 236.713 249.41 232.285 251.813L195.434 271.816C191.007 274.22 189.351 279.808 191.754 284.236L198.579 296.81C200.982 301.238 206.571 302.894 210.999 300.491Z" fill="#435568"/>
<path d="M250.195 279.338L225.364 292.329C221.138 294.625 215.797 293.042 213.511 288.816L206.286 275.514C203.989 271.288 205.572 265.947 209.798 263.65L211.092 262.97L223.624 256.414L234.63 250.66C234.741 250.604 234.83 250.549 234.942 250.504H234.953C239.123 248.441 244.252 250.058 246.494 254.172L253.708 267.486C256.005 271.712 254.421 277.042 250.195 279.338Z" fill="#6A8593"/>
<path d="M259.16 68.1645C250.095 52.1528 238.186 38.7502 224.427 28.2356C183.294 -3.25265 125.592 -9.0173 77.5676 18.2784C13.688 54.4609 -8.73512 135.791 27.6704 199.86C36.7132 215.782 48.5324 229.129 62.1691 239.633C103.414 271.444 161.317 277.309 209.475 249.947C273.332 213.352 295.744 132.033 259.16 68.1645ZM197.678 229.62C158.206 252.032 110.427 247.27 76.3968 221.101C65.1797 212.493 55.4678 201.543 48.0306 188.487C18.2149 135.59 36.4456 68.421 89.3645 38.6053C128.803 16.1376 176.269 20.8318 210.222 46.7449C221.606 55.431 231.474 66.5031 239.012 79.7384C269.028 132.423 250.374 199.603 197.678 229.62Z" fill="#638896"/>
<path d="M200.78 384.495L200.775 384.65C200.73 386.059 200.855 387.509 201.188 388.949C203.253 398.049 212.396 403.782 221.479 401.716L261.63 392.542C269.276 390.792 274.552 384.044 274.793 376.531C274.839 375.121 274.713 373.672 274.38 372.232C274.381 372.198 274.365 372.18 274.366 372.146C272.229 363.111 263.137 357.399 254.071 359.482L213.938 368.638C206.344 370.373 201.088 377.036 200.78 384.495Z" fill="#F4A891"/>
<path d="M200.78 384.495C202.934 393.496 212.027 399.174 221.059 397.107L261.193 387.934C268.785 386.216 274.023 379.57 274.366 372.146C272.229 363.111 263.137 357.399 254.071 359.482L213.938 368.638C206.344 370.373 201.088 377.036 200.78 384.495Z" fill="#FFC7B0"/>
<path d="M230.831 412.719L230.829 412.788C230.783 414.197 230.909 415.647 231.24 417.103C233.339 426.256 242.549 432.042 251.702 429.961L296.532 419.717C304.229 417.95 309.559 411.169 309.802 403.588C309.848 402.16 309.704 400.711 309.373 399.255C309.297 398.926 309.222 398.596 309.112 398.282C306.635 389.701 297.752 384.391 288.912 386.396L244.099 396.641C236.403 398.408 231.107 405.173 230.831 412.719Z" fill="#F4A891"/>
<path d="M230.831 412.719C233.344 421.283 242.208 426.576 251.015 424.553L295.845 414.326C303.508 412.559 308.837 405.812 309.113 398.284C306.636 389.702 297.753 384.393 288.913 386.397L244.1 396.642C236.403 398.408 231.107 405.173 230.831 412.719Z" fill="#FFC7B0"/>
<path d="M255.203 440.451C255.172 441.431 255.224 442.448 255.399 443.452C255.458 443.746 255.518 444.024 255.577 444.318C257.447 452.535 265.713 457.723 273.913 455.852L312.156 447.117C319.074 445.533 323.829 439.439 324.048 432.647C324.089 431.375 323.975 430.081 323.673 428.78C323.462 427.844 323.163 426.957 322.794 426.119C319.944 419.488 312.619 415.587 305.336 417.263L267.093 425.982C260.194 427.567 255.42 433.678 255.203 440.451Z" fill="#F4A891"/>
<path d="M255.203 440.451C255.172 441.432 255.224 442.448 255.399 443.452C258.248 450.118 265.574 454.036 272.871 452.377L311.115 443.641C318.032 442.057 322.788 435.963 323.006 429.19C323.039 428.193 322.968 427.158 322.794 426.12C319.944 419.489 312.619 415.589 305.336 417.264L267.093 425.983C260.194 427.567 255.42 433.678 255.203 440.451Z" fill="#FFC7B0"/>
<path d="M276.055 467.381L276.338 469.284C276.38 469.577 276.423 469.854 276.5 470.132C277.898 476.94 284.461 481.608 291.428 480.61L329.462 475.172C336.723 474.132 341.829 467.343 340.789 460.065L340.507 458.162C340.254 456.382 339.654 454.727 338.755 453.253C336.093 448.762 330.897 446.065 325.417 446.853L287.383 452.291C280.12 453.332 275.015 460.12 276.055 467.381Z" fill="#F4A891"/>
<path d="M276.055 467.381L276.338 469.284C276.38 469.577 276.423 469.854 276.5 470.132C279.144 474.622 284.357 477.32 289.838 476.532L327.872 471.094C335.133 470.071 340.239 463.266 339.199 456.005L338.917 454.103C338.874 453.809 338.832 453.532 338.755 453.254C336.093 448.763 330.897 446.067 325.417 446.854L287.383 452.292C280.12 453.332 275.015 460.12 276.055 467.381Z" fill="#FFC7B0"/>
<path d="M399.965 386.659L306.816 361.092L265.783 347.243C252.124 343.497 244.877 334.8 243.896 320.639C243.873 320.226 243.851 319.836 243.862 319.435C243.918 317.729 244.342 316.134 245.077 314.707C246.549 311.808 249.738 311.184 253.273 311.518C255.347 311.685 257.532 312.198 259.562 312.767L273.689 317.617L297.472 325.779L374.966 340.464L399.965 386.659Z" fill="#FFC7B0"/>
<g opacity="0.63">
<path d="M248.47 366.621L255.186 364.798C255.981 364.583 256.799 364.473 257.612 364.473C261.913 364.473 265.606 367.401 266.593 371.592C267.754 376.517 264.696 381.493 259.778 382.683L252.574 384.427L248.47 366.621Z" fill="#FFE0D2"/>
</g>
<g opacity="0.63">
<path d="M284.301 394.162L290.851 392.399C291.628 392.19 292.426 392.084 293.222 392.084C297.424 392.084 301.035 394.922 302 398.984C303.133 403.75 300.149 408.567 295.348 409.719L288.311 411.407L284.301 394.162Z" fill="#FFE0D2"/>
</g>
<g opacity="0.63">
<path d="M301.648 424.549L307.847 422.958C308.586 422.768 309.344 422.672 310.1 422.672C314.117 422.672 317.569 425.263 318.494 428.971C319 431 318.671 433.108 317.567 434.906C316.385 436.831 314.474 438.179 312.186 438.702L305.475 440.236L301.648 424.549Z" fill="#FFE0D2"/>
</g>
<g opacity="0.63">
<path d="M319.485 453.329L325.426 452.252C325.911 452.164 326.404 452.119 326.891 452.119C330.851 452.119 334.283 455.045 334.874 458.924C335.533 463.24 332.521 467.294 328.16 467.962L321.786 468.938L319.485 453.329Z" fill="#FFE0D2"/>
</g>
<path d="M273.689 317.617C273.689 317.751 273.666 317.863 273.622 317.985L270.611 326.013C270.433 326.504 269.953 326.838 269.418 326.838C269.296 326.838 269.173 326.816 269.05 326.783C265.159 325.612 255.837 322.312 253.262 317.015C252.448 315.331 252.392 313.614 253.117 311.786C253.15 311.685 253.206 311.596 253.273 311.518C253.866 310.377 257.211 311.771 259.561 312.767L273.689 317.617Z" fill="#FFD7C5"/>
<path d="M242.537 320.434C242.524 320.542 242.553 320.65 242.561 320.757C243.559 334.68 250.034 343.061 268.366 350.527L331.012 376.513C331.289 376.47 345.225 368.515 345.229 368.429C345.276 366.985 266.459 344.38 254.076 335.814C237.35 324.246 247.183 310.648 246.828 312.678C243.562 313.591 242.832 318.117 242.537 320.434Z" fill="#F4A891"/>
<path d="M354.8 390.384L331.849 370.938L354.52 476.121L479.032 458.281L474.798 356.909H458.091L453.014 405.875C453.014 405.875 405.44 431.892 354.8 390.384Z" fill="#F4A891"/>
<path d="M460.073 468.748L496.175 469.908L499.929 353.006L463.827 351.847L460.073 468.748Z" fill="white"/>
<path d="M488.369 488.476L641.825 494.027V357.371L492.76 351.82L488.369 488.476Z" fill="#07113D"/>
<path opacity="0.66" d="M488.774 477.356L641.825 482.907V357.42L492.805 351.87L488.774 477.356Z" fill="#2C3765"/>
<path d="M224.427 28.2356L214.794 40.7796L214.783 40.7685C186.104 18.8694 148.383 11.1646 113.026 20.765C103.671 23.3072 94.4827 27.0537 85.6629 32.0713C84.849 32.5284 84.0462 32.9967 83.2433 33.4873C79.4746 35.7062 75.8842 38.1258 72.4722 40.7127C68.8596 43.4334 65.4476 46.3436 62.2475 49.421C24.3367 85.6592 14.5469 144.387 41.4969 192.211C49.447 206.16 59.8167 217.856 71.8032 227.055L71.8144 227.066L62.1694 239.633C48.5327 229.129 36.7135 215.782 27.6707 199.86C-3.07049 145.759 8.13546 79.3594 50.8185 38.2151C54.0298 35.1264 57.4083 32.1828 60.9652 29.3952C65.18 26.0836 69.6401 23.0062 74.3343 20.174C75.4047 19.5273 76.4752 18.8917 77.5679 18.2785C86.2428 13.3501 95.2298 9.4921 104.373 6.68224C145.896 -6.09591 190.72 2.43399 224.427 28.2356Z" fill="#9DBFC1"/>
<path d="M242.647 272.816L240.695 273.786C237.562 275.492 233.604 274.321 231.909 271.188L223.625 256.414L234.63 250.66C234.741 250.604 234.831 250.549 234.942 250.504L243.383 265.568C244.687 267.965 244.308 270.842 242.647 272.816Z" fill="#9DBFC1"/>
<path opacity="0.3" d="M73.5928 52.3802C130.43 19.9978 202.68 39.9043 235.058 96.7592C246.209 116.329 251.134 137.752 250.481 158.754C256.512 132.817 253.208 104.657 239.012 79.7384C231.474 66.5031 221.606 55.4309 210.222 46.7449C176.27 20.8318 128.803 16.1376 89.3648 38.6053C79.5883 44.1135 71.0004 50.8995 63.6758 58.6311C66.8447 56.4099 70.1485 54.3204 73.5928 52.3802Z" fill="#5D5D5D"/>
<path d="M72.4723 40.7126C68.8597 43.4333 65.4477 46.3435 62.2476 49.421C60.7646 47.938 59.2705 46.4438 57.7764 44.9609C55.4794 42.6751 53.1713 40.4116 50.8186 38.215C54.0299 35.1264 57.4084 32.1827 60.9653 29.3952C62.6267 30.9562 64.2658 32.5507 65.8826 34.1563C68.0792 36.3306 70.2758 38.516 72.4723 40.7126Z" fill="#C1E5E5"/>
<path d="M113.026 20.765C103.67 23.3072 94.4827 27.0537 85.6629 32.0713C84.8489 32.5284 84.0461 32.9967 83.2433 33.4873C80.2327 29.0718 77.2556 24.6341 74.3342 20.174C75.4046 19.5273 76.4751 18.8917 77.5678 18.2784C86.2427 13.35 95.2297 9.49208 104.373 6.68222C107.439 11.2761 110.316 15.9704 113.026 20.765Z" fill="#C1E5E5"/>
</svg>
