<svg width="185" height="37" viewBox="0 0 185 37" fill="none" xmlns="http://www.w3.org/2000/svg">
<path d="M182.597 0H102.11C100.783 0 99.7078 1.06874 99.7078 2.3871V34.6129C99.7078 35.9313 100.783 37 102.11 37H182.597C183.924 37 185 35.9313 185 34.6129V2.3871C185 1.06874 183.924 0 182.597 0Z" fill="#172554"/>
<path d="M9.87511 13.3271C11.0171 13.3271 12.0487 13.5742 12.9697 14.0683C13.8906 14.5442 14.609 15.267 15.1248 16.237C15.6589 17.207 15.9261 18.3874 15.9261 19.7783V28.6451H13.4394V20.1351C13.4394 18.6345 13.0617 17.4906 12.3066 16.7037C11.5513 15.8984 10.5198 15.4958 9.212 15.4958C7.88576 15.4958 6.82661 15.9076 6.03456 16.7311C5.26092 17.5547 4.87411 18.7534 4.87411 20.3273V28.6451H2.35979V8.33094H4.87411V15.7429C5.37144 14.9742 6.05298 14.3795 6.91872 13.9585C7.80287 13.5376 8.78833 13.3271 9.87511 13.3271ZM21.3318 11.1585C20.8529 11.1585 20.4477 10.9937 20.1161 10.6643C19.7846 10.3349 19.6188 9.93229 19.6188 9.45646C19.6188 8.98062 19.7846 8.578 20.1161 8.24858C20.4477 7.91916 20.8529 7.75446 21.3318 7.75446C21.7923 7.75446 22.1791 7.91916 22.4923 8.24858C22.8238 8.578 22.9896 8.98062 22.9896 9.45646C22.9896 9.93229 22.8238 10.3349 22.4923 10.6643C22.1791 10.9937 21.7923 11.1585 21.3318 11.1585ZM22.5475 13.6016V28.6451H20.0332V13.6016H22.5475ZM25.8933 21.0685C25.8933 19.5312 26.2065 18.1861 26.8327 17.0331C27.459 15.8619 28.3156 14.956 29.4023 14.3154C30.5075 13.6748 31.7417 13.3546 33.1047 13.3546C34.2836 13.3546 35.3796 13.6291 36.3926 14.1781C37.4058 14.7089 38.1794 15.4135 38.7135 16.2919V8.33094H41.2555V28.6451H38.7135V25.8176C38.2162 26.7143 37.4794 27.4555 36.5031 28.0412C35.527 28.6085 34.3849 28.8922 33.077 28.8922C31.7324 28.8922 30.5075 28.5628 29.4023 27.9039C28.3156 27.2451 27.459 26.3209 26.8327 25.1313C26.2065 23.9417 25.8933 22.5875 25.8933 21.0685ZM38.7135 21.0959C38.7135 19.9612 38.4834 18.973 38.0228 18.1312C37.5623 17.2894 36.9361 16.6488 36.144 16.2096C35.3703 15.7521 34.5138 15.5233 33.5744 15.5233C32.635 15.5233 31.7784 15.7429 31.0048 16.1821C30.2312 16.6213 29.6142 17.2619 29.1536 18.1037C28.6931 18.9455 28.4629 19.9338 28.4629 21.0685C28.4629 22.2215 28.6931 23.228 29.1536 24.0882C29.6142 24.93 30.2312 25.5797 31.0048 26.0372C31.7784 26.4765 32.635 26.6961 33.5744 26.6961C34.5138 26.6961 35.3703 26.4765 36.144 26.0372C36.9361 25.5797 37.5623 24.93 38.0228 24.0882C38.4834 23.228 38.7135 22.2306 38.7135 21.0959ZM44.5651 21.0685C44.5651 19.5312 44.8782 18.1861 45.5045 17.0331C46.1307 15.8619 46.9872 14.956 48.0741 14.3154C49.1792 13.6748 50.4133 13.3546 51.7765 13.3546C52.9553 13.3546 54.0514 13.6291 55.0644 14.1781C56.0775 14.7089 56.8511 15.4135 57.3853 16.2919V8.33094H59.9273V28.6451H57.3853V25.8176C56.888 26.7143 56.1512 27.4555 55.1749 28.0412C54.1986 28.6085 53.0567 28.8922 51.7488 28.8922C50.4042 28.8922 49.1792 28.5628 48.0741 27.9039C46.9872 27.2451 46.1307 26.3209 45.5045 25.1313C44.8782 23.9417 44.5651 22.5875 44.5651 21.0685ZM57.3853 21.0959C57.3853 19.9612 57.155 18.973 56.6946 18.1312C56.2341 17.2894 55.6078 16.6488 54.8157 16.2096C54.0421 15.7521 53.1856 15.5233 52.2462 15.5233C51.3068 15.5233 50.4502 15.7429 49.6766 16.1821C48.903 16.6213 48.2858 17.2619 47.8254 18.1037C47.3649 18.9455 47.1346 19.9338 47.1346 21.0685C47.1346 22.2215 47.3649 23.228 47.8254 24.0882C48.2858 24.93 48.903 25.5797 49.6766 26.0372C50.4502 26.4765 51.3068 26.6961 52.2462 26.6961C53.1856 26.6961 54.0421 26.4765 54.8157 26.0372C55.6078 25.5797 56.2341 24.93 56.6946 24.0882C57.155 23.228 57.3853 22.2306 57.3853 21.0959ZM77.9912 20.5469C77.9912 21.0228 77.9636 21.526 77.9083 22.0567H65.8064C65.8984 23.5391 66.405 24.7013 67.3261 25.5431C68.2655 26.3666 69.3983 26.7784 70.7245 26.7784C71.8112 26.7784 72.7139 26.5314 73.4323 26.0372C74.169 25.5248 74.6847 24.8476 74.9795 24.0058H77.6873C77.282 25.4516 76.4716 26.632 75.2558 27.5471C74.0401 28.4438 72.5296 28.8922 70.7245 28.8922C69.2878 28.8922 67.9983 28.572 66.8564 27.9314C65.7327 27.2908 64.8485 26.3849 64.2039 25.2137C63.5592 24.0241 63.2369 22.6515 63.2369 21.0959C63.2369 19.5404 63.5499 18.1769 64.1763 17.0056C64.8025 15.8344 65.6774 14.9376 66.8011 14.3154C67.9431 13.6748 69.2509 13.3546 70.7245 13.3546C72.1613 13.3546 73.4323 13.6657 74.5375 14.2879C75.6427 14.9101 76.4899 15.7703 77.0794 16.8684C77.6873 17.9482 77.9912 19.1743 77.9912 20.5469ZM75.394 20.0253C75.394 19.0737 75.1821 18.2592 74.7585 17.5821C74.3348 16.8867 73.7546 16.3651 73.0178 16.0174C72.2994 15.6513 71.4982 15.4684 70.614 15.4684C69.343 15.4684 68.2562 15.8709 67.3537 16.6762C66.4695 17.4815 65.963 18.5978 65.8341 20.0253H75.394ZM86.9465 26.3392L91.6436 13.6016H94.3237L88.3833 28.6451H85.4545L79.5141 13.6016H82.2218L86.9465 26.3392Z" fill="#303030"/>
<path d="M120.558 17.569C121.681 17.8069 122.583 18.3651 123.265 19.2436C123.946 20.1037 124.288 21.092 124.288 22.2083C124.288 23.8188 123.716 25.0999 122.575 26.0515C121.45 26.9849 119.876 27.4516 117.85 27.4516H108.815V8.18055H117.546C119.517 8.18055 121.055 8.62893 122.16 9.52568C123.283 10.4224 123.846 11.6395 123.846 13.1767C123.846 14.3115 123.542 15.2539 122.934 16.0043C122.344 16.7546 121.552 17.2762 120.558 17.569ZM113.539 15.9768H116.634C117.407 15.9768 117.997 15.8121 118.402 15.4827C118.826 15.135 119.038 14.6317 119.038 13.9728C119.038 13.314 118.826 12.8107 118.402 12.463C117.997 12.1153 117.407 11.9414 116.634 11.9414H113.539V15.9768ZM117.021 23.6633C117.813 23.6633 118.421 23.4894 118.844 23.1417C119.286 22.7756 119.507 22.254 119.507 21.5769C119.507 20.8998 119.277 20.3691 118.817 19.9847C118.375 19.6004 117.757 19.4083 116.965 19.4083H113.539V23.6633H117.021ZM131.752 7.13739V27.4516H127.028V7.13739H131.752ZM142.194 27.6712C140.684 27.6712 139.321 27.351 138.105 26.7104C136.907 26.0698 135.959 25.1548 135.259 23.9652C134.578 22.7756 134.237 21.3848 134.237 19.7926C134.237 18.2187 134.586 16.837 135.287 15.6474C135.987 14.4395 136.944 13.5154 138.16 12.8748C139.376 12.2342 140.739 11.914 142.249 11.914C143.759 11.914 145.123 12.2342 146.339 12.8748C147.554 13.5154 148.512 14.4395 149.212 15.6474C149.912 16.837 150.262 18.2187 150.262 19.7926C150.262 21.3665 149.903 22.7574 149.184 23.9652C148.484 25.1548 147.517 26.0698 146.283 26.7104C145.068 27.351 143.704 27.6712 142.194 27.6712ZM142.194 23.6084C143.096 23.6084 143.862 23.2789 144.487 22.6201C145.133 21.9613 145.454 21.0187 145.454 19.7926C145.454 18.5665 145.141 17.6239 144.515 16.9651C143.907 16.3062 143.152 15.9768 142.249 15.9768C141.328 15.9768 140.564 16.3062 139.956 16.9651C139.348 17.6056 139.044 18.5481 139.044 19.7926C139.044 21.0187 139.339 21.9613 139.928 22.6201C140.536 23.2789 141.292 23.6084 142.194 23.6084ZM158.627 11.914C159.713 11.914 160.662 12.1336 161.473 12.5728C162.301 13.012 162.937 13.5885 163.379 14.3023V12.1336H168.104V27.4241C168.104 28.8334 167.818 30.1052 167.247 31.2399C166.695 32.3929 165.838 33.308 164.678 33.9851C163.535 34.6622 162.108 35.0008 160.395 35.0008C158.11 35.0008 156.259 34.4609 154.841 33.3811C153.423 32.3197 152.612 30.8738 152.41 29.0438H157.079C157.226 29.6294 157.577 30.0869 158.129 30.4164C158.682 30.764 159.363 30.9379 160.174 30.9379C161.149 30.9379 161.923 30.6542 162.495 30.0869C163.084 29.5379 163.379 28.6503 163.379 27.4241V25.2555C162.918 25.9692 162.282 26.5549 161.473 27.0124C160.662 27.4516 159.713 27.6712 158.627 27.6712C157.356 27.6712 156.204 27.351 155.173 26.7104C154.141 26.0515 153.322 25.1274 152.714 23.9378C152.124 22.7299 151.83 21.3391 151.83 19.7651C151.83 18.1912 152.124 16.8095 152.714 15.6199C153.322 14.4303 154.141 13.5154 155.173 12.8748C156.204 12.2342 157.356 11.914 158.627 11.914ZM163.379 19.7926C163.379 18.6214 163.047 17.6971 162.384 17.02C161.739 16.3429 160.948 16.0043 160.008 16.0043C159.069 16.0043 158.268 16.3429 157.604 17.02C156.959 17.6788 156.637 18.5939 156.637 19.7651C156.637 20.9364 156.959 21.8697 157.604 22.5652C158.268 23.2423 159.069 23.5809 160.008 23.5809C160.948 23.5809 161.739 23.2423 162.384 22.5652C163.047 21.8881 163.379 20.9638 163.379 19.7926ZM173.732 27.6712C172.903 27.6712 172.222 27.4333 171.687 26.9575C171.172 26.4633 170.914 25.8594 170.914 25.1456C170.914 24.4136 171.172 23.8005 171.687 23.3064C172.222 22.8123 172.903 22.5652 173.732 22.5652C174.543 22.5652 175.206 22.8123 175.721 23.3064C176.256 23.8005 176.522 24.4136 176.522 25.1456C176.522 25.8594 176.256 26.4633 175.721 26.9575C175.206 27.4333 174.543 27.6712 173.732 27.6712Z" fill="white"/>
</svg>
