<svg width="239" height="66" viewBox="0 0 239 66" fill="none" xmlns="http://www.w3.org/2000/svg">
<path fill-rule="evenodd" clip-rule="evenodd" d="M64.2179 28.578C64.1097 30.9003 64.0437 33.2323 64.0199 35.574C63.8673 36.0941 63.7572 36.6221 63.6899 37.158C63.319 38.4928 62.5709 39.5708 61.4459 40.392C59.815 40.9789 58.143 41.1329 56.4299 40.854C56.3091 41.4786 56.1992 42.0947 56.0999 42.702C57.4887 43.4399 58.6326 44.4519 59.5319 45.738C60.1035 47.6277 59.8834 49.4318 58.8719 51.15C57.5519 52.998 56.2319 54.846 54.9119 56.694C54.0918 58.0037 53.3218 59.3457 52.6019 60.72C51.5425 60.8744 50.4865 61.0504 49.4339 61.248C46.8262 61.958 44.2302 62.7059 41.6459 63.492C40.4187 63.6765 39.1867 63.7206 37.9499 63.624C36.2393 63.2335 35.1173 62.1996 34.5839 60.522C34.3608 59.8242 34.1628 59.1203 33.9899 58.41C33.3343 58.2566 32.6743 58.2346 32.0099 58.344C31.7187 60.0703 30.9708 61.5662 29.7659 62.832C29.1963 63.198 28.5803 63.462 27.9179 63.624C26.8619 63.712 25.8059 63.712 24.7499 63.624C22.826 63.1587 20.9341 62.5867 19.0739 61.908C17.1624 61.4554 15.2484 61.0373 13.3319 60.654C12.7723 59.4021 12.1123 58.2141 11.3519 57.09C10.0319 55.242 8.71191 53.394 7.39191 51.546C6.24113 49.7965 5.88913 47.9045 6.33591 45.87C6.60971 45.2133 7.02771 44.6633 7.58991 44.22C8.30342 43.6319 9.07341 43.126 9.89991 42.702C9.89715 42.0982 9.74316 41.5261 9.43791 40.986C8.34054 40.8762 7.24053 40.8102 6.13791 40.788C4.46309 40.4779 3.29709 39.5319 2.63991 37.95C2.28423 37.0392 2.04224 36.1152 1.91391 35.178C1.98107 32.3966 1.89308 29.6246 1.64991 26.862C1.62909 25.9878 1.49709 25.1298 1.25391 24.288C3.74204 21.8376 5.96404 19.1756 7.91991 16.302C9.06742 14.861 10.4974 13.8269 12.2099 13.2C13.3743 12.9986 14.4742 13.1746 15.5099 13.728C16.3292 14.204 17.0771 14.7759 17.7539 15.444C18.4111 15.2065 18.9391 14.7885 19.3379 14.19C18.5681 12.6964 18.2822 11.1124 18.4799 9.438C19.3068 7.64353 20.6487 6.38953 22.5059 5.676C24.1064 5.06917 25.7345 4.54117 27.3899 4.092C29.319 3.4053 31.189 2.59129 32.9999 1.65C34.5314 2.53665 36.1374 3.26265 37.8179 3.828C39.6646 4.44312 41.5126 5.05911 43.3619 5.676C45.2883 6.37073 46.7183 7.62473 47.6519 9.438C47.7727 11.1333 47.4427 12.7393 46.6619 14.256C46.9512 14.623 47.3033 14.931 47.7179 15.18C47.9217 15.3367 48.1418 15.3806 48.3779 15.312C49.1414 14.6368 49.9775 14.0649 50.8859 13.596C52.6061 12.8631 54.2342 13.0391 55.7699 14.124C56.7546 14.8006 57.6126 15.6147 58.3439 16.566C60.2076 19.3764 62.3415 21.9725 64.7459 24.354C64.4181 25.7436 64.2422 27.1516 64.2179 28.578Z" fill="#F0ED3D"/>
<path fill-rule="evenodd" clip-rule="evenodd" d="M65.1419 24.882C64.8523 25.6749 64.7203 26.5109 64.7459 27.39C64.7459 27.478 64.7459 27.566 64.7459 27.654C64.702 27.654 64.6579 27.654 64.6139 27.654C64.405 27.9191 64.273 28.227 64.2179 28.578C64.2422 27.1516 64.4182 25.7436 64.7459 24.354C62.3416 21.9725 60.2076 19.3764 58.3439 16.566C57.6127 15.6147 56.7547 14.8006 55.7699 14.124C54.2342 13.0391 52.6062 12.8632 50.8859 13.596C49.9775 14.0649 49.1414 14.6368 48.3779 15.312C48.1418 15.3806 47.9217 15.3367 47.7179 15.18C47.3033 14.931 46.9513 14.623 46.6619 14.256C47.4427 12.7393 47.7727 11.1333 47.6519 9.438C46.7183 7.62473 45.2883 6.37073 43.3619 5.676C41.5126 5.05911 39.6646 4.44312 37.8179 3.828C36.1374 3.26265 34.5314 2.53665 32.9999 1.65C31.189 2.59129 29.319 3.4053 27.3899 4.092C25.7345 4.54117 24.1064 5.06917 22.5059 5.676C20.6487 6.38953 19.3068 7.64353 18.4799 9.438C18.2822 11.1124 18.5681 12.6964 19.3379 14.19C18.9392 14.7885 18.4112 15.2065 17.7539 15.444C17.0772 14.7759 16.3293 14.204 15.5099 13.728C14.4743 13.1746 13.3743 12.9986 12.2099 13.2C10.4975 13.8269 9.06746 14.861 7.91994 16.302C5.96407 19.1756 3.74207 21.8376 1.25394 24.288C1.49712 25.1298 1.62912 25.9878 1.64994 26.862C1.54252 26.5807 1.47652 26.2728 1.45194 25.938C1.41519 26.0589 1.34919 26.1468 1.25394 26.202C1.18158 25.9214 1.09358 25.6574 0.98994 25.41C0.783911 24.9192 0.739911 24.4352 0.85794 23.958C1.38594 23.694 1.78194 23.298 2.04594 22.77C2.48594 22.594 2.79394 22.286 2.96994 21.846C4.69238 19.7933 6.34238 17.6813 7.91994 15.51C9.11958 14.1339 10.5936 13.188 12.3419 12.672C13.0019 12.584 13.6619 12.584 14.3219 12.672C15.6819 13.1313 16.8699 13.8572 17.8859 14.85C18.1939 14.608 18.502 14.366 18.8099 14.124C17.6894 12.1033 17.6234 10.0573 18.6119 7.986C19.4933 6.88503 20.5713 6.02703 21.8459 5.412C24.0316 4.62354 26.2316 3.87555 28.4459 3.168C30.003 2.57654 31.521 1.89453 32.9999 1.122C34.2743 1.77023 35.5724 2.36423 36.8939 2.904C39.1819 3.696 41.47 4.488 43.7579 5.28C45.8612 6.07559 47.3353 7.5056 48.1799 9.57C48.3041 11.1635 48.0182 12.6815 47.3219 14.124C47.5582 14.4096 47.8441 14.6517 48.1799 14.85C49.4911 13.5895 51.053 12.8415 52.8659 12.606C54.1215 12.7238 55.2656 13.1418 56.2979 13.86C57.0638 14.4936 57.7898 15.1756 58.4759 15.906C60.4297 18.8281 62.6737 21.5122 65.2079 23.958C65.3007 24.2786 65.2788 24.5866 65.1419 24.882Z" fill="#2E2924"/>
<path fill-rule="evenodd" clip-rule="evenodd" d="M30.5581 14.982C38.5301 14.4003 44.844 17.3043 49.5001 23.694C53.0476 29.3952 53.5756 35.3793 51.0841 41.646C48.1533 47.8315 43.3353 51.6376 36.63 53.064C30.3908 54.0355 24.8468 52.5396 19.9981 48.576C13.4967 42.3731 11.8026 35.0471 14.9161 26.598C18.1602 20.076 23.3742 16.2041 30.5581 14.982Z" fill="#251F1B"/>
<path fill-rule="evenodd" clip-rule="evenodd" d="M31.218 15.378C39.1494 15.0644 45.2874 18.1884 49.632 24.75C53.3775 31.855 52.9815 38.719 48.444 45.342C42.8438 51.9165 35.8259 54.1826 27.39 52.14C19.3801 49.3417 14.8702 43.7317 13.86 35.31C13.7134 27.836 16.7714 22.094 23.034 18.084C25.5865 16.6109 28.3145 15.7088 31.218 15.378Z" fill="#F7F7F7"/>
<path fill-rule="evenodd" clip-rule="evenodd" d="M26.8622 17.094C27.0173 17.0651 27.1493 17.109 27.2582 17.226C26.9997 17.7749 26.8896 18.3468 26.9282 18.942C27.5501 19.4988 28.1882 20.0268 28.8422 20.526C28.644 20.6913 28.424 20.8233 28.1822 20.922C27.6542 20.526 27.1262 20.13 26.5982 19.734C26.5542 19.888 26.5101 20.042 26.4662 20.196C26.5798 20.6647 26.7118 21.1267 26.8622 21.582C26.6034 21.6662 26.3615 21.6662 26.1362 21.582C25.6302 20.482 25.1241 19.382 24.6182 18.282C24.7758 18.0271 24.9958 17.9171 25.2782 17.952C25.4756 18.3677 25.6736 18.7857 25.8722 19.206C26.0662 18.6897 26.2202 18.1617 26.3342 17.622C26.4578 17.386 26.6338 17.21 26.8622 17.094Z" fill="#231E1B"/>
<path fill-rule="evenodd" clip-rule="evenodd" d="M34.6501 16.17C34.9055 16.2558 35.1695 16.2998 35.4421 16.302C35.4033 16.7772 35.3154 17.2392 35.1781 17.688C35.222 17.71 35.2661 17.732 35.3101 17.754C35.7306 17.3552 36.1707 16.9813 36.6301 16.632C36.9562 16.5388 37.2643 16.5828 37.5541 16.764C37.1003 17.2067 36.6602 17.6468 36.2341 18.084C36.485 18.859 36.749 19.6289 37.0261 20.394C36.73 20.5226 36.422 20.5667 36.1021 20.526C35.9958 19.8337 35.7978 19.1737 35.5081 18.546C34.9902 18.9419 34.7483 19.4699 34.7821 20.13C34.562 20.13 34.3421 20.13 34.1221 20.13C34.2694 18.8059 34.4455 17.4859 34.6501 16.17Z" fill="#221D1B"/>
<path fill-rule="evenodd" clip-rule="evenodd" d="M32.6699 16.17C32.89 16.17 33.1099 16.17 33.3299 16.17C33.3299 17.49 33.3299 18.81 33.3299 20.13C33.1099 20.13 32.89 20.13 32.6699 20.13C32.6699 18.81 32.6699 17.49 32.6699 16.17Z" fill="#1C1715"/>
<path fill-rule="evenodd" clip-rule="evenodd" d="M30.558 16.17C30.822 16.17 31.086 16.17 31.35 16.17C31.5382 17.4876 31.7141 18.8076 31.878 20.13C31.6002 20.1695 31.3362 20.1255 31.086 19.998C30.5986 19.4007 30.1366 18.7847 29.7 18.15C29.7827 18.8954 29.8927 19.6434 30.03 20.394C29.766 20.438 29.502 20.482 29.238 20.526C29.0744 19.2048 28.8983 17.8848 28.71 16.566C28.9342 16.5449 29.1543 16.5668 29.37 16.632C29.9262 17.2321 30.4322 17.87 30.888 18.546C30.8506 17.7487 30.7405 16.9567 30.558 16.17Z" fill="#211D1B"/>
<path fill-rule="evenodd" clip-rule="evenodd" d="M23.1659 18.942C23.4424 18.9763 23.6184 19.1302 23.6939 19.404C23.3148 19.8158 22.8748 20.1679 22.3739 20.46C22.48 20.6938 22.634 20.8918 22.8359 21.054C23.1973 20.7363 23.5933 20.4723 24.0239 20.262C24.2658 20.328 24.4199 20.482 24.4859 20.724C24.1516 21.0568 23.7776 21.3428 23.3639 21.582C23.3425 21.9339 23.4965 22.1979 23.8259 22.374C24.3219 22.1151 24.7839 21.8071 25.2119 21.45C25.4137 21.6122 25.5677 21.8102 25.6739 22.044C25.0321 22.5317 24.3721 22.9937 23.6939 23.43C22.8553 22.4145 22.0633 21.3585 21.3179 20.262C21.9428 19.8191 22.5587 19.3792 23.1659 18.942Z" fill="#221D1A"/>
<path fill-rule="evenodd" clip-rule="evenodd" d="M41.6462 18.282C41.8074 18.3517 41.9613 18.4397 42.1082 18.546C42.0923 19.4252 42.0923 20.3052 42.1082 21.186C42.4326 20.5586 42.8067 19.9646 43.2302 19.404C43.4836 19.3756 43.7035 19.4637 43.8902 19.668C43.2118 20.7841 42.4858 21.8621 41.7122 22.902C41.5457 22.8678 41.4137 22.7798 41.3162 22.638C41.2456 21.7952 41.2456 20.9591 41.3162 20.13C40.9309 20.7689 40.5128 21.3848 40.0622 21.978C39.8862 21.846 39.7101 21.714 39.5342 21.582C40.2417 20.4797 40.9457 19.3797 41.6462 18.282Z" fill="#211C1A"/>
<path fill-rule="evenodd" clip-rule="evenodd" d="M20.2622 21.186C20.9246 21.4984 20.9465 21.8505 20.3282 22.242C20.9248 23.0571 21.6727 23.7611 22.5722 24.354C22.57 24.627 22.438 24.8469 22.1762 25.014C21.3985 24.3066 20.5846 23.6466 19.7342 23.034C19.4757 23.1987 19.2777 23.4188 19.1402 23.694C18.817 23.5084 18.685 23.2444 18.7442 22.902C19.2513 22.3258 19.7572 21.7539 20.2622 21.186Z" fill="#211D1A"/>
<path opacity="0.663" fill-rule="evenodd" clip-rule="evenodd" d="M2.9699 21.846C2.7939 22.286 2.48589 22.594 2.0459 22.77C2.3099 22.418 2.61789 22.11 2.9699 21.846Z" fill="#72716F"/>
<path opacity="0.635" fill-rule="evenodd" clip-rule="evenodd" d="M2.04591 22.77C1.78191 23.298 1.38591 23.694 0.85791 23.958C1.20991 23.518 1.60591 23.122 2.04591 22.77Z" fill="#5E5B5A"/>
<path fill-rule="evenodd" clip-rule="evenodd" d="M31.3499 20.79C38.12 20.4871 42.8939 23.3911 45.6719 29.502C47.464 36.095 45.55 41.309 39.9299 45.144C34.396 48.0563 29.16 47.6162 24.2219 43.824C19.4936 39.3202 18.4156 34.0621 20.9879 28.05C23.3038 23.9947 26.7579 21.5747 31.3499 20.79Z" fill="#211E1E"/>
<path fill-rule="evenodd" clip-rule="evenodd" d="M31.6141 21.186C37.9434 20.9711 42.4533 23.6991 45.1441 29.37C46.8823 34.9801 45.5843 39.754 41.2501 43.692C37.776 46.2966 33.904 47.1327 29.6341 46.2C22.517 43.6546 19.415 38.6166 20.3281 31.086C21.6205 26.4494 24.5465 23.3474 29.1061 21.78C29.9638 21.5984 30.7998 21.4004 31.6141 21.186Z" fill="#1293DA"/>
<path fill-rule="evenodd" clip-rule="evenodd" d="M32.9342 21.978C33.0156 21.9926 33.0816 22.0366 33.1322 22.11C33.2311 22.6051 33.3631 23.0892 33.5282 23.562C33.6382 23.43 33.7482 23.298 33.8582 23.166C33.96 23.4778 34.0701 23.7859 34.1882 24.09C34.3298 23.8198 34.4838 23.5558 34.6502 23.298C34.7382 23.65 34.8262 24.002 34.9142 24.354C35.4798 23.09 35.7218 23.178 35.6402 24.618C35.8278 24.2868 36.0478 23.9787 36.3002 23.694C36.3442 24.046 36.3882 24.398 36.4322 24.75C36.6522 24.442 36.8722 24.134 37.0922 23.826C37.0508 24.2281 37.0728 24.6241 37.1582 25.014C37.3782 24.75 37.5982 24.486 37.8182 24.222C37.8342 24.5523 37.8562 24.9042 37.8842 25.278C38.8444 24.34 38.9984 24.472 38.3462 25.674C38.3682 25.718 38.3902 25.762 38.4122 25.806C38.6518 25.5545 38.9158 25.3345 39.2042 25.146C39.1864 25.505 39.1424 25.8569 39.0722 26.202C39.7017 25.6583 40.3836 25.2402 41.1182 24.948C40.7699 25.6171 40.4619 26.2991 40.1942 26.994C40.2382 27.038 40.2822 27.082 40.3262 27.126C41.333 26.5575 41.465 26.7114 40.7222 27.588C41.0877 27.6157 41.4177 27.5058 41.7122 27.258C41.6408 27.6397 41.4428 27.9697 41.1182 28.248C41.5087 28.1838 41.9047 28.1399 42.3062 28.116C42.0422 28.38 41.7782 28.644 41.5142 28.908C41.8195 28.8883 42.1276 28.8223 42.4382 28.71C42.5262 28.754 42.6142 28.798 42.7022 28.842C42.4625 29.0156 42.2424 29.2136 42.0422 29.436C42.3502 29.48 42.6582 29.524 42.9662 29.568C42.7462 29.788 42.5262 30.008 42.3062 30.228C43.5747 29.9928 43.6626 30.2128 42.5702 30.888C42.93 30.912 43.2821 30.978 43.6262 31.086C43.3182 31.284 43.0102 31.482 42.7022 31.68C43.5837 31.8223 44.4636 31.9762 45.3422 32.142C44.5942 32.516 43.8462 32.89 43.0982 33.264C43.3622 33.352 43.6262 33.44 43.8902 33.528C43.5669 33.6237 43.2588 33.7557 42.9662 33.924C43.3182 34.056 43.6702 34.188 44.0222 34.32C43.6762 34.4439 43.3242 34.5539 42.9662 34.65C43.2522 34.8411 43.5602 34.9952 43.8902 35.112C43.5469 35.2334 43.1948 35.3215 42.8342 35.376C43.1206 35.5853 43.4287 35.7614 43.7582 35.904C42.4104 35.9225 42.3663 36.1865 43.6262 36.696C43.2302 36.74 42.8342 36.784 42.4382 36.828C42.7462 37.048 43.0542 37.268 43.3622 37.488C43.0102 37.532 42.6582 37.576 42.3062 37.62C42.5317 37.8897 42.7957 38.1097 43.0982 38.28C42.7041 38.2631 42.3081 38.2631 41.9102 38.28C42.4972 39.0213 43.1572 39.7032 43.8902 40.326C43.8022 40.37 43.7142 40.414 43.6262 40.458C42.9314 40.218 42.2274 40.064 41.5142 39.996C41.7465 40.1234 41.7906 40.2774 41.6462 40.458C41.2932 40.3009 40.9413 40.1908 40.5902 40.128C40.9409 40.4126 41.1169 40.7426 41.1182 41.118C39.8836 40.3273 39.7516 40.4814 40.7222 41.58C40.3125 41.4848 39.9165 41.3528 39.5342 41.184C40.3409 42.4142 40.2089 42.5683 39.1382 41.646C39.0942 41.69 39.0502 41.734 39.0062 41.778C39.6279 42.9792 39.4739 43.1112 38.5442 42.174C38.9389 43.3637 38.719 43.4957 37.8842 42.57C37.9176 42.9176 37.9176 43.2696 37.8842 43.626C37.5708 43.3568 37.3068 43.0489 37.0922 42.702C37.1796 43.709 37.2235 44.7209 37.2242 45.738C36.6962 45.034 36.1682 44.33 35.6402 43.626C35.5962 43.89 35.5522 44.154 35.5082 44.418C35.3102 44.11 35.1122 43.802 34.9142 43.494C34.8262 43.846 34.7382 44.198 34.6502 44.55C34.4989 44.1832 34.323 43.8311 34.1222 43.494C34.0261 43.852 33.9162 44.204 33.7922 44.55C33.6965 44.2267 33.5645 43.9186 33.3962 43.626C33.2382 43.9677 33.1062 44.3198 33.0002 44.682C32.7443 43.2827 32.4803 43.2827 32.2082 44.682C32.0923 44.3181 31.9603 43.966 31.8122 43.626C31.3755 44.8313 31.1555 44.7432 31.1522 43.362C30.9322 43.714 30.7122 44.066 30.4922 44.418C30.4482 44.154 30.4042 43.89 30.3602 43.626C29.8322 44.33 29.3042 45.034 28.7762 45.738C28.7544 44.8129 28.7544 43.8889 28.7762 42.966C28.5562 43.186 28.3362 43.406 28.1162 43.626C28.0828 43.2696 28.0828 42.9176 28.1162 42.57C27.4802 43.2914 27.2602 43.1594 27.4562 42.174C26.5277 42.9527 26.3737 42.8207 26.9942 41.778C26.9502 41.734 26.9062 41.69 26.8622 41.646C25.8107 42.5819 25.6787 42.4499 26.4662 41.25C26.4222 41.206 26.3782 41.162 26.3342 41.118C25.2938 41.8593 25.1618 41.7053 25.9382 40.656C25.5756 40.7418 25.2236 40.8958 24.8822 41.118C24.8382 41.074 24.7942 41.03 24.7502 40.986C25.7265 39.9997 25.5945 39.8237 24.3542 40.458C24.3102 40.414 24.2662 40.37 24.2222 40.326C24.3201 40.2221 24.4301 40.1342 24.5522 40.062C24.643 39.9522 24.621 39.8643 24.4862 39.798C23.6929 40.0414 22.9009 40.2394 22.1102 40.392C22.8233 39.7234 23.4833 39.0195 24.0902 38.28C23.6924 38.2631 23.2964 38.2631 22.9022 38.28C23.2047 38.1097 23.4687 37.8897 23.6942 37.62C23.3422 37.576 22.9902 37.532 22.6382 37.488C22.9694 37.3004 23.2775 37.0804 23.5622 36.828C23.1662 36.784 22.7702 36.74 22.3742 36.696C22.67 36.4951 22.978 36.3191 23.2982 36.168C22.8952 36.1444 22.4992 36.0784 22.1102 35.97C22.4683 35.7845 22.8202 35.5865 23.1662 35.376C21.8292 35.2804 21.7852 35.0385 23.0342 34.65C21.6266 34.4495 21.6266 34.2075 23.0342 33.924C22.6657 33.8056 22.3136 33.6517 21.9782 33.462C22.2773 33.3545 22.5854 33.2885 22.9022 33.264C22.1253 32.9533 21.3773 32.5793 20.6582 32.142C21.5368 31.9762 22.4167 31.8223 23.2982 31.68C22.9902 31.482 22.6822 31.284 22.3742 31.086C22.7183 30.978 23.0704 30.912 23.4302 30.888C23.1476 30.7153 22.8836 30.5173 22.6382 30.294C23.0239 30.2413 23.4199 30.2193 23.8262 30.228C22.713 29.5588 22.8011 29.3387 24.0902 29.568C23.8262 29.304 23.5622 29.04 23.2982 28.776C23.6942 28.82 24.0902 28.864 24.4862 28.908C23.5605 28.0732 23.6925 27.8533 24.8822 28.248C24.6937 27.9596 24.4737 27.6956 24.2222 27.456C24.5742 27.5 24.9262 27.544 25.2782 27.588C24.4842 26.6645 24.6162 26.5106 25.6742 27.126C25.7182 27.082 25.7622 27.038 25.8062 26.994C25.4953 26.246 25.2093 25.4979 24.9482 24.75C25.6082 25.234 26.2682 25.718 26.9282 26.202C26.9154 25.8329 26.8054 25.4809 26.5982 25.146C26.9295 25.2637 27.2595 25.4838 27.5882 25.806C27.5241 25.4155 27.4801 25.0195 27.4562 24.618C27.7202 24.882 27.9842 25.146 28.2482 25.41C28.2482 25.058 28.2482 24.706 28.2482 24.354C28.9367 25.2521 29.1568 25.1201 28.9082 23.958C29.1282 24.178 29.3482 24.398 29.5682 24.618C29.6122 24.266 29.6562 23.914 29.7002 23.562C29.8878 23.8932 30.1078 24.2013 30.3602 24.486C30.4042 24.134 30.4482 23.782 30.4922 23.43C30.7174 23.7211 30.9154 24.029 31.0862 24.354C31.1742 24.002 31.2622 23.65 31.3502 23.298C31.5601 23.5858 31.7362 23.8937 31.8782 24.222C31.9743 23.864 32.0843 23.512 32.2082 23.166C32.2962 23.342 32.3842 23.518 32.4722 23.694C32.6406 23.1234 32.7945 22.5514 32.9342 21.978Z" fill="#F6FAF9"/>
<path fill-rule="evenodd" clip-rule="evenodd" d="M45.0782 20.79C45.7535 21.2231 46.3254 21.7731 46.7942 22.44C46.7342 22.6541 46.6022 22.808 46.3982 22.902C45.9979 22.5234 45.58 22.1714 45.1442 21.846C44.9022 21.912 44.7482 22.066 44.6822 22.308C44.9634 22.6998 45.2714 23.0737 45.6062 23.43C45.4838 23.7529 45.2637 23.8628 44.9462 23.76C44.658 23.4498 44.35 23.1638 44.0222 22.902C43.7824 23.0756 43.5624 23.2736 43.3622 23.496C43.7823 23.894 44.1783 24.312 44.5502 24.75C44.4208 24.9455 44.2667 25.1216 44.0882 25.278C43.4942 24.684 42.9002 24.09 42.3062 23.496C43.2163 22.5637 44.1403 21.6616 45.0782 20.79Z" fill="#211C1A"/>
<path fill-rule="evenodd" clip-rule="evenodd" d="M17.8861 23.958C18.9567 24.5598 20.0127 25.1979 21.0541 25.872C21.253 25.9825 21.319 26.1365 21.2521 26.334C21.1025 26.5599 20.9045 26.6259 20.6581 26.532C19.625 25.8715 18.613 25.1894 17.6221 24.486C17.7712 24.3379 17.8593 24.1618 17.8861 23.958Z" fill="#211C1A"/>
<path fill-rule="evenodd" clip-rule="evenodd" d="M46.6622 24.222C48.2233 24.002 48.9493 24.662 48.8402 26.202C48.5449 26.8899 48.2589 26.8899 47.9822 26.202C48.3056 25.479 48.0856 25.0391 47.3222 24.882C46.7223 25.0388 46.2162 25.3468 45.8042 25.806C45.6089 26.5766 45.8949 26.9506 46.6622 26.928C46.7062 26.884 46.7503 26.84 46.7942 26.796C46.3757 26.385 46.4417 26.0989 46.9922 25.938C47.3225 26.2638 47.6085 26.6379 47.8502 27.06C46.3731 28.3453 45.4051 28.0373 44.9462 26.136C44.9309 25.8002 45.0409 25.5142 45.2762 25.278C45.7117 24.8753 46.1737 24.5232 46.6622 24.222Z" fill="#201C19"/>
<path opacity="0.439" fill-rule="evenodd" clip-rule="evenodd" d="M65.1418 24.882C65.0445 25.7411 64.9125 26.577 64.7458 27.39C64.7202 26.5109 64.8522 25.6749 65.1418 24.882Z" fill="#777472"/>
<path opacity="0.729" fill-rule="evenodd" clip-rule="evenodd" d="M0.990234 25.41C1.09388 25.6574 1.18188 25.9214 1.25423 26.202C1.25423 26.642 1.25423 27.082 1.25423 27.522C1.11545 26.8427 1.02745 26.1388 0.990234 25.41Z" fill="#6D6B69"/>
<path fill-rule="evenodd" clip-rule="evenodd" d="M37.9499 27.258C38.1735 27.6639 38.2836 28.1039 38.2799 28.578C37.1579 29.7 36.0359 30.822 34.9139 31.944C34.7432 32.0087 34.5671 32.0307 34.3859 32.01C34.3458 31.9242 34.3018 31.8362 34.2539 31.746C34.9766 30.2823 35.7247 28.8303 36.4979 27.39C36.974 27.2595 37.4581 27.2154 37.9499 27.258Z" fill="#F0C335"/>
<path fill-rule="evenodd" clip-rule="evenodd" d="M16.3022 26.862C17.278 27.2757 18.246 27.7156 19.2062 28.182C19.4596 27.8073 19.6796 27.4113 19.8662 26.994C20.1597 26.825 20.4237 26.869 20.6582 27.126C20.3441 27.8445 19.9702 28.5045 19.5362 29.106C18.4944 28.6621 17.4603 28.2001 16.4342 27.72C16.1261 27.4769 16.082 27.1908 16.3022 26.862Z" fill="#221D1B"/>
<path fill-rule="evenodd" clip-rule="evenodd" d="M49.5661 27.786C49.8236 27.75 50.0216 27.8379 50.1601 28.05C50.4109 28.7356 50.565 29.4396 50.6221 30.162C50.4334 30.1516 50.2573 30.1955 50.0941 30.294C49.9001 29.8707 49.746 29.4306 49.6321 28.974C49.3624 28.6484 49.0764 28.6484 48.7741 28.974C48.8859 29.3771 49.0179 29.7731 49.1701 30.162C49.0147 30.4887 48.7507 30.6207 48.3781 30.558C48.345 30.0631 48.2571 29.5792 48.1141 29.106C47.8025 29.129 47.4945 29.1729 47.1901 29.238C47.2944 29.8151 47.4264 30.3872 47.5861 30.954C47.348 31.1214 47.084 31.2094 46.7941 31.218C46.6182 30.382 46.4421 29.546 46.2661 28.71C47.4102 28.5091 48.5101 28.2011 49.5661 27.786Z" fill="#231E1C"/>
<path fill-rule="evenodd" clip-rule="evenodd" d="M64.6139 27.654C64.5209 30.1165 64.4549 32.5805 64.4159 35.046C64.3312 35.7993 64.2212 36.5472 64.0859 37.29C63.8621 37.505 63.7301 37.4611 63.6899 37.158C63.7573 36.6221 63.8673 36.0941 64.0199 35.574C64.0437 33.2323 64.1097 30.9003 64.2179 28.578C64.273 28.227 64.405 27.9191 64.6139 27.654Z" fill="#211C16"/>
<path fill-rule="evenodd" clip-rule="evenodd" d="M36.6299 26.994C37.1579 26.994 37.6859 26.994 38.2139 26.994C38.3095 27.4353 38.4194 27.8752 38.5439 28.314C38.9988 28.6206 39.5047 28.7967 40.0619 28.842C40.04 29.3718 40.062 29.8998 40.1279 30.426C40.48 30.69 40.8319 30.954 41.1839 31.218C41.1217 31.6566 41.0116 32.0967 40.8539 32.538C41.0886 33.0152 41.3526 33.4772 41.6459 33.924C41.4337 34.3559 41.1697 34.7519 40.8539 35.112C41.0769 35.6021 41.1869 36.1081 41.1839 36.63C40.8082 36.8619 40.4563 37.1259 40.1279 37.422C40.1047 37.9748 40.0387 38.5028 39.9299 39.006C39.8937 38.3773 39.9377 37.7612 40.0619 37.158C41.1382 36.6811 41.2702 36.0211 40.4579 35.178C40.546 35.09 40.6339 35.002 40.7219 34.914C40.9249 34.5742 41.145 34.2442 41.3819 33.924C41.2382 33.5391 41.0181 33.2091 40.7219 32.934C40.546 32.846 40.3699 32.758 40.1939 32.67C40.349 32.6989 40.481 32.6549 40.5899 32.538C40.7223 32.1853 40.8543 31.8334 40.9859 31.482C40.7582 31.1259 40.4501 30.8619 40.0619 30.69C39.9739 30.602 39.886 30.514 39.7979 30.426C39.7979 29.942 39.7979 29.458 39.7979 28.974C39.3244 28.8082 38.8404 28.7422 38.3459 28.776C37.2239 29.898 36.1019 31.02 34.9799 32.142C34.9035 32.3305 34.9255 32.5066 35.0459 32.67C35.1944 32.8221 35.1944 32.9541 35.0459 33.066C34.8768 32.677 34.6128 32.3689 34.2539 32.142C34.2539 32.054 34.2979 32.01 34.3859 32.01C34.5671 32.0307 34.7432 32.0087 34.9139 31.944C36.0359 30.822 37.1579 29.7 38.2799 28.578C38.2836 28.1039 38.1735 27.6639 37.9499 27.258C37.51 27.17 37.0699 27.082 36.6299 26.994Z" fill="#2D241D"/>
<path fill-rule="evenodd" clip-rule="evenodd" d="M39.798 30.426C38.2126 31.1747 36.6286 31.9227 35.046 32.67C34.9257 32.5066 34.9036 32.3305 34.98 32.142C36.102 31.02 37.224 29.898 38.346 28.776C38.8405 28.7422 39.3246 28.8082 39.798 28.974C39.798 29.458 39.798 29.942 39.798 30.426Z" fill="#F2C536"/>
<path fill-rule="evenodd" clip-rule="evenodd" d="M40.0622 30.69C40.4505 30.8619 40.7585 31.1259 40.9862 31.482C40.8546 31.8334 40.7226 32.1853 40.5902 32.538C40.4813 32.655 40.3493 32.6989 40.1942 32.67C38.5666 32.9047 36.9385 33.1247 35.3102 33.33C35.2757 33.1349 35.3196 32.959 35.4422 32.802C36.9414 31.9861 38.4814 31.282 40.0622 30.69Z" fill="#F2C535"/>
<path fill-rule="evenodd" clip-rule="evenodd" d="M16.1699 29.238C17.1232 29.1184 18.0033 29.3164 18.8099 29.832C19.5935 30.8694 19.4175 31.7053 18.2819 32.34C17.1079 32.6381 16.1179 32.3521 15.3119 31.482C14.9369 30.4733 15.2228 29.7252 16.1699 29.238Z" fill="#211C19"/>
<path fill-rule="evenodd" clip-rule="evenodd" d="M16.3018 30.03C17.1508 29.8778 17.8768 30.0978 18.4798 30.69C18.4976 31.3764 18.1455 31.7284 17.4238 31.746C16.6715 31.757 16.1654 31.427 15.9058 30.756C15.9537 30.4667 16.0857 30.2246 16.3018 30.03Z" fill="#F1F1F1"/>
<path fill-rule="evenodd" clip-rule="evenodd" d="M50.4901 31.35C50.6661 31.35 50.8421 31.35 51.0181 31.35C51.1447 32.0942 51.1667 32.8423 51.0841 33.594C50.3473 34.2948 49.6213 34.2948 48.9061 33.594C48.3781 33.946 47.8501 34.298 47.3221 34.65C47.1461 34.342 47.1461 34.034 47.3221 33.726C47.6301 33.528 47.9381 33.33 48.2461 33.132C48.5242 32.9652 48.6562 32.7232 48.6421 32.406C48.1141 32.406 47.5861 32.406 47.0581 32.406C47.0581 32.142 47.0581 31.878 47.0581 31.614C48.2266 31.5891 49.3706 31.5011 50.4901 31.35Z" fill="#262220"/>
<path fill-rule="evenodd" clip-rule="evenodd" d="M34.2539 32.142C34.6128 32.3689 34.8768 32.677 35.0459 33.066C35.4454 34.5102 34.9613 35.5223 33.5939 36.102C31.254 36.0418 30.4401 34.8979 31.1519 32.67C32.046 31.6541 33.0799 31.4782 34.2539 32.142Z" fill="#F9FAF9"/>
<path fill-rule="evenodd" clip-rule="evenodd" d="M1.64991 26.862C1.89308 29.6246 1.98107 32.3966 1.91391 35.178C1.9406 35.5065 1.8746 35.8146 1.71591 36.102C1.67916 35.9811 1.61316 35.8932 1.51791 35.838C1.51791 35.75 1.51791 35.662 1.51791 35.574C1.60389 33.4134 1.5159 31.3014 1.25391 29.238C1.25391 28.666 1.25391 28.094 1.25391 27.522C1.25391 27.082 1.25391 26.642 1.25391 26.202C1.34916 26.1468 1.41516 26.0589 1.45191 25.938C1.47648 26.2727 1.54248 26.5807 1.64991 26.862Z" fill="#27221B"/>
<path fill-rule="evenodd" clip-rule="evenodd" d="M49.4338 32.274C49.7418 32.274 50.0499 32.274 50.3578 32.274C50.3578 32.626 50.3578 32.978 50.3578 33.33C49.5123 33.4744 49.2044 33.1224 49.4338 32.274Z" fill="#EFEEEE"/>
<path opacity="0.675" fill-rule="evenodd" clip-rule="evenodd" d="M1.25391 29.238C1.5159 31.3014 1.60389 33.4134 1.51791 35.574C1.42805 33.4749 1.34005 31.3629 1.25391 29.238Z" fill="#585554"/>
<path fill-rule="evenodd" clip-rule="evenodd" d="M40.7219 32.934C41.0181 33.2091 41.2381 33.5391 41.3819 33.924C41.145 34.2442 40.9249 34.5742 40.7219 34.914C38.9689 34.642 37.2088 34.4219 35.4419 34.254C35.4419 34.034 35.4419 33.814 35.4419 33.594C37.1968 33.3312 38.9568 33.1113 40.7219 32.934Z" fill="#F1C436"/>
<path fill-rule="evenodd" clip-rule="evenodd" d="M39.7982 30.426C39.8863 30.514 39.9742 30.602 40.0622 30.69C38.4814 31.282 36.9414 31.9861 35.4422 32.802C35.3196 32.9589 35.2757 33.1349 35.3102 33.33C36.9385 33.1247 38.5665 32.9047 40.1942 32.67C40.3702 32.758 40.5463 32.846 40.7222 32.934C38.9571 33.1113 37.1972 33.3312 35.4422 33.594C35.4422 33.814 35.4422 34.034 35.4422 34.254C37.2092 34.4219 38.9693 34.6419 40.7222 34.914C40.6342 35.002 40.5463 35.09 40.4582 35.178C38.7433 34.9141 37.0273 34.6501 35.3102 34.386C35.282 34.603 35.3261 34.801 35.4422 34.98C36.9547 35.7803 38.4946 36.5063 40.0622 37.158C39.938 37.7612 39.8941 38.3773 39.9302 39.006C39.7377 38.9972 39.5617 39.0411 39.4022 39.138C39.3571 39.0274 39.2692 38.9833 39.1382 39.006C39.3201 38.9091 39.5181 38.8211 39.7322 38.742C39.8364 38.268 39.8143 37.806 39.6662 37.356C38.2004 36.612 36.7263 35.886 35.2442 35.178C34.9554 35.2518 34.8675 35.4279 34.9802 35.706C36.2129 36.7847 37.3789 37.9287 38.4782 39.138C38.3902 39.138 38.3462 39.182 38.3462 39.27C37.1408 38.1307 35.9528 36.9647 34.7822 35.772C34.5577 35.7265 34.3818 35.8145 34.2542 36.036C34.9891 37.484 35.7371 38.9141 36.4982 40.326C36.4102 40.326 36.3662 40.37 36.3662 40.458C35.622 39.0581 34.8741 37.6501 34.1222 36.234C33.9638 36.1295 33.7879 36.1295 33.5942 36.234C33.5942 36.19 33.5942 36.146 33.5942 36.102C34.9616 35.5223 35.4457 34.5102 35.0462 33.066C35.1947 32.9541 35.1947 32.8221 35.0462 32.67C36.6288 31.9227 38.2128 31.1747 39.7982 30.426Z" fill="#392C19"/>
<path fill-rule="evenodd" clip-rule="evenodd" d="M40.458 35.178C41.2704 36.0211 41.1384 36.6811 40.062 37.158C38.4944 36.5063 36.9545 35.7803 35.442 34.98C35.3259 34.801 35.2818 34.603 35.31 34.386C37.0271 34.6501 38.7431 34.9141 40.458 35.178Z" fill="#F1C435"/>
<path fill-rule="evenodd" clip-rule="evenodd" d="M18.9419 35.706C17.6219 35.706 16.3019 35.706 14.9819 35.706C14.9819 35.134 14.9819 34.562 14.9819 33.99C15.0368 33.6927 15.2128 33.4947 15.5099 33.396C16.9617 33.0228 17.6217 33.5729 17.4899 35.046C17.974 35.046 18.4579 35.046 18.9419 35.046C18.9419 35.266 18.9419 35.486 18.9419 35.706Z" fill="#1D1815"/>
<path fill-rule="evenodd" clip-rule="evenodd" d="M15.7738 34.122C16.5658 33.946 16.8738 34.254 16.6978 35.046C16.3458 35.046 15.9939 35.046 15.6418 35.046C15.6152 34.7226 15.6591 34.4146 15.7738 34.122Z" fill="#EDEDEC"/>
<path fill-rule="evenodd" clip-rule="evenodd" d="M47.0581 35.046C48.3747 35.2068 49.6947 35.3388 51.0181 35.442C51.0181 35.706 51.0181 35.97 51.0181 36.234C49.696 36.1213 48.376 35.9893 47.0581 35.838C47.0581 35.574 47.0581 35.31 47.0581 35.046Z" fill="#241F1D"/>
<path fill-rule="evenodd" clip-rule="evenodd" d="M14.9819 33.99C14.9819 34.562 14.9819 35.134 14.9819 35.706C16.3019 35.706 17.6219 35.706 18.9419 35.706C17.6017 35.8372 16.2378 35.8813 14.8499 35.838C14.8078 35.1961 14.8518 34.58 14.9819 33.99Z" fill="#7F7C7B"/>
<path fill-rule="evenodd" clip-rule="evenodd" d="M36.63 26.994C37.07 27.082 37.51 27.17 37.95 27.258C37.4582 27.2154 36.9741 27.2595 36.498 27.39C35.7247 28.8303 34.9767 30.2823 34.254 31.746C34.3019 31.8362 34.3459 31.9242 34.386 32.01C34.298 32.01 34.254 32.054 34.254 32.142C33.08 31.4782 32.046 31.6541 31.152 32.67C30.4401 34.8979 31.254 36.0418 33.594 36.102C33.594 36.146 33.594 36.19 33.594 36.234C33.7862 37.9591 34.0502 39.6751 34.386 41.382C34.7551 41.5271 35.129 41.6591 35.508 41.778C35.962 41.4409 36.248 41.0008 36.366 40.458C36.366 40.37 36.41 40.326 36.498 40.326C36.5127 40.4074 36.5566 40.4734 36.63 40.524C37.1121 40.5899 37.596 40.6118 38.082 40.59C38.092 40.1316 38.1799 39.6916 38.346 39.27C38.346 39.182 38.39 39.138 38.478 39.138C38.7045 39.121 38.9246 39.077 39.138 39.006C39.2689 38.9833 39.3569 39.0274 39.402 39.138C39.0589 39.1445 38.7729 39.2765 38.544 39.534C38.3655 39.959 38.2555 40.399 38.214 40.854C37.6403 40.8321 37.0684 40.8541 36.498 40.92C36.2087 41.2966 35.9227 41.6706 35.64 42.042C35.2076 41.8832 34.7676 41.7512 34.32 41.646C33.8226 41.807 33.3825 42.071 33 42.438C32.6018 42.0522 32.1398 41.7882 31.614 41.646C31.173 41.7124 30.7549 41.8444 30.36 42.042C30.074 41.668 29.788 41.294 29.502 40.92C28.974 40.876 28.446 40.832 27.918 40.788C27.7996 40.2566 27.5797 39.7725 27.258 39.336C26.8192 39.2115 26.3793 39.1016 25.938 39.006C26.245 37.867 25.8709 37.075 24.816 36.63C24.8004 36.1247 24.9104 35.6408 25.146 35.178C24.8996 34.7518 24.6356 34.3337 24.354 33.924C24.6473 33.4772 24.9113 33.0152 25.146 32.538C25.0403 32.133 24.9083 31.737 24.75 31.35C25.1015 31.0211 25.4755 30.713 25.872 30.426C25.8948 29.8926 25.9608 29.3646 26.07 28.842C26.5468 28.6957 27.0088 28.5197 27.456 28.314C27.5805 27.8752 27.6904 27.4353 27.786 26.994C28.3597 27.0159 28.9316 26.9939 29.502 26.928C29.7326 26.488 30.0406 26.114 30.426 25.806C30.8315 25.9779 31.2494 26.1099 31.68 26.202C32.1358 25.9736 32.5759 25.7096 33 25.41C33.4182 25.7073 33.8581 25.9713 34.32 26.202C34.734 26.0567 35.152 25.9247 35.574 25.806C35.9567 26.176 36.3087 26.572 36.63 26.994Z" fill="#31271B"/>
<path fill-rule="evenodd" clip-rule="evenodd" d="M30.1621 34.386C30.338 34.386 30.5141 34.386 30.6901 34.386C30.7183 34.603 30.6742 34.801 30.5581 34.98C29.0776 35.7423 27.5816 36.4683 26.0701 37.158C25.7253 36.9686 25.3953 36.7485 25.0801 36.498C25.0796 36.0583 25.1895 35.6403 25.4101 35.244C27.0112 34.9499 28.5952 34.664 30.1621 34.386Z" fill="#F2C536"/>
<path fill-rule="evenodd" clip-rule="evenodd" d="M25.2782 32.934C26.954 33.1253 28.6259 33.3453 30.2942 33.594C30.526 33.7329 30.614 33.9529 30.5582 34.254C28.7964 34.4713 27.0363 34.6693 25.2782 34.848C25.0563 34.5386 24.8362 34.2306 24.6182 33.924C24.7896 33.5584 25.0095 33.2284 25.2782 32.934Z" fill="#F2C536"/>
<path fill-rule="evenodd" clip-rule="evenodd" d="M25.6738 32.67C27.3315 32.9885 29.0035 33.2086 30.6898 33.33C30.5578 33.418 30.4258 33.506 30.2938 33.594C28.6256 33.3453 26.9537 33.1253 25.2778 32.934C25.4098 32.846 25.5418 32.758 25.6738 32.67Z" fill="#44351B"/>
<path fill-rule="evenodd" clip-rule="evenodd" d="M30.6902 33.33C29.0039 33.2086 27.3318 32.9885 25.6742 32.67C25.5585 32.6873 25.4705 32.6433 25.4102 32.538C25.2651 32.1689 25.1331 31.795 25.0142 31.416C25.3377 31.0995 25.6897 30.8136 26.0702 30.558C27.5661 31.306 29.0622 32.054 30.5582 32.802C30.6808 32.9589 30.7247 33.1349 30.6902 33.33Z" fill="#F1C436"/>
<path fill-rule="evenodd" clip-rule="evenodd" d="M27.1258 28.71C27.307 28.6893 27.4831 28.7113 27.6538 28.776C28.7758 29.898 29.8978 31.02 31.0198 32.142C31.1297 32.56 30.9758 32.714 30.5578 32.604C29.1497 31.9 27.7418 31.196 26.3338 30.492C26.1628 29.9923 26.1628 29.4862 26.3338 28.974C26.6185 28.9014 26.8825 28.8134 27.1258 28.71Z" fill="#EFC335"/>
<path fill-rule="evenodd" clip-rule="evenodd" d="M27.9181 27.258C28.4534 27.2152 28.9814 27.2592 29.5021 27.39C30.2754 28.8303 31.0234 30.2823 31.7461 31.746C31.5163 32.2357 31.2523 32.2576 30.9541 31.812C29.8761 30.734 28.7982 29.656 27.7201 28.578C27.7138 28.1321 27.7798 27.6922 27.9181 27.258Z" fill="#F0C435"/>
<path fill-rule="evenodd" clip-rule="evenodd" d="M35.1782 26.07C35.3595 26.0493 35.5356 26.0713 35.7062 26.136C35.9805 26.4543 36.2006 26.8063 36.3662 27.192C35.6035 28.7394 34.7896 30.2574 33.9242 31.746C33.7171 31.5858 33.6072 31.3657 33.5942 31.086C33.7672 29.5027 34.0312 27.9406 34.3862 26.4C34.7128 26.3951 34.9768 26.2852 35.1782 26.07Z" fill="#F0C335"/>
<path fill-rule="evenodd" clip-rule="evenodd" d="M30.2938 26.07C30.7689 26.2283 31.2528 26.3603 31.7458 26.466C31.9716 27.981 32.1917 29.499 32.4058 31.02C32.3975 31.3211 32.2874 31.563 32.0758 31.746C31.2104 30.2574 30.3965 28.7394 29.6338 27.192C29.8377 26.8056 30.0578 26.4317 30.2938 26.07Z" fill="#F0C435"/>
<path fill-rule="evenodd" clip-rule="evenodd" d="M32.8019 25.674C33.1504 25.7339 33.4584 25.888 33.7259 26.136C33.9165 26.2846 34.0044 26.4826 33.9899 26.73C33.7696 28.3158 33.5496 29.8998 33.3299 31.482C33.1099 31.482 32.89 31.482 32.6699 31.482C32.5131 29.8588 32.2491 28.2527 31.8779 26.664C32.13 26.2757 32.4381 25.9457 32.8019 25.674Z" fill="#F2C535"/>
<path fill-rule="evenodd" clip-rule="evenodd" d="M39.1381 39.006C38.9247 39.077 38.7046 39.121 38.4781 39.138C37.3788 37.9287 36.2127 36.7847 34.9801 35.706C34.8674 35.4279 34.9553 35.2518 35.2441 35.178C36.7262 35.886 38.2003 36.612 39.6661 37.356C39.8142 37.806 39.8363 38.268 39.7321 38.742C39.518 38.8211 39.32 38.9091 39.1381 39.006Z" fill="#F2C535"/>
<path opacity="0.333" fill-rule="evenodd" clip-rule="evenodd" d="M64.6139 27.654C64.6579 27.654 64.702 27.654 64.7459 27.654C64.6716 30.2495 64.6056 32.8454 64.5479 35.442C64.4837 36.0974 64.3296 36.7134 64.0859 37.29C64.2212 36.5472 64.3312 35.7993 64.4159 35.046C64.4549 32.5805 64.5209 30.1165 64.6139 27.654Z" fill="#6A6564"/>
<path fill-rule="evenodd" clip-rule="evenodd" d="M30.5581 35.178C30.8459 35.1495 31.0659 35.2594 31.2181 35.508C30.0301 36.696 28.8421 37.884 27.6541 39.072C27.1662 39.0716 26.6821 39.0056 26.2021 38.874C26.1634 38.3543 26.2073 37.8484 26.3341 37.356C27.7709 36.6598 29.1788 35.9338 30.5581 35.178Z" fill="#EFC336"/>
<path fill-rule="evenodd" clip-rule="evenodd" d="M31.8778 36.102C32.0912 36.173 32.3113 36.217 32.5378 36.234C32.2622 37.9549 31.9541 39.6709 31.6138 41.382C31.2447 41.5271 30.8708 41.6591 30.4918 41.778C30.1584 41.4414 29.8723 41.0674 29.6338 40.656C30.4329 39.1677 31.181 37.6497 31.8778 36.102Z" fill="#F1C434"/>
<path fill-rule="evenodd" clip-rule="evenodd" d="M31.2178 35.706C31.4665 35.734 31.6424 35.866 31.7458 36.102C30.9641 37.5333 30.216 38.9853 29.5018 40.458C28.3067 40.8891 27.7127 40.4931 27.7198 39.27C28.9125 38.0994 30.0785 36.9114 31.2178 35.706Z" fill="#F1C435"/>
<path fill-rule="evenodd" clip-rule="evenodd" d="M36.3662 40.458C36.2482 41.0008 35.9622 41.4409 35.5082 41.778C35.1293 41.6591 34.7553 41.5271 34.3862 41.382C34.0504 39.6751 33.7864 37.9591 33.5942 36.234C33.7879 36.1295 33.9638 36.1295 34.1222 36.234C34.8741 37.6501 35.622 39.0581 36.3662 40.458Z" fill="#EFC335"/>
<path fill-rule="evenodd" clip-rule="evenodd" d="M32.6698 36.234C32.8898 36.234 33.1097 36.234 33.3298 36.234C33.6016 37.952 33.8436 39.668 34.0558 41.382C33.7378 41.6618 33.4078 41.9258 33.0658 42.174C32.4508 41.9427 32.0989 41.5247 32.0098 40.92C32.2854 39.365 32.5053 37.8031 32.6698 36.234Z" fill="#EFC235"/>
<path fill-rule="evenodd" clip-rule="evenodd" d="M38.3459 39.27C38.1799 39.6916 38.0919 40.1316 38.0819 40.59C37.5959 40.6118 37.112 40.5899 36.6299 40.524C36.5565 40.4734 36.5126 40.4074 36.4979 40.326C35.7368 38.9141 34.9888 37.484 34.2539 36.036C34.3814 35.8145 34.5574 35.7265 34.7819 35.772C35.9525 36.9647 37.1405 38.1307 38.3459 39.27Z" fill="#F2C535"/>
<path opacity="0.875" fill-rule="evenodd" clip-rule="evenodd" d="M5.8738 45.738C5.7029 46.8814 5.7029 48.0254 5.8738 49.17C5.36238 48.0233 5.36238 46.8793 5.8738 45.738Z" fill="#62605E"/>
<path opacity="0.576" fill-rule="evenodd" clip-rule="evenodd" d="M60.258 46.53C60.3456 46.8571 60.3896 47.2091 60.39 47.586C60.4115 48.1506 60.3236 48.6786 60.126 49.17C60.2284 48.2939 60.2724 47.4139 60.258 46.53Z" fill="#696764"/>
<path fill-rule="evenodd" clip-rule="evenodd" d="M1.91407 35.178C2.0424 36.1152 2.28439 37.0392 2.64007 37.95C3.29726 39.5319 4.46325 40.4779 6.13807 40.788C7.24069 40.8102 8.3407 40.8762 9.43807 40.986C9.74332 41.5261 9.89731 42.0982 9.90007 42.702C9.07358 43.126 8.30358 43.6319 7.59007 44.22C7.02787 44.6633 6.60987 45.2133 6.33607 45.87C5.88929 47.9045 6.24129 49.7965 7.39207 51.546C8.71207 53.394 10.0321 55.242 11.3521 57.09C12.1125 58.2141 12.7725 59.4021 13.3321 60.654C15.2486 61.0373 17.1626 61.4554 19.0741 61.908C20.9342 62.5867 22.8262 63.1587 24.7501 63.624C25.8061 63.712 26.8621 63.712 27.9181 63.624C28.5804 63.462 29.1965 63.198 29.7661 62.832C30.971 61.5663 31.7189 60.0703 32.0101 58.344C32.6744 58.2346 33.3344 58.2566 33.9901 58.41C34.163 59.1203 34.361 59.8242 34.5841 60.522C35.1175 62.1996 36.2395 63.2335 37.9501 63.624C39.1869 63.7206 40.4189 63.6765 41.6461 63.492C44.2304 62.7059 46.8264 61.958 49.4341 61.248C50.4866 61.0504 51.5426 60.8744 52.6021 60.72C53.322 59.3457 54.092 58.0037 54.9121 56.694C56.2321 54.846 57.5521 52.998 58.8721 51.15C59.8836 49.4318 60.1036 47.6277 59.5321 45.738C58.6328 44.4519 57.4888 43.4399 56.1001 42.702C56.1993 42.0947 56.3093 41.4786 56.4301 40.854C58.1432 41.1329 59.8152 40.9789 61.4461 40.392C62.5711 39.5708 63.3192 38.4928 63.6901 37.158C63.7302 37.4611 63.8622 37.505 64.0861 37.29C63.5973 39.3847 62.3212 40.7266 60.2581 41.316C59.1293 41.503 58.0073 41.569 56.8921 41.514C56.8073 41.8126 56.6974 42.0986 56.5621 42.372C58.124 43.23 59.3341 44.44 60.1921 46.002C60.2568 46.1727 60.2788 46.3488 60.2581 46.53C60.2725 47.4139 60.2285 48.2939 60.1261 49.17C59.9464 50.1707 59.5723 51.0947 59.0041 51.942C57.8161 53.57 56.6281 55.198 55.4401 56.826C54.5654 58.2892 53.7074 59.7631 52.8661 61.248C49.2641 61.7965 45.7441 62.6765 42.3061 63.888C41.829 64.0116 41.3451 64.0776 40.8541 64.086C39.7517 64.0884 38.6518 64.0444 37.5541 63.954C35.7334 63.5637 34.5674 62.4637 34.0561 60.654C33.8189 60.057 33.6648 59.4409 33.5941 58.806C33.1981 58.806 32.8021 58.806 32.4061 58.806C32.3769 59.1448 32.2889 59.4529 32.1421 59.73C31.9787 59.9562 31.8906 60.2202 31.8781 60.522C30.969 63.1343 29.121 64.3662 26.3341 64.218C25.3937 64.2432 24.4697 64.1333 23.5621 63.888C20.1738 62.6558 16.6978 61.7757 13.1341 61.248C11.3036 57.8795 9.2136 54.6896 6.86407 51.678C6.3852 50.897 6.0552 50.061 5.87407 49.17C5.70317 48.0254 5.70317 46.8814 5.87407 45.738C6.69323 44.2372 7.88123 43.1152 9.43807 42.372C9.30279 42.0986 9.1928 41.8126 9.10807 41.514C7.961 41.5073 6.795 41.3973 5.61007 41.184C3.90644 40.7563 2.74043 39.7224 2.11207 38.082C1.81887 37.3569 1.62087 36.6089 1.51807 35.838C1.61332 35.8932 1.67932 35.9811 1.71607 36.102C1.87476 35.8146 1.94076 35.5065 1.91407 35.178Z" fill="#302B26"/>
<path opacity="0.016" fill-rule="evenodd" clip-rule="evenodd" d="M32.1419 59.73C32.1737 60.0465 32.0857 60.3105 31.8779 60.522C31.8905 60.2202 31.9785 59.9562 32.1419 59.73Z" fill="#9C999B"/>
<path fill-rule="evenodd" clip-rule="evenodd" d="M33.5941 49.698C33.7248 50.4649 33.7687 51.2569 33.7261 52.074C33.4311 52.1129 33.1671 52.0689 32.9341 51.942C33.1541 51.942 33.374 51.942 33.5941 51.942C33.5941 51.194 33.5941 50.446 33.5941 49.698Z" fill="#969493"/>
<path fill-rule="evenodd" clip-rule="evenodd" d="M35.838 47.718C36.1371 47.6706 36.3791 47.7587 36.564 47.982C36.76 48.8544 36.9141 49.7343 37.026 50.622C36.9363 51.5996 36.4083 51.9736 35.442 51.744C34.999 51.4342 34.867 51.0382 35.046 50.556C35.2167 50.4913 35.3928 50.4693 35.574 50.49C35.5542 50.9733 35.7522 51.1053 36.168 50.886C36.1901 50.754 36.212 50.622 36.234 50.49C36.0503 49.5718 35.9183 48.6478 35.838 47.718Z" fill="#241F1D"/>
<path fill-rule="evenodd" clip-rule="evenodd" d="M38.7418 46.794C38.942 46.7955 39.0961 46.8834 39.2038 47.058C39.9685 48.0429 40.7824 48.9889 41.6458 49.896C41.4257 50.006 41.2058 50.116 40.9858 50.226C40.7218 50.006 40.4578 49.786 40.1938 49.566C39.8887 49.6602 39.6027 49.7922 39.3358 49.962C39.4687 50.6934 39.1827 51.0894 38.4778 51.15C38.4608 49.778 38.3948 48.414 38.2798 47.058C38.4516 46.9808 38.6057 46.8929 38.7418 46.794Z" fill="#201C19"/>
<path fill-rule="evenodd" clip-rule="evenodd" d="M30.558 47.85C30.646 48.554 30.734 49.258 30.822 49.962C30.7846 50.0662 30.7186 50.1542 30.624 50.226C30.5581 49.4352 30.5361 48.6432 30.558 47.85Z" fill="#9C9998"/>
<path fill-rule="evenodd" clip-rule="evenodd" d="M28.7098 47.454C28.6879 48.2472 28.7099 49.0392 28.7758 49.83C28.8704 49.7582 28.9364 49.6702 28.9738 49.566C29.1554 48.9822 29.3755 48.4102 29.6338 47.85C29.9389 47.7081 30.2468 47.7081 30.5578 47.85C30.5359 48.6432 30.5579 49.4352 30.6238 50.226C30.7184 50.1542 30.7844 50.0662 30.8218 49.962C30.9686 49.2339 31.2545 48.5739 31.6798 47.982C31.8956 48.0319 32.0936 48.1198 32.2738 48.246C31.7898 49.39 31.3058 50.534 30.8218 51.678C30.5715 51.8055 30.3075 51.8495 30.0298 51.81C30.0367 50.9248 29.9707 50.0449 29.8318 49.17C29.5238 49.874 29.2158 50.578 28.9078 51.282C28.6384 51.4038 28.3523 51.4478 28.0498 51.414C28.0498 50.094 28.0498 48.774 28.0498 47.454C28.2698 47.454 28.4898 47.454 28.7098 47.454Z" fill="#211C1A"/>
<path fill-rule="evenodd" clip-rule="evenodd" d="M39.0059 48.114C39.294 48.2922 39.5141 48.5343 39.6659 48.84C39.5182 49.0876 39.2981 49.1976 39.0059 49.17C39.0059 48.818 39.0059 48.466 39.0059 48.114Z" fill="#D6D4D4"/>
<path fill-rule="evenodd" clip-rule="evenodd" d="M33.5938 49.698C33.5938 50.446 33.5938 51.194 33.5938 51.942C33.3737 51.942 33.1538 51.942 32.9338 51.942C32.9336 50.6202 32.8897 49.3002 32.8018 47.982C33.0658 47.982 33.3298 47.982 33.5938 47.982C33.5938 48.554 33.5938 49.126 33.5938 49.698Z" fill="#211B19"/>
<path fill-rule="evenodd" clip-rule="evenodd" d="M28.7099 47.454C28.7979 48.158 28.8858 48.862 28.9739 49.566C28.9365 49.6702 28.8705 49.7582 28.7759 49.83C28.71 49.0392 28.6879 48.2472 28.7099 47.454Z" fill="#ACA9A6"/>
<path fill-rule="evenodd" clip-rule="evenodd" d="M26.9942 46.794C27.3114 46.8197 27.5314 46.9738 27.6542 47.256C27.1295 48.4155 26.5575 49.5375 25.9382 50.622C25.7098 50.5526 25.5337 50.4206 25.4102 50.226C26.0119 49.1107 26.5399 47.9667 26.9942 46.794Z" fill="#211C1A"/>
<path fill-rule="evenodd" clip-rule="evenodd" d="M42.1742 44.682C42.3175 44.6978 42.4056 44.7859 42.4382 44.946C42.486 46.2981 42.9259 47.4861 43.7582 48.51C43.5822 48.642 43.4061 48.774 43.2302 48.906C42.8573 48.5107 42.5052 48.0926 42.1742 47.652C41.4053 47.2897 40.6572 46.8937 39.9302 46.464C40.0919 46.2577 40.2899 46.1036 40.5242 46.002C40.9826 46.1872 41.4226 46.4072 41.8442 46.662C41.8442 46.134 41.8442 45.606 41.8442 45.078C41.9821 44.9628 42.0921 44.8308 42.1742 44.682Z" fill="#241F1D"/>
<path fill-rule="evenodd" clip-rule="evenodd" d="M23.9579 45.078C24.633 45.3322 25.227 45.7282 25.7399 46.266C25.9033 47.3485 25.4413 47.9205 24.3539 47.982C24.3433 48.6177 24.2332 49.2338 24.0239 49.83C23.8243 49.7301 23.6482 49.5981 23.4959 49.434C23.5675 48.7447 23.5455 48.0628 23.4299 47.388C23.3418 47.3 23.2539 47.3 23.1659 47.388C22.8789 47.7845 22.5708 48.1585 22.2419 48.51C22.0135 48.4406 21.8374 48.3086 21.7139 48.114C22.4309 47.0746 23.1789 46.0626 23.9579 45.078Z" fill="#211C1A"/>
<path fill-rule="evenodd" clip-rule="evenodd" d="M24.0898 46.002C24.3886 46.1447 24.6747 46.3208 24.9478 46.53C25.0711 47.135 24.829 47.333 24.2218 47.124C24.0793 46.9978 23.9254 46.8879 23.7598 46.794C23.8235 46.5251 23.9335 46.2611 24.0898 46.002Z" fill="#EAEAE9"/>
<path fill-rule="evenodd" clip-rule="evenodd" d="M21.1862 42.966C22.3562 42.9696 22.9063 43.5417 22.8362 44.682C22.5641 45.2018 22.2782 45.2018 21.9782 44.682C22.2257 44.0487 22.0056 43.7407 21.3182 43.758C21.4688 44.3021 21.6008 44.852 21.7142 45.408C21.5868 46.4125 21.0147 46.8085 19.9982 46.596C18.9698 45.965 18.8378 45.195 19.6022 44.286C19.7781 44.418 19.9542 44.55 20.1302 44.682C19.7389 45.1122 19.7829 45.4863 20.2622 45.804C20.475 45.899 20.673 45.8771 20.8562 45.738C20.7786 45.1928 20.6686 44.6428 20.5262 44.088C20.5317 43.8284 20.5977 43.5863 20.7242 43.362C20.9245 43.2745 21.0786 43.1425 21.1862 42.966Z" fill="#221D1B"/>
<path fill-rule="evenodd" clip-rule="evenodd" d="M43.626 43.362C44.9349 43.8845 46.211 44.4785 47.454 45.144C47.2923 45.3503 47.0943 45.5044 46.86 45.606C46.5894 45.4356 46.3034 45.3696 46.002 45.408C45.6176 45.6533 45.4196 45.9833 45.408 46.398C45.8733 46.8354 45.8073 47.1874 45.21 47.454C44.5721 46.354 43.934 45.254 43.296 44.154C43.208 44.022 43.208 43.89 43.296 43.758C43.434 43.6428 43.5439 43.5108 43.626 43.362Z" fill="#201B19"/>
<path fill-rule="evenodd" clip-rule="evenodd" d="M44.2861 44.418C44.5573 44.5644 44.8433 44.6964 45.1441 44.814C45.3101 44.8602 45.3541 44.9482 45.2761 45.078C45.1656 45.2769 45.0116 45.3429 44.8141 45.276C44.5855 45.0157 44.4096 44.7297 44.2861 44.418Z" fill="#DDDCDB"/>
<path opacity="0.941" fill-rule="evenodd" clip-rule="evenodd" d="M37.5542 63.954C38.6519 64.0444 39.7519 64.0884 40.8542 64.086C40.4385 64.1738 39.9986 64.2177 39.5342 64.218C38.8405 64.2399 38.1805 64.1519 37.5542 63.954Z" fill="#5D5B59"/>
<path d="M88.6323 24.2C89.9723 24.2 91.1323 24.45 92.1123 24.95C93.1123 25.43 93.8923 26.12 94.4523 27.02C95.0123 27.92 95.2923 28.99 95.2923 30.23C95.2923 31.47 95.0123 32.54 94.4523 33.44C93.8923 34.34 93.1123 35.04 92.1123 35.54C91.1323 36.02 89.9723 36.26 88.6323 36.26H84.0423V44H81.6423V24.2H88.6323ZM88.2723 34.01C89.8323 34.01 90.9723 33.69 91.6923 33.05C92.4123 32.39 92.7723 31.45 92.7723 30.23C92.7723 28.99 92.4123 28.05 91.6923 27.41C90.9723 26.77 89.8323 26.45 88.2723 26.45H84.0423V34.01H88.2723ZM105.449 28.7C106.869 28.7 108.119 29.01 109.199 29.63C110.299 30.25 111.159 31.15 111.779 32.33C112.399 33.49 112.709 34.88 112.709 36.5C112.709 38.12 112.399 39.52 111.779 40.7C111.159 41.86 110.299 42.75 109.199 43.37C108.119 43.99 106.869 44.3 105.449 44.3C104.049 44.3 102.799 43.99 101.699 43.37C100.599 42.75 99.7392 41.86 99.1192 40.7C98.4992 39.52 98.1892 38.12 98.1892 36.5C98.1892 34.88 98.4992 33.49 99.1192 32.33C99.7392 31.15 100.599 30.25 101.699 29.63C102.799 29.01 104.049 28.7 105.449 28.7ZM105.449 30.77C104.429 30.77 103.559 31 102.839 31.46C102.119 31.92 101.559 32.58 101.159 33.44C100.779 34.28 100.589 35.3 100.589 36.5C100.589 37.68 100.779 38.7 101.159 39.56C101.559 40.42 102.119 41.08 102.839 41.54C103.559 42 104.429 42.23 105.449 42.23C106.469 42.23 107.339 42 108.059 41.54C108.779 41.08 109.329 40.42 109.709 39.56C110.109 38.7 110.309 37.68 110.309 36.5C110.309 35.3 110.109 34.28 109.709 33.44C109.329 32.58 108.779 31.92 108.059 31.46C107.339 31 106.469 30.77 105.449 30.77ZM119.508 22.1V40.19C119.508 40.95 119.648 41.48 119.928 41.78C120.208 42.06 120.658 42.2 121.278 42.2C121.678 42.2 122.008 42.17 122.268 42.11C122.528 42.05 122.878 41.94 123.318 41.78L122.928 43.88C122.608 44.02 122.258 44.12 121.878 44.18C121.498 44.26 121.108 44.3 120.708 44.3C119.488 44.3 118.578 43.97 117.978 43.31C117.398 42.65 117.108 41.64 117.108 40.28V22.1H119.508ZM131.797 44.3C130.337 44.3 128.987 43.99 127.747 43.37C126.527 42.75 125.587 41.87 124.927 40.73L126.967 39.26C127.407 40.18 128.047 40.9 128.887 41.42C129.747 41.94 130.777 42.2 131.977 42.2C133.037 42.2 133.867 42 134.467 41.6C135.067 41.18 135.367 40.64 135.367 39.98C135.367 39.56 135.227 39.18 134.947 38.84C134.687 38.48 134.177 38.22 133.417 38.06L129.817 37.31C128.357 37.01 127.307 36.51 126.667 35.81C126.047 35.11 125.737 34.24 125.737 33.2C125.737 32.38 125.967 31.63 126.427 30.95C126.907 30.27 127.577 29.73 128.437 29.33C129.317 28.91 130.347 28.7 131.527 28.7C133.007 28.7 134.257 28.99 135.277 29.57C136.297 30.15 137.057 30.97 137.557 32.03L135.547 33.35C135.207 32.47 134.657 31.83 133.897 31.43C133.137 31.01 132.347 30.8 131.527 30.8C130.807 30.8 130.187 30.9 129.667 31.1C129.167 31.3 128.777 31.58 128.497 31.94C128.237 32.28 128.107 32.67 128.107 33.11C128.107 33.55 128.257 33.96 128.557 34.34C128.857 34.7 129.417 34.96 130.237 35.12L133.987 35.9C135.387 36.18 136.367 36.64 136.927 37.28C137.487 37.92 137.767 38.7 137.767 39.62C137.767 40.56 137.517 41.39 137.017 42.11C136.517 42.81 135.817 43.35 134.917 43.73C134.017 44.11 132.977 44.3 131.797 44.3ZM142.218 44V29H144.168L144.498 31.46C144.918 30.54 145.528 29.85 146.328 29.39C147.148 28.93 148.138 28.7 149.298 28.7C149.558 28.7 149.838 28.72 150.138 28.76C150.458 28.8 150.728 28.88 150.948 29L150.528 31.19C150.308 31.11 150.068 31.05 149.808 31.01C149.548 30.97 149.178 30.95 148.698 30.95C148.078 30.95 147.448 31.13 146.808 31.49C146.188 31.85 145.668 32.4 145.248 33.14C144.828 33.86 144.618 34.78 144.618 35.9V44H142.218ZM155.664 26.12C155.124 26.12 154.684 25.96 154.344 25.64C154.024 25.3 153.864 24.86 153.864 24.32C153.864 23.78 154.024 23.35 154.344 23.03C154.684 22.69 155.124 22.52 155.664 22.52C156.204 22.52 156.634 22.69 156.954 23.03C157.294 23.35 157.464 23.78 157.464 24.32C157.464 24.86 157.294 25.3 156.954 25.64C156.634 25.96 156.204 26.12 155.664 26.12ZM156.864 29V44H154.464V29H156.864ZM175.333 24.2V36.71C175.333 39.09 174.663 40.95 173.323 42.29C171.983 43.63 170.083 44.3 167.623 44.3C165.863 44.3 164.433 43.98 163.333 43.34C162.233 42.7 161.473 41.8 161.053 40.64C160.633 39.48 160.553 38.15 160.813 36.65L164.833 35.93C164.593 37.69 164.703 38.96 165.163 39.74C165.623 40.52 166.473 40.91 167.713 40.91C169.013 40.91 169.913 40.51 170.413 39.71C170.933 38.91 171.193 37.72 171.193 36.14V24.2H175.333ZM186.455 28.7C187.975 28.7 189.305 29.01 190.445 29.63C191.605 30.25 192.505 31.14 193.145 32.3C193.805 33.46 194.135 34.86 194.135 36.5C194.135 38.12 193.805 39.52 193.145 40.7C192.505 41.86 191.605 42.75 190.445 43.37C189.305 43.99 187.975 44.3 186.455 44.3C184.955 44.3 183.625 43.99 182.465 43.37C181.305 42.75 180.395 41.86 179.735 40.7C179.095 39.52 178.775 38.12 178.775 36.5C178.775 34.86 179.095 33.46 179.735 32.3C180.395 31.14 181.305 30.25 182.465 29.63C183.625 29.01 184.955 28.7 186.455 28.7ZM186.455 31.76C185.695 31.76 185.045 31.94 184.505 32.3C183.985 32.64 183.585 33.16 183.305 33.86C183.025 34.56 182.885 35.44 182.885 36.5C182.885 37.56 183.025 38.44 183.305 39.14C183.585 39.84 183.985 40.37 184.505 40.73C185.045 41.07 185.695 41.24 186.455 41.24C187.195 41.24 187.825 41.07 188.345 40.73C188.885 40.37 189.295 39.84 189.575 39.14C189.855 38.44 189.995 37.56 189.995 36.5C189.995 35.44 189.855 34.56 189.575 33.86C189.295 33.16 188.885 32.64 188.345 32.3C187.825 31.94 187.195 31.76 186.455 31.76ZM206.394 44.3C205.474 44.3 204.634 44.11 203.874 43.73C203.134 43.33 202.514 42.79 202.014 42.11C201.534 41.41 201.204 40.63 201.024 39.77L201.444 39.23L201.204 44H197.574V22.43H201.684V33.23L201.294 32.6C201.614 31.48 202.224 30.55 203.124 29.81C204.024 29.07 205.154 28.7 206.514 28.7C207.694 28.7 208.764 29.01 209.724 29.63C210.684 30.25 211.434 31.14 211.974 32.3C212.534 33.46 212.814 34.87 212.814 36.53C212.814 38.15 212.534 39.54 211.974 40.7C211.434 41.86 210.674 42.75 209.694 43.37C208.734 43.99 207.634 44.3 206.394 44.3ZM205.164 41.15C206.264 41.15 207.124 40.76 207.744 39.98C208.384 39.18 208.704 38.02 208.704 36.5C208.704 34.98 208.394 33.83 207.774 33.05C207.154 32.25 206.294 31.85 205.194 31.85C204.474 31.85 203.854 32.04 203.334 32.42C202.814 32.8 202.404 33.34 202.104 34.04C201.824 34.74 201.684 35.57 201.684 36.53C201.684 37.51 201.824 38.35 202.104 39.05C202.404 39.73 202.814 40.25 203.334 40.61C203.874 40.97 204.484 41.15 205.164 41.15ZM222.383 44.3C220.863 44.3 219.473 44.03 218.213 43.49C216.973 42.95 215.963 42.19 215.183 41.21L217.553 38.81C218.033 39.53 218.673 40.12 219.473 40.58C220.273 41.04 221.223 41.27 222.323 41.27C223.103 41.27 223.723 41.16 224.183 40.94C224.663 40.7 224.903 40.33 224.903 39.83C224.903 39.51 224.793 39.24 224.573 39.02C224.353 38.78 223.913 38.59 223.253 38.45L220.613 37.91C218.873 37.55 217.633 37.01 216.893 36.29C216.173 35.55 215.813 34.6 215.813 33.44C215.813 32.62 216.053 31.85 216.533 31.13C217.033 30.41 217.773 29.83 218.753 29.39C219.733 28.93 220.953 28.7 222.413 28.7C223.913 28.7 225.213 28.94 226.313 29.42C227.433 29.88 228.313 30.57 228.953 31.49L226.493 33.89C226.053 33.19 225.473 32.66 224.753 32.3C224.053 31.92 223.313 31.73 222.533 31.73C221.973 31.73 221.493 31.79 221.093 31.91C220.693 32.03 220.393 32.2 220.193 32.42C219.993 32.62 219.893 32.88 219.893 33.2C219.893 33.52 220.033 33.8 220.313 34.04C220.593 34.26 221.103 34.45 221.843 34.61L224.903 35.24C226.383 35.54 227.443 36.05 228.083 36.77C228.723 37.47 229.043 38.32 229.043 39.32C229.043 40.28 228.783 41.14 228.263 41.9C227.763 42.64 227.013 43.23 226.013 43.67C225.033 44.09 223.823 44.3 222.383 44.3ZM234.39 39.41C235.19 39.41 235.82 39.63 236.28 40.07C236.76 40.51 237 41.1 237 41.84C237 42.6 236.76 43.2 236.28 43.64C235.82 44.06 235.19 44.27 234.39 44.27C233.59 44.27 232.95 44.06 232.47 43.64C232.01 43.2 231.78 42.6 231.78 41.84C231.78 41.1 232.01 40.51 232.47 40.07C232.95 39.63 233.59 39.41 234.39 39.41Z" fill="#303030"/>
</svg>
